B612Mono-Regular.ufo
<glyph name="quotedbl" format="1">
  <advance width="1300"/>
  <unicode hex="0022"/>
  <outline>
    <contour>
      <point x="525" y="1500" type="line" name="sh01"/>
      <point x="525" y="1400" type="line" name="mh01"/>
      <point x="525" y="1381"/>
      <point x="521" y="1333"/>
      <point x="514" y="1279"/>
      <point x="506" y="1223"/>
      <point x="502" y="1196" type="qcurve" name="mh02"/>
      <point x="481" y="1067" type="line"/>
      <point x="394" y="1067" type="line" name="sv01"/>
      <point x="372" y="1196" type="line"/>
      <point x="367" y="1223"/>
      <point x="359" y="1279"/>
      <point x="353" y="1333"/>
      <point x="350" y="1381"/>
      <point x="350" y="1400" type="qcurve"/>
      <point x="350" y="1500" type="line" name="ah01"/>
    </contour>
    <contour>
      <point x="826" y="1500" type="line" name="sh02"/>
      <point x="826" y="1400" type="line"/>
      <point x="826" y="1381"/>
      <point x="822" y="1333"/>
      <point x="815" y="1279"/>
      <point x="807" y="1223"/>
      <point x="803" y="1196" type="qcurve"/>
      <point x="782" y="1067" type="line" name="mh03"/>
      <point x="695" y="1067" type="line" name="sv02"/>
      <point x="673" y="1196" type="line"/>
      <point x="668" y="1223"/>
      <point x="660" y="1279"/>
      <point x="654" y="1333"/>
      <point x="651" y="1381"/>
      <point x="651" y="1400" type="qcurve" name="mh04"/>
      <point x="651" y="1500" type="line" name="ah02"/>
    </contour>
  </outline>
</glyph>
<glyph name="dollar" format="1">
  <advance width="1300"/>
  <unicode hex="0024"/>
  <outline>
    <contour>
      <point x="992" y="1300" type="line" name="hr00"/>
      <point x="946" y="1337"/>
      <point x="850" y="1380"/>
      <point x="746" y="1388" type="curve"/>
      <point x="746" y="863" type="line"/>
      <point x="930" y="778"/>
      <point x="1123" y="676"/>
      <point x="1123" y="432" type="curve" smooth="yes"/>
      <point x="1123" y="183"/>
      <point x="966" y="35"/>
      <point x="746" y="-5" type="curve"/>
      <point x="746" y="-200" type="line"/>
      <point x="600" y="-200" type="line"/>
      <point x="600" y="-17" type="line"/>
      <point x="446" y="-14"/>
      <point x="290" y="42"/>
      <point x="205" y="100" type="curve"/>
      <point x="323" y="241" type="line"/>
      <point x="376" y="206"/>
      <point x="460" y="148"/>
      <point x="600" y="148" type="curve"/>
      <point x="600" y="721" type="line"/>
      <point x="415" y="812"/>
      <point x="223" y="909"/>
      <point x="223" y="1116" type="curve" smooth="yes"/>
      <point x="223" y="1396"/>
      <point x="404" y="1496"/>
      <point x="600" y="1517" type="curve"/>
      <point x="600" y="1700" type="line"/>
      <point x="746" y="1720" type="line"/>
      <point x="746" y="1517" type="line"/>
      <point x="887" y="1509"/>
      <point x="994" y="1468"/>
      <point x="1086" y="1400" type="curve"/>
    </contour>
    <contour>
      <point x="933" y="400" type="curve" smooth="yes"/>
      <point x="933" y="521"/>
      <point x="837" y="595"/>
      <point x="716" y="662" type="curve"/>
      <point x="716" y="158" type="line"/>
      <point x="847" y="182"/>
      <point x="933" y="257"/>
    </contour>
    <contour>
      <point x="413" y="1147" type="curve" smooth="yes"/>
      <point x="413" y="1037"/>
      <point x="509" y="975"/>
      <point x="630" y="916" type="curve"/>
      <point x="630" y="1383" type="line"/>
      <point x="522" y="1365"/>
      <point x="413" y="1303"/>
    </contour>
  </outline>
</glyph>
<glyph name="ampersand" format="1">
  <advance width="1300"/>
  <unicode hex="0026"/>
  <outline>
    <contour>
      <point x="1176" y="721" type="line"/>
      <point x="1176" y="642"/>
      <point x="1161" y="483"/>
      <point x="1118" y="333"/>
      <point x="1043" y="197"/>
      <point x="983" y="141" type="qcurve"/>
      <point x="1075" y="141" type="line"/>
      <point x="1195" y="-20" type="line"/>
      <point x="973" y="-20" type="line"/>
      <point x="897" y="77" type="line"/>
      <point x="822" y="27"/>
      <point x="645" y="-17"/>
      <point x="549" y="-17" type="qcurve" name="ab01"/>
      <point x="446" y="-17"/>
      <point x="280" y="58"/>
      <point x="163" y="186"/>
      <point x="100" y="354"/>
      <point x="100" y="447" type="qcurve" name="ah01"/>
      <point x="100" y="542"/>
      <point x="151" y="689"/>
      <point x="231" y="796"/>
      <point x="325" y="864"/>
      <point x="369" y="881" type="qcurve"/>
      <point x="350" y="909"/>
      <point x="311" y="982"/>
      <point x="280" y="1060"/>
      <point x="260" y="1140"/>
      <point x="260" y="1176" type="qcurve" name="ah02"/>
      <point x="260" y="1248"/>
      <point x="299" y="1372"/>
      <point x="385" y="1464"/>
      <point x="521" y="1517"/>
      <point x="617" y="1517" type="qcurve" name="at01"/>
      <point x="683" y="1517"/>
      <point x="788" y="1482"/>
      <point x="871" y="1429"/>
      <point x="934" y="1366"/>
      <point x="957" y="1338" type="qcurve"/>
      <point x="877" y="1200" type="line"/>
      <point x="862" y="1226"/>
      <point x="816" y="1282"/>
      <point x="751" y="1329"/>
      <point x="664" y="1359"/>
      <point x="609" y="1359" type="qcurve"/>
      <point x="561" y="1359"/>
      <point x="496" y="1321"/>
      <point x="456" y="1265"/>
      <point x="439" y="1201"/>
      <point x="439" y="1175" type="qcurve"/>
      <point x="439" y="1146"/>
      <point x="449" y="1112" type="qcurve"/>
      <point x="453" y="1097"/>
      <point x="476" y="1051"/>
      <point x="519" y="976"/>
      <point x="587" y="865"/>
      <point x="686" y="706"/>
      <point x="819" y="492"/>
      <point x="906" y="352" type="qcurve"/>
      <point x="930" y="386"/>
      <point x="959" y="460"/>
      <point x="976" y="544" name="ah03"/>
      <point x="982" y="641"/>
      <point x="982" y="700" type="qcurve"/>
    </contour>
    <contour>
      <point x="425" y="700" type="line"/>
      <point x="362" y="671"/>
      <point x="289" y="553"/>
      <point x="289" y="457" type="qcurve"/>
      <point x="289" y="385"/>
      <point x="341" y="277"/>
      <point x="422" y="205"/>
      <point x="523" y="170"/>
      <point x="573" y="170" type="qcurve"/>
      <point x="616" y="170"/>
      <point x="682" y="180"/>
      <point x="732" y="197"/>
      <point x="771" y="220"/>
      <point x="787" y="234" type="qcurve"/>
      <point x="425" y="800" type="line"/>
    </contour>
  </outline>
</glyph>
<glyph name="quotesingle" format="1">
  <advance width="1300"/>
  <unicode hex="0027"/>
  <outline>
    <contour>
      <point x="225" y="1500" type="line" name="dh01"/>
      <point x="400" y="1500" type="line" name="dh02"/>
      <point x="400" y="1400" type="line"/>
      <point x="400" y="1325"/>
      <point x="329" y="1155"/>
      <point x="259" y="1067" type="qcurve" name="av01"/>
      <point x="200" y="1067" type="line" name="sh01"/>
      <point x="209" y="1117"/>
      <point x="220" y="1205"/>
      <point x="224" y="1286" name="sh02"/>
      <point x="225" y="1362"/>
      <point x="225" y="1400" type="qcurve"/>
    </contour>
  </outline>
</glyph>
<glyph name="parenleft" format="1">
  <advance width="1300"/>
  <unicode hex="0028"/>
  <outline>
    <contour>
      <point x="500" y="1180" type="line" name="ah01"/>
      <point x="500" y="1269"/>
      <point x="518" y="1423"/>
      <point x="579" y="1536"/>
      <point x="698" y="1600"/>
      <point x="800" y="1600" type="qcurve" name="av01"/>
      <point x="819" y="1600"/>
      <point x="861" y="1597"/>
      <point x="898" y="1590"/>
      <point x="930" y="1581"/>
      <point x="939" y="1575" type="qcurve"/>
      <point x="870" y="1449" type="line"/>
      <point x="856" y="1451" type="line"/>
      <point x="849" y="1452"/>
      <point x="831" y="1454"/>
      <point x="820" y="1454" type="qcurve"/>
      <point x="776" y="1454"/>
      <point x="727" y="1412"/>
      <point x="704" y="1340"/>
      <point x="700" y="1246"/>
      <point x="700" y="1194" type="qcurve" name="sh01"/>
      <point x="700" y="-14" type="line" name="sh02"/>
      <point x="700" y="-66"/>
      <point x="704" y="-160"/>
      <point x="727" y="-232"/>
      <point x="776" y="-274"/>
      <point x="820" y="-274" type="qcurve"/>
      <point x="831" y="-274"/>
      <point x="849" y="-273"/>
      <point x="856" y="-272" type="qcurve"/>
      <point x="870" y="-269" type="line"/>
      <point x="939" y="-395" type="line"/>
      <point x="930" y="-401"/>
      <point x="898" y="-410"/>
      <point x="861" y="-417"/>
      <point x="819" y="-420"/>
      <point x="800" y="-420" type="qcurve" name="av02"/>
      <point x="698" y="-420"/>
      <point x="579" y="-356"/>
      <point x="518" y="-243"/>
      <point x="500" y="-89"/>
      <point x="500" y="0" type="qcurve" name="ah02"/>
    </contour>
  </outline>
</glyph>
<glyph name="parenright" format="1">
  <advance width="1300"/>
  <unicode hex="0029"/>
  <outline>
    <contour>
      <point x="899" y="0" type="line" name="ah02"/>
      <point x="899" y="-89"/>
      <point x="881" y="-243"/>
      <point x="820" y="-356"/>
      <point x="701" y="-420"/>
      <point x="599" y="-420" type="qcurve"/>
      <point x="579" y="-420" name="av02"/>
      <point x="538" y="-417"/>
      <point x="501" y="-410"/>
      <point x="469" y="-401"/>
      <point x="460" y="-395" type="qcurve"/>
      <point x="529" y="-269" type="line"/>
      <point x="543" y="-272" type="line"/>
      <point x="550" y="-273"/>
      <point x="568" y="-274"/>
      <point x="579" y="-274" type="qcurve"/>
      <point x="623" y="-274"/>
      <point x="672" y="-232"/>
      <point x="695" y="-160"/>
      <point x="699" y="-66"/>
      <point x="699" y="-14" type="qcurve" name="sh01"/>
      <point x="699" y="1194" type="line" name="sh02"/>
      <point x="699" y="1246"/>
      <point x="695" y="1340"/>
      <point x="672" y="1412"/>
      <point x="623" y="1454"/>
      <point x="579" y="1454" type="qcurve"/>
      <point x="568" y="1454"/>
      <point x="550" y="1452"/>
      <point x="543" y="1451" type="qcurve"/>
      <point x="529" y="1449" type="line"/>
      <point x="460" y="1575" type="line"/>
      <point x="469" y="1581"/>
      <point x="501" y="1590"/>
      <point x="538" y="1597"/>
      <point x="579" y="1600"/>
      <point x="599" y="1600" type="qcurve" name="av01"/>
      <point x="701" y="1600"/>
      <point x="820" y="1536"/>
      <point x="881" y="1423"/>
      <point x="899" y="1269"/>
      <point x="899" y="1180" type="qcurve" name="ah01"/>
    </contour>
  </outline>
</glyph>
<glyph name="period" format="1">
  <advance width="1300"/>
  <unicode hex="002E"/>
  <outline>
    <contour>
      <point x="136" y="150" type="qcurve" name="ah01"/>
      <point x="136" y="184"/>
      <point x="162" y="244"/>
      <point x="207" y="289"/>
      <point x="266" y="315"/>
      <point x="300" y="315" type="qcurve" name="av01"/>
      <point x="334" y="315"/>
      <point x="394" y="289"/>
      <point x="439" y="244"/>
      <point x="465" y="184"/>
      <point x="465" y="150" type="qcurve" name="ah02"/>
      <point x="465" y="116"/>
      <point x="439" y="55"/>
      <point x="395" y="10"/>
      <point x="336" y="-17"/>
      <point x="302" y="-17" type="qcurve" name="ab01"/>
      <point x="268" y="-17"/>
      <point x="207" y="10"/>
      <point x="162" y="55"/>
      <point x="136" y="116"/>
    </contour>
  </outline>
</glyph>
<glyph name="slash" format="1">
  <advance width="1300"/>
  <unicode hex="002F"/>
  <outline>
    <contour>
      <point x="385" y="-100" type="line" name="av02"/>
      <point x="175" y="-100" type="line"/>
      <point x="885" y="1600" type="line" name="av01"/>
      <point x="1085" y="1600" type="line"/>
    </contour>
  </outline>
</glyph>
<glyph name="three" format="1">
  <advance width="1300"/>
  <unicode hex="0033"/>
  <outline>
    <contour>
      <point x="227" y="1340" type="line" name="sv01"/>
      <point x="242" y="1500" type="line" name="at01"/>
      <point x="1022" y="1500" type="line"/>
      <point x="1022" y="1360" type="line"/>
      <point x="1010" y="1320"/>
      <point x="953" y="1233"/>
      <point x="876" y="1144"/>
      <point x="785" y="1058"/>
      <point x="739" y="1019" type="qcurve"/>
      <point x="607" y="945" type="line"/>
      <point x="617" y="947"/>
      <point x="648" y="948"/>
      <point x="662" y="948" type="qcurve" name="dv02"/>
      <point x="759" y="948"/>
      <point x="926" y="900"/>
      <point x="1049" y="803"/>
      <point x="1120" y="654"/>
      <point x="1120" y="553" type="qcurve" name="dh04"/>
      <point x="1120" y="456"/>
      <point x="1048" y="298"/>
      <point x="923" y="175"/>
      <point x="755" y="86"/>
      <point x="564" y="28"/>
      <point x="360" y="0"/>
      <point x="262" y="0" type="qcurve" name="ab01"/>
      <point x="262" y="160" type="line" name="dh01"/>
      <point x="345" y="163"/>
      <point x="505" y="187"/>
      <point x="649" y="230"/>
      <point x="771" y="292"/>
      <point x="860" y="375"/>
      <point x="910" y="480"/>
      <point x="910" y="543" type="qcurve" name="dh03"/>
      <point x="910" y="615"/>
      <point x="849" y="711"/>
      <point x="743" y="767"/>
      <point x="600" y="790"/>
      <point x="518" y="790" type="qcurve" name="dv01"/>
      <point x="486" y="790"/>
      <point x="411" y="787"/>
      <point x="381" y="785" type="qcurve" name="dh02"/>
      <point x="381" y="940" type="line"/>
      <point x="422" y="970"/>
      <point x="518" y="1046"/>
      <point x="616" y="1129"/>
      <point x="709" y="1214"/>
      <point x="785" y="1291"/>
      <point x="837" y="1358"/>
      <point x="845" y="1380" type="qcurve" name="iv01"/>
      <point x="693" y="1340" type="line"/>
    </contour>
  </outline>
</glyph>
<glyph name="five" format="1">
  <advance width="1300"/>
  <unicode hex="0035"/>
  <outline>
    <contour>
      <point x="456" y="982" type="line" name="hr00"/>
      <point x="463" y="986"/>
      <point x="498" y="1004"/>
      <point x="550" y="1022"/>
      <point x="617" y="1035"/>
      <point x="658" y="1035" type="qcurve" name="dv01"/>
      <point x="762" y="1035"/>
      <point x="925" y="970"/>
      <point x="1038" y="857"/>
      <point x="1097" y="705"/>
      <point x="1097" y="619" type="qcurve" name="dh02"/>
      <point x="1097" y="518"/>
      <point x="1025" y="347"/>
      <point x="900" y="210"/>
      <point x="733" y="106"/>
      <point x="544" y="35"/>
      <point x="344" y="0"/>
      <point x="248" y="0" type="qcurve" name="av01"/>
      <point x="248" y="160" type="line" name="sh01"/>
      <point x="323" y="162"/>
      <point x="477" y="194"/>
      <point x="620" y="250"/>
      <point x="745" y="328"/>
      <point x="838" y="424"/>
      <point x="892" y="536"/>
      <point x="892" y="598" type="qcurve" name="dh01"/>
      <point x="892" y="649"/>
      <point x="859" y="745"/>
      <point x="794" y="820"/>
      <point x="696" y="866"/>
      <point x="631" y="866" type="qcurve" name="dv02"/>
      <point x="580" y="866"/>
      <point x="498" y="853"/>
      <point x="434" y="833"/>
      <point x="387" y="810"/>
      <point x="372" y="800" type="qcurve"/>
      <point x="248" y="800" type="line" name="sh02"/>
      <point x="248" y="1500" type="line" name="at01"/>
      <point x="1001" y="1500" type="line" name="at02"/>
      <point x="1001" y="1340" type="line" name="sv01"/>
      <point x="456" y="1340" type="line" name="sh03"/>
    </contour>
  </outline>
</glyph>
<glyph name="colon" format="1">
  <advance width="1300"/>
  <unicode hex="003A"/>
  <outline>
    <contour>
      <point x="152" y="133" type="qcurve" name="ah03"/>
      <point x="152" y="164"/>
      <point x="176" y="218"/>
      <point x="216" y="258"/>
      <point x="269" y="281"/>
      <point x="300" y="281" type="qcurve" name="av03"/>
      <point x="331" y="281"/>
      <point x="385" y="258"/>
      <point x="425" y="218"/>
      <point x="448" y="164"/>
      <point x="448" y="133" type="qcurve" name="ah04"/>
      <point x="448" y="102"/>
      <point x="425" y="47"/>
      <point x="385" y="7"/>
      <point x="332" y="-17"/>
      <point x="302" y="-17" type="qcurve" name="ab01"/>
      <point x="271" y="-17"/>
      <point x="216" y="7"/>
      <point x="176" y="47"/>
      <point x="152" y="102"/>
    </contour>
    <contour>
      <point x="152" y="647" type="qcurve" name="ah01"/>
      <point x="152" y="678"/>
      <point x="176" y="732"/>
      <point x="216" y="772"/>
      <point x="269" y="795"/>
      <point x="300" y="795" type="qcurve" name="av01"/>
      <point x="331" y="795"/>
      <point x="385" y="772"/>
      <point x="425" y="732"/>
      <point x="448" y="678"/>
      <point x="448" y="647" type="qcurve" name="ah02"/>
      <point x="448" y="616"/>
      <point x="425" y="561"/>
      <point x="385" y="521"/>
      <point x="332" y="497"/>
      <point x="302" y="497" type="qcurve" name="av02"/>
      <point x="271" y="497"/>
      <point x="216" y="521"/>
      <point x="176" y="561"/>
      <point x="152" y="616"/>
    </contour>
  </outline>
</glyph>
<glyph name="less" format="1">
  <advance width="1300"/>
  <unicode hex="003C"/>
  <outline>
    <contour>
      <point x="1100" y="1211" type="line"/>
      <point x="1100" y="1036" type="line"/>
      <point x="413" y="670" type="line"/>
      <point x="335" y="650" type="line"/>
      <point x="412" y="630" type="line"/>
      <point x="1100" y="266" type="line"/>
      <point x="1100" y="91" type="line"/>
      <point x="200" y="548" type="line"/>
      <point x="200" y="757" type="line"/>
    </contour>
  </outline>
</glyph>
<glyph name="at" format="1">
  <advance width="1300"/>
  <unicode hex="0040"/>
  <outline>
    <contour>
      <point x="651" y="1486" type="qcurve"/>
      <point x="745" y="1486"/>
      <point x="897" y="1420"/>
      <point x="1015" y="1301"/>
      <point x="1100" y="1134"/>
      <point x="1154" y="933"/>
      <point x="1180" y="702"/>
      <point x="1180" y="578" type="qcurve"/>
      <point x="1180" y="458"/>
      <point x="1164" y="237"/>
      <point x="1114" y="67"/>
      <point x="1018" y="-34"/>
      <point x="939" y="-34" type="qcurve"/>
      <point x="906" y="-34"/>
      <point x="842" y="-14"/>
      <point x="789" y="23"/>
      <point x="751" y="75"/>
      <point x="743" y="108" type="qcurve"/>
      <point x="705" y="8" type="line"/>
      <point x="678" y="-17"/>
      <point x="632" y="-17" type="qcurve"/>
      <point x="586" y="-17"/>
      <point x="501" y="29"/>
      <point x="435" y="118"/>
      <point x="396" y="250"/>
      <point x="396" y="337" type="qcurve" name="mh01"/>
      <point x="396" y="427"/>
      <point x="435" y="562"/>
      <point x="502" y="651"/>
      <point x="590" y="695"/>
      <point x="640" y="695" type="qcurve"/>
      <point x="673" y="695"/>
      <point x="713" y="683"/>
      <point x="724" y="675" type="qcurve"/>
      <point x="736" y="666"/>
      <point x="742" y="655" type="qcurve"/>
      <point x="742" y="690" type="line"/>
      <point x="742" y="745"/>
      <point x="739" y="824"/>
      <point x="723" y="875"/>
      <point x="689" y="900"/>
      <point x="657" y="900" type="qcurve"/>
      <point x="625" y="900"/>
      <point x="565" y="886"/>
      <point x="519" y="868"/>
      <point x="492" y="854"/>
      <point x="492" y="854" type="qcurve"/>
      <point x="492" y="981" type="line"/>
      <point x="509" y="996"/>
      <point x="534" y="1008" type="qcurve"/>
      <point x="555" y="1019"/>
      <point x="618" y="1036"/>
      <point x="663" y="1036" type="qcurve"/>
      <point x="748" y="1036"/>
      <point x="840" y="991"/>
      <point x="883" y="901"/>
      <point x="890" y="766"/>
      <point x="890" y="676" type="qcurve"/>
      <point x="890" y="174" type="line"/>
      <point x="890" y="143"/>
      <point x="913" y="100"/>
      <point x="946" y="100" type="qcurve"/>
      <point x="966" y="100"/>
      <point x="994" y="149"/>
      <point x="1013" y="225"/>
      <point x="1024" y="319"/>
      <point x="1029" y="408"/>
      <point x="1030" y="482"/>
      <point x="1030" y="501" type="qcurve"/>
      <point x="1030" y="672"/>
      <point x="995" y="974"/>
      <point x="908" y="1199"/>
      <point x="760" y="1330"/>
      <point x="647" y="1330" type="qcurve"/>
      <point x="595" y="1330"/>
      <point x="500" y="1273"/>
      <point x="417" y="1171"/>
      <point x="350" y="1031"/>
      <point x="302" y="865"/>
      <point x="276" y="680"/>
      <point x="276" y="584" type="qcurve"/>
      <point x="276" y="481"/>
      <point x="293" y="276"/>
      <point x="330" y="90"/>
      <point x="388" y="-70"/>
      <point x="473" y="-187"/>
      <point x="584" y="-254"/>
      <point x="655" y="-254" type="qcurve"/>
      <point x="685" y="-254"/>
      <point x="742" y="-239"/>
      <point x="790" y="-215"/>
      <point x="828" y="-187"/>
      <point x="840" y="-173" type="qcurve"/>
      <point x="889" y="-322" type="line"/>
      <point x="835" y="-367"/>
      <point x="719" y="-410"/>
      <point x="651" y="-410" type="qcurve"/>
      <point x="553" y="-410"/>
      <point x="399" y="-340"/>
      <point x="281" y="-214"/>
      <point x="197" y="-39"/>
      <point x="144" y="172"/>
      <point x="120" y="412"/>
      <point x="120" y="540" type="qcurve"/>
      <point x="120" y="671"/>
      <point x="149" y="913"/>
      <point x="208" y="1124"/>
      <point x="297" y="1296"/>
      <point x="415" y="1419"/>
      <point x="562" y="1486"/>
    </contour>
    <contour>
      <point x="742" y="522" type="line"/>
      <point x="741" y="525"/>
      <point x="735" y="529" type="qcurve"/>
      <point x="730" y="532"/>
      <point x="706" y="537"/>
      <point x="683" y="537" type="qcurve"/>
      <point x="653" y="537"/>
      <point x="604" y="515"/>
      <point x="568" y="467"/>
      <point x="548" y="391"/>
      <point x="548" y="337" type="qcurve"/>
      <point x="548" y="293"/>
      <point x="560" y="220"/>
      <point x="585" y="168"/>
      <point x="622" y="139"/>
      <point x="647" y="139" type="qcurve"/>
      <point x="670" y="139"/>
      <point x="706" y="179"/>
      <point x="718" y="203" type="qcurve"/>
      <point x="732" y="231"/>
      <point x="742" y="267" type="qcurve"/>
    </contour>
  </outline>
</glyph>
<glyph name="A" format="1">
  <advance width="1300"/>
  <unicode hex="0041"/>
  <outline>
    <contour>
      <point x="32" y="0" type="line" name="sh02"/>
      <point x="504" y="1300" type="line"/>
      <point x="539" y="1500" type="line"/>
      <point x="717" y="1520" type="line" name="at01"/>
      <point x="1265" y="0" type="line" name="sh04"/>
      <point x="1065" y="0" type="line" name="sh03"/>
      <point x="917" y="450" type="line" name="dv01"/>
      <point x="382" y="450" type="line"/>
      <point x="216" y="0" type="line" name="sh01"/>
    </contour>
    <contour>
      <point x="645" y="1400" type="line" name="ah01"/>
      <point x="600" y="1080" type="line"/>
      <point x="431" y="600" type="line"/>
      <point x="868" y="600" type="line" name="ih01"/>
      <point x="690" y="1080" type="line"/>
    </contour>
  </outline>
</glyph>
<glyph name="D" format="1">
  <advance width="1300"/>
  <unicode hex="0044"/>
  <outline>
    <contour>
      <point x="175" y="1500" type="line" name="at01"/>
      <point x="206" y="1503"/>
      <point x="286" y="1507"/>
      <point x="370" y="1510"/>
      <point x="452" y="1511"/>
      <point x="485" y="1511" type="qcurve" name="at02"/>
      <point x="644" y="1511"/>
      <point x="915" y="1433"/>
      <point x="1113" y="1263"/>
      <point x="1225" y="997"/>
      <point x="1225" y="810" type="qcurve" name="sh01"/>
      <point x="1225" y="664"/>
      <point x="1169" y="431"/>
      <point x="1070" y="251"/>
      <point x="931" y="122"/>
      <point x="764" y="39"/>
      <point x="576" y="0"/>
      <point x="476" y="0" type="qcurve" name="ab01"/>
      <point x="205" y="0" type="line" name="sh02"/>
      <point x="205" y="1290" type="line"/>
    </contour>
    <contour>
      <point x="395" y="1150" type="line"/>
      <point x="395" y="160" type="line" name="sh03"/>
      <point x="415" y="160" type="line"/>
      <point x="544" y="160"/>
      <point x="734" y="220"/>
      <point x="867" y="319"/>
      <point x="951" y="448"/>
      <point x="998" y="586"/>
      <point x="1015" y="722"/>
      <point x="1015" y="780" type="qcurve" name="ah01"/>
      <point x="1015" y="865"/>
      <point x="999" y="1017"/>
      <point x="955" y="1145"/>
      <point x="879" y="1247"/>
      <point x="759" y="1319"/>
      <point x="590" y="1358"/>
      <point x="476" y="1358" type="qcurve" name="sv01"/>
      <point x="460" y="1358"/>
      <point x="424" y="1356"/>
      <point x="408" y="1354" type="qcurve" name="sh04"/>
      <point x="370" y="1350" type="line" name="sv02"/>
    </contour>
  </outline>
</glyph>
<glyph name="J" format="1">
  <advance width="1300"/>
  <unicode hex="004A"/>
  <outline>
    <contour>
      <point x="390" y="1500" type="line" name="hr00"/>
      <point x="1090" y="1500" type="line" name="ah01"/>
      <point x="1090" y="430" type="line" name="dh02"/>
      <point x="1090" y="333"/>
      <point x="1042" y="175"/>
      <point x="990" y="112" type="qcurve"/>
      <point x="938" y="49"/>
      <point x="770" y="-17"/>
      <point x="648" y="-17" type="qcurve" name="ab01"/>
      <point x="570" y="-17"/>
      <point x="447" y="20"/>
      <point x="349" y="79"/>
      <point x="272" y="149"/>
      <point x="240" y="182" type="qcurve" name="dv01"/>
      <point x="342" y="300" type="line" name="dv02"/>
      <point x="352" y="290"/>
      <point x="406" y="245"/>
      <point x="484" y="200"/>
      <point x="582" y="166"/>
      <point x="638" y="166" type="qcurve" name="sv01"/>
      <point x="767" y="166"/>
      <point x="910" y="312"/>
      <point x="910" y="470" type="qcurve" name="dh01"/>
      <point x="910" y="1148" type="line"/>
      <point x="930" y="1340" type="line"/>
      <point x="410" y="1340" type="line" name="sh01"/>
    </contour>
  </outline>
</glyph>
<glyph name="L" format="1">
  <advance width="1300"/>
  <unicode hex="004C"/>
  <outline>
    <contour>
      <point x="383" y="160" type="line" name="sv01"/>
      <point x="1113" y="160" type="line"/>
      <point x="1093" y="0" type="line" name="ab01"/>
      <point x="188" y="0" type="line"/>
      <point x="208" y="200" type="line" name="dh01"/>
      <point x="208" y="1290" type="line"/>
      <point x="178" y="1500" type="line"/>
      <point x="393" y="1520" type="line" name="at01"/>
      <point x="393" y="340" type="line" name="dh02"/>
    </contour>
  </outline>
</glyph>
<glyph name="Q" format="1">
  <advance width="1300"/>
  <unicode hex="0051"/>
  <outline>
    <contour>
      <point x="916" y="314" type="line" name="hr00"/>
      <point x="935" y="346"/>
      <point x="967" y="425"/>
      <point x="988" y="529"/>
      <point x="1000" y="664"/>
      <point x="1000" y="751" type="qcurve" name="dh03"/>
      <point x="1000" y="821"/>
      <point x="987" y="963"/>
      <point x="955" y="1096"/>
      <point x="903" y="1212"/>
      <point x="823" y="1297"/>
      <point x="715" y="1347"/>
      <point x="644" y="1347" type="qcurve" name="sv01"/>
      <point x="576" y="1347"/>
      <point x="473" y="1298"/>
      <point x="397" y="1214"/>
      <point x="345" y="1102"/>
      <point x="313" y="977"/>
      <point x="300" y="846"/>
      <point x="300" y="785" type="qcurve" name="dh02"/>
      <point x="300" y="705"/>
      <point x="310" y="551"/>
      <point x="339" y="413"/>
      <point x="392" y="297"/>
      <point x="479" y="212"/>
      <point x="605" y="164" name="sv02"/>
      <point x="693" y="163" type="qcurve"/>
      <point x="703" y="163"/>
      <point x="719" y="167"/>
      <point x="736" y="172" type="qcurve" name="iv01"/>
      <point x="710" y="217"/>
      <point x="671" y="286"/>
      <point x="631" y="333"/>
      <point x="583" y="356"/>
      <point x="549" y="356" type="qcurve" name="dv03"/>
      <point x="600" y="500" type="line" name="dv04"/>
      <point x="649" y="500"/>
      <point x="728" y="459"/>
      <point x="800" y="377"/>
      <point x="872" y="256"/>
      <point x="916" y="177" type="qcurve" name="iv02"/>
    </contour>
    <contour>
      <point x="756" y="0" type="line"/>
      <point x="723" y="-8"/>
      <point x="648" y="-14"/>
      <point x="600" y="-14" type="qcurve" name="ab01"/>
      <point x="476" y="-14"/>
      <point x="289" y="112"/>
      <point x="163" y="324"/>
      <point x="100" y="600"/>
      <point x="100" y="750" type="qcurve" name="dh01"/>
      <point x="100" y="855"/>
      <point x="130" y="1050"/>
      <point x="191" y="1221"/>
      <point x="282" y="1361"/>
      <point x="404" y="1462"/>
      <point x="558" y="1517"/>
      <point x="650" y="1517" type="qcurve" name="at01"/>
      <point x="785" y="1517"/>
      <point x="991" y="1405"/>
      <point x="1129" y="1209"/>
      <point x="1200" y="939"/>
      <point x="1200" y="782" type="qcurve" name="dh04"/>
      <point x="1200" y="686"/>
      <point x="1178" y="495"/>
      <point x="1131" y="323"/>
      <point x="1056" y="176"/>
      <point x="1002" y="124" type="qcurve"/>
      <point x="994" y="116"/>
      <point x="976" y="99"/>
      <point x="968" y="92" type="qcurve"/>
      <point x="987" y="60"/>
      <point x="1017" y="24"/>
      <point x="1055" y="5"/>
      <point x="1109" y="0"/>
      <point x="1151" y="0" type="qcurve" name="dv02"/>
      <point x="1100" y="-145" type="line" name="dv01"/>
      <point x="1050" y="-145"/>
      <point x="967" y="-129"/>
      <point x="890" y="-77"/>
      <point x="816" y="21"/>
      <point x="774" y="102" type="qcurve"/>
      <point x="756" y="137" type="line"/>
    </contour>
  </outline>
</glyph>
<glyph name="S" format="1">
  <advance width="1300"/>
  <unicode hex="0053"/>
  <outline>
    <contour>
      <point x="193" y="94" type="qcurve" name="hr00"/>
      <point x="284" y="244" type="line"/>
      <point x="304" y="231"/>
      <point x="369" y="198"/>
      <point x="449" y="168"/>
      <point x="539" y="148"/>
      <point x="585" y="148" type="qcurve" name="sv01"/>
      <point x="647" y="148"/>
      <point x="772" y="179"/>
      <point x="873" y="244"/>
      <point x="936" y="344"/>
      <point x="936" y="413" type="qcurve" name="ah01"/>
      <point x="936" y="478"/>
      <point x="876" y="576"/>
      <point x="778" y="654"/>
      <point x="652" y="718" name="iv01"/>
      <point x="521" y="782"/>
      <point x="395" y="851"/>
      <point x="297" y="939"/>
      <point x="237" y="1051"/>
      <point x="237" y="1126" type="qcurve" name="sh01"/>
      <point x="237" y="1223"/>
      <point x="319" y="1369"/>
      <point x="451" y="1467"/>
      <point x="619" y="1517"/>
      <point x="705" y="1517" type="qcurve" name="at01"/>
      <point x="918" y="1517"/>
      <point x="1098" y="1397" type="qcurve"/>
      <point x="1001" y="1274" type="line"/>
      <point x="933" y="1314"/>
      <point x="808" y="1352"/>
      <point x="731" y="1352" type="qcurve" name="sv02"/>
      <point x="677" y="1352"/>
      <point x="568" y="1330"/>
      <point x="481" y="1281"/>
      <point x="426" y="1202"/>
      <point x="426" y="1145" type="qcurve" name="sh02"/>
      <point x="426" y="1089"/>
      <point x="487" y="1007"/>
      <point x="586" y="942"/>
      <point x="712" y="885" name="iv02"/>
      <point x="845" y="824"/>
      <point x="971" y="751"/>
      <point x="1070" y="652"/>
      <point x="1131" y="519"/>
      <point x="1131" y="429" type="qcurve" name="sh03"/>
      <point x="1131" y="317"/>
      <point x="1040" y="150"/>
      <point x="891" y="39"/>
      <point x="699" y="-17"/>
      <point x="599" y="-17" type="qcurve" name="ab01"/>
      <point x="535" y="-17"/>
      <point x="425" y="-2"/>
      <point x="326" y="26"/>
      <point x="236" y="67"/>
    </contour>
  </outline>
</glyph>
<glyph name="W" format="1">
  <advance width="1300"/>
  <unicode hex="0057"/>
  <outline>
    <contour>
      <point x="484" y="700" type="line" name="hr00"/>
      <point x="580" y="1100" type="line" name="sh01"/>
      <point x="720" y="1100" type="line" name="sh02"/>
      <point x="823" y="700" type="line"/>
      <point x="894" y="200" type="line" name="ah02"/>
      <point x="898" y="200" type="line" name="iv01"/>
      <point x="930" y="660" type="line"/>
      <point x="1083" y="1500" type="line" name="sh03"/>
      <point x="1260" y="1500" type="line" name="sh04"/>
      <point x="988" y="0" type="line" name="ab01"/>
      <point x="807" y="0" type="line" name="sh05"/>
      <point x="711" y="450" type="line"/>
      <point x="652" y="950" type="line" name="ah03"/>
      <point x="648" y="950" type="line"/>
      <point x="590" y="450" type="line"/>
      <point x="492" y="0" type="line" name="sh06"/>
      <point x="314" y="0" type="line"/>
      <point x="38" y="1500" type="line" name="sh08"/>
      <point x="212" y="1520" type="line" name="sh07"/>
      <point x="380" y="660" type="line"/>
      <point x="411" y="200" type="line" name="ah01"/>
      <point x="415" y="200" type="line" name="iv02"/>
    </contour>
  </outline>
</glyph>
<glyph name="Y" format="1">
  <advance width="1300"/>
  <unicode hex="0059"/>
  <outline>
    <contour>
      <point x="691" y="935" type="line" name="fh01"/>
      <point x="979" y="1500" type="line" name="sh01"/>
      <point x="1171" y="1500" type="line" name="at01"/>
      <point x="736" y="646" type="line"/>
      <point x="736" y="0" type="line" name="dh02"/>
      <point x="526" y="0" type="line" name="dh01"/>
      <point x="526" y="645" type="line"/>
      <point x="90" y="1500" type="line" name="fh02"/>
      <point x="294" y="1520" type="line" name="sh02"/>
      <point x="582" y="954" type="line" name="fh03"/>
      <point x="661" y="705" type="line" name="ah01"/>
    </contour>
  </outline>
</glyph>
<glyph name="bracketright" format="1">
  <advance width="1300"/>
  <unicode hex="005D"/>
  <outline>
    <contour>
      <point x="978" y="-220" type="line" name="dh02"/>
      <point x="1000" y="-420" type="line" name="dv01"/>
      <point x="428" y="-420" type="line"/>
      <point x="428" y="-270" type="line"/>
      <point x="800" y="-270" type="line" name="dv02"/>
      <point x="780" y="-70" type="line" name="dh01"/>
      <point x="780" y="1170" type="line"/>
      <point x="800" y="1370" type="line" name="sv01"/>
      <point x="428" y="1370" type="line"/>
      <point x="428" y="1520" type="line" name="at01"/>
      <point x="1000" y="1520" type="line"/>
      <point x="978" y="1320" type="line"/>
    </contour>
  </outline>
</glyph>
<glyph name="asciicircum" format="1">
  <advance width="1300"/>
  <unicode hex="005E"/>
  <outline>
    <contour>
      <point x="1179" y="912" type="line" name="ah02"/>
      <point x="978" y="912" type="line" name="sh01"/>
      <point x="697" y="1239" type="line"/>
      <point x="652" y="1350" type="line" name="ih01"/>
      <point x="608" y="1241" type="line"/>
      <point x="338" y="914" type="line" name="sh02"/>
      <point x="122" y="914" type="line" name="ah01"/>
      <point x="580" y="1500" type="line" name="ih02"/>
      <point x="709" y="1517" type="line" name="ih03"/>
    </contour>
  </outline>
</glyph>
<glyph name="b" format="1">
  <advance width="1300"/>
  <unicode hex="0062"/>
  <outline>
    <contour>
      <point x="390" y="171" type="line" name="sh03"/>
      <point x="409" y="165"/>
      <point x="459" y="155"/>
      <point x="516" y="147"/>
      <point x="575" y="143"/>
      <point x="604" y="143" type="qcurve" name="sv01"/>
      <point x="665" y="143"/>
      <point x="764" y="183"/>
      <point x="842" y="250"/>
      <point x="900" y="341"/>
      <point x="937" y="442"/>
      <point x="955" y="550"/>
      <point x="955" y="601" type="qcurve" name="ah01"/>
      <point x="955" y="701"/>
      <point x="903" y="837"/>
      <point x="821" y="921"/>
      <point x="722" y="957"/>
      <point x="675" y="957" type="qcurve" name="sv02"/>
      <point x="596" y="957"/>
      <point x="453" y="896"/>
      <point x="390" y="845" type="qcurve"/>
    </contour>
    <contour>
      <point x="210" y="1420" type="line" name="sh01"/>
      <point x="190" y="1600" type="line"/>
      <point x="390" y="1620" type="line" name="sh02"/>
      <point x="390" y="974" type="line" name="iv01"/>
      <point x="475" y="1065" type="line"/>
      <point x="526" y="1089"/>
      <point x="637" y="1117"/>
      <point x="694" y="1117" type="qcurve" name="av01"/>
      <point x="776" y="1117"/>
      <point x="940" y="1049"/>
      <point x="1069" y="916"/>
      <point x="1150" y="722"/>
      <point x="1150" y="596" type="qcurve" name="sh04"/>
      <point x="1150" y="458"/>
      <point x="1059" y="232"/>
      <point x="906" y="71"/>
      <point x="705" y="-17"/>
      <point x="595" y="-17" type="qcurve" name="ab01"/>
      <point x="532" y="-17"/>
      <point x="413" y="-8"/>
      <point x="311" y="7"/>
      <point x="232" y="26"/>
      <point x="210" y="35" type="qcurve"/>
    </contour>
  </outline>
</glyph>
<glyph name="f" format="1">
  <advance width="1300"/>
  <unicode hex="0066"/>
  <outline>
    <contour>
      <point x="148" y="1100" type="line" name="dv01"/>
      <point x="400" y="1100" type="line" name="dh01"/>
      <point x="400" y="1255" type="line" name="sh01"/>
      <point x="400" y="1340"/>
      <point x="468" y="1474"/>
      <point x="584" y="1567"/>
      <point x="740" y="1617"/>
      <point x="828" y="1617" type="qcurve" name="av01"/>
      <point x="873" y="1617"/>
      <point x="965" y="1601"/>
      <point x="1050" y="1576"/>
      <point x="1122" y="1544"/>
      <point x="1145" y="1529" type="qcurve"/>
      <point x="1060" y="1411" type="line"/>
      <point x="1048" y="1418"/>
      <point x="999" y="1434"/>
      <point x="942" y="1448"/>
      <point x="882" y="1457"/>
      <point x="860" y="1457" type="qcurve" name="sv01"/>
      <point x="817" y="1457"/>
      <point x="720" y="1434"/>
      <point x="639" y="1383"/>
      <point x="585" y="1302"/>
      <point x="585" y="1245" type="qcurve" name="sh02"/>
      <point x="585" y="1100" type="line" name="dh02"/>
      <point x="1033" y="1100" type="line" name="dv03"/>
      <point x="1013" y="940" type="line" name="dv04"/>
      <point x="590" y="940" type="line" name="dh04"/>
      <point x="590" y="0" type="line" name="ab01"/>
      <point x="400" y="0" type="line"/>
      <point x="400" y="940" type="line" name="dh03"/>
      <point x="148" y="940" type="line" name="dv02"/>
    </contour>
  </outline>
</glyph>
<glyph name="g" format="1">
  <advance width="1300"/>
  <unicode hex="0067"/>
  <outline>
    <contour>
      <point x="910" y="135" type="line" name="iv01"/>
      <point x="823" y="25" type="line"/>
      <point x="814" y="19"/>
      <point x="781" y="5"/>
      <point x="733" y="-8"/>
      <point x="669" y="-17"/>
      <point x="630" y="-17" type="qcurve" name="ab01"/>
      <point x="569" y="-17"/>
      <point x="451" y="23"/>
      <point x="344" y="97"/>
      <point x="254" y="200"/>
      <point x="187" y="325"/>
      <point x="150" y="468"/>
      <point x="150" y="545" type="qcurve" name="sh01"/>
      <point x="150" y="662"/>
      <point x="226" y="870"/>
      <point x="364" y="1026"/>
      <point x="558" y="1117"/>
      <point x="676" y="1117" type="qcurve" name="av01"/>
      <point x="713" y="1117"/>
      <point x="784" y="1111"/>
      <point x="815" y="1100" type="qcurve"/>
      <point x="910" y="958" type="line" name="sh02"/>
      <point x="910" y="1120" type="line" name="av02"/>
      <point x="1090" y="1100" type="line"/>
      <point x="1090" y="-46" type="line" name="sh03"/>
      <point x="1090" y="-144"/>
      <point x="1026" y="-316"/>
      <point x="904" y="-443"/>
      <point x="726" y="-517"/>
      <point x="612" y="-517" type="qcurve" name="ab02"/>
      <point x="533" y="-517"/>
      <point x="414" y="-477"/>
      <point x="372" y="-453" type="qcurve"/>
      <point x="348" y="-439"/>
      <point x="306" y="-407"/>
      <point x="289" y="-388" type="qcurve"/>
      <point x="387" y="-278" type="line" name="sh05"/>
      <point x="401" y="-289"/>
      <point x="434" y="-309"/>
      <point x="452" y="-318" type="qcurve"/>
      <point x="483" y="-333"/>
      <point x="565" y="-357"/>
      <point x="613" y="-357" type="qcurve" name="sv03"/>
      <point x="675" y="-357"/>
      <point x="783" y="-306"/>
      <point x="864" y="-218"/>
      <point x="910" y="-99"/>
      <point x="910" y="-31" type="qcurve" name="ah01"/>
    </contour>
    <contour>
      <point x="910" y="834" type="line" name="sh06"/>
      <point x="884" y="867"/>
      <point x="847" y="895" type="qcurve"/>
      <point x="816" y="918"/>
      <point x="728" y="957"/>
      <point x="671" y="957" type="qcurve" name="sv02"/>
      <point x="611" y="957"/>
      <point x="515" y="919"/>
      <point x="442" y="855"/>
      <point x="389" y="770"/>
      <point x="356" y="675"/>
      <point x="340" y="578"/>
      <point x="340" y="533" type="qcurve" name="sh04"/>
      <point x="340" y="448"/>
      <point x="393" y="305"/>
      <point x="479" y="202"/>
      <point x="589" y="144"/>
      <point x="646" y="144" type="qcurve" name="sv01"/>
      <point x="697" y="144"/>
      <point x="777" y="166"/>
      <point x="841" y="203"/>
      <point x="890" y="250"/>
      <point x="910" y="275" type="qcurve"/>
    </contour>
  </outline>
</glyph>
<glyph name="h" format="1">
  <advance width="1300"/>
  <unicode hex="0068"/>
  <outline>
    <contour>
      <point x="391" y="0" type="line" name="sh02"/>
      <point x="211" y="0" type="line" name="sh01"/>
      <point x="211" y="1400" type="line"/>
      <point x="191" y="1600" type="line"/>
      <point x="391" y="1620" type="line" name="sh03"/>
      <point x="391" y="950" type="line" name="iv01"/>
      <point x="480" y="1065" type="line"/>
      <point x="519" y="1087"/>
      <point x="665" y="1117"/>
      <point x="780" y="1117" type="qcurve" name="av01"/>
      <point x="931" y="1117"/>
      <point x="1090" y="918"/>
      <point x="1090" y="730" type="qcurve"/>
      <point x="1090" y="0" type="line" name="sh04"/>
      <point x="900" y="0" type="line" name="ah01"/>
      <point x="900" y="709" type="line"/>
      <point x="900" y="776"/>
      <point x="877" y="870"/>
      <point x="835" y="930"/>
      <point x="773" y="957"/>
      <point x="734" y="957" type="qcurve" name="ih01"/>
      <point x="674" y="957"/>
      <point x="565" y="933"/>
      <point x="475" y="896"/>
      <point x="408" y="852"/>
      <point x="391" y="833" type="qcurve"/>
    </contour>
  </outline>
</glyph>
<glyph name="i" format="1">
  <advance width="1300"/>
  <unicode hex="0069"/>
  <outline>
    <contour>
      <point x="515" y="1500" type="line" name="sh01"/>
      <point x="717" y="1500" type="line" name="sh02"/>
      <point x="717" y="1300" type="line" name="sv01"/>
      <point x="515" y="1300" type="line"/>
    </contour>
    <contour>
      <point x="711" y="393" type="line" name="dh02"/>
      <point x="711" y="341"/>
      <point x="724" y="253"/>
      <point x="754" y="189"/>
      <point x="804" y="153"/>
      <point x="841" y="153" type="qcurve" name="av01"/>
      <point x="890" y="153"/>
      <point x="983" y="169"/>
      <point x="1057" y="190"/>
      <point x="1106" y="208"/>
      <point x="1112" y="210" type="qcurve" name="av02"/>
      <point x="1151" y="56" type="line"/>
      <point x="1145" y="53" name="ah03"/>
      <point x="1093" y="29"/>
      <point x="1009" y="4"/>
      <point x="897" y="-17"/>
      <point x="831" y="-17" type="qcurve" name="ab01"/>
      <point x="733" y="-17"/>
      <point x="612" y="47"/>
      <point x="544" y="160"/>
      <point x="521" y="314"/>
      <point x="521" y="403" type="qcurve" name="dh01"/>
      <point x="521" y="920" type="line"/>
      <point x="561" y="980" type="line" name="ah02"/>
      <point x="421" y="940" type="line"/>
      <point x="220" y="940" type="line"/>
      <point x="200" y="1100" type="line" name="ah01"/>
      <point x="711" y="1100" type="line"/>
      <point x="711" y="501" type="line"/>
    </contour>
  </outline>
</glyph>
<glyph name="l" format="1">
  <advance width="1300"/>
  <unicode hex="006C"/>
  <outline>
    <contour>
      <point x="510" y="1420" type="line" name="sh01"/>
      <point x="550" y="1480" type="line" name="ah01"/>
      <point x="410" y="1440" type="line"/>
      <point x="209" y="1440" type="line"/>
      <point x="189" y="1600" type="line" name="ah02"/>
      <point x="690" y="1600" type="line" name="sh02"/>
      <point x="690" y="376" type="line" name="dh02"/>
      <point x="690" y="310"/>
      <point x="710" y="221"/>
      <point x="744" y="166"/>
      <point x="792" y="143"/>
      <point x="820" y="143" type="qcurve" name="av01"/>
      <point x="860" y="143"/>
      <point x="927" y="155"/>
      <point x="980" y="173"/>
      <point x="1019" y="193" name="av02"/>
      <point x="1031" y="200" type="qcurve"/>
      <point x="1100" y="79" type="line" name="ah03"/>
      <point x="1092" y="72"/>
      <point x="1042" y="40"/>
      <point x="965" y="8"/>
      <point x="862" y="-17"/>
      <point x="800" y="-17" type="qcurve" name="ab01"/>
      <point x="710" y="-17"/>
      <point x="596" y="49"/>
      <point x="533" y="163"/>
      <point x="510" y="314"/>
      <point x="510" y="400" type="qcurve" name="dh01"/>
      <point x="510" y="1419" type="line"/>
    </contour>
  </outline>
</glyph>
<glyph name="p" format="1">
  <advance width="1300"/>
  <unicode hex="0070"/>
  <outline>
    <contour>
      <point x="390" y="160" type="line" name="sh03"/>
      <point x="554" y="160" type="line"/>
      <point x="646" y="160"/>
      <point x="796" y="221"/>
      <point x="902" y="331"/>
      <point x="960" y="485"/>
      <point x="960" y="578" type="qcurve" name="ah01"/>
      <point x="960" y="676"/>
      <point x="906" y="819"/>
      <point x="822" y="912"/>
      <point x="719" y="957"/>
      <point x="670" y="957" type="qcurve" name="sv01"/>
      <point x="621" y="957"/>
      <point x="536" y="932"/>
      <point x="465" y="894"/>
      <point x="409" y="848"/>
      <point x="390" y="827" type="qcurve"/>
    </contour>
    <contour>
      <point x="210" y="-500" type="line" name="sh01"/>
      <point x="210" y="1100" type="line"/>
      <point x="390" y="1120" type="line" name="sh04"/>
      <point x="390" y="944" type="line" name="ih01"/>
      <point x="485" y="1071" type="line"/>
      <point x="514" y="1088"/>
      <point x="621" y="1117"/>
      <point x="699" y="1117" type="qcurve" name="av01"/>
      <point x="782" y="1117"/>
      <point x="944" y="1039"/>
      <point x="1071" y="895"/>
      <point x="1150" y="691"/>
      <point x="1150" y="565" type="qcurve" name="sh05"/>
      <point x="1150" y="442"/>
      <point x="1055" y="235"/>
      <point x="888" y="84"/>
      <point x="664" y="0"/>
      <point x="535" y="0" type="qcurve" name="ab01"/>
      <point x="390" y="0" type="line"/>
      <point x="390" y="-500" type="line" name="sh02"/>
    </contour>
  </outline>
</glyph>
<glyph name="r" format="1">
  <advance width="1300"/>
  <unicode hex="0072"/>
  <outline>
    <contour>
      <point x="391" y="895" type="line" name="iv01"/>
      <point x="482" y="1053" type="line"/>
      <point x="510" y="1074"/>
      <point x="582" y="1100"/>
      <point x="658" y="1113"/>
      <point x="735" y="1117"/>
      <point x="770" y="1117" type="qcurve" name="at01"/>
      <point x="845" y="1117"/>
      <point x="951" y="1104"/>
      <point x="1024" y="1084"/>
      <point x="1068" y="1063"/>
      <point x="1080" y="1055" type="qcurve"/>
      <point x="1130" y="770" type="line" name="dh04"/>
      <point x="980" y="750" type="line" name="dh03"/>
      <point x="930" y="928" type="line" name="ih01"/>
      <point x="922" y="931"/>
      <point x="888" y="937"/>
      <point x="844" y="943"/>
      <point x="795" y="947"/>
      <point x="773" y="947" type="qcurve" name="sv01"/>
      <point x="705" y="947"/>
      <point x="589" y="916"/>
      <point x="493" y="862"/>
      <point x="418" y="790"/>
      <point x="391" y="750" type="qcurve"/>
      <point x="391" y="0" type="line" name="dh02"/>
      <point x="211" y="0" type="line" name="dh01"/>
      <point x="211" y="1100" type="line"/>
      <point x="391" y="1120" type="line" name="sh01"/>
    </contour>
  </outline>
</glyph>
<glyph name="s" format="1">
  <advance width="1300"/>
  <unicode hex="0073"/>
  <outline>
    <contour>
      <point x="962" y="899" type="line" name="ah02"/>
      <point x="943" y="908"/>
      <point x="890" y="931"/>
      <point x="824" y="950"/>
      <point x="745" y="963"/>
      <point x="700" y="963" type="qcurve" name="sv01"/>
      <point x="639" y="963"/>
      <point x="523" y="951"/>
      <point x="433" y="919"/>
      <point x="378" y="865"/>
      <point x="378" y="822" type="qcurve" name="sh02"/>
      <point x="378" y="786"/>
      <point x="432" y="735"/>
      <point x="519" y="698" name="av02"/>
      <point x="629" y="671" name="ih01"/>
      <point x="741" y="647" name="iv01"/>
      <point x="845" y="624"/>
      <point x="883" y="610" type="qcurve" name="sv03"/>
      <point x="927" y="593"/>
      <point x="1004" y="541"/>
      <point x="1062" y="472"/>
      <point x="1095" y="389"/>
      <point x="1095" y="341" type="qcurve" name="sh03"/>
      <point x="1095" y="276"/>
      <point x="1045" y="173"/>
      <point x="960" y="94"/>
      <point x="848" y="37"/>
      <point x="723" y="0"/>
      <point x="594" y="-17" name="ih02"/>
      <point x="535" y="-17" type="qcurve" name="ab01"/>
      <point x="501" y="-17"/>
      <point x="400" y="-4"/>
      <point x="295" y="19"/>
      <point x="201" y="51"/>
      <point x="175" y="69" type="qcurve"/>
      <point x="241" y="211" type="line" name="sh04"/>
      <point x="265" y="199"/>
      <point x="343" y="175"/>
      <point x="429" y="155"/>
      <point x="510" y="143"/>
      <point x="537" y="143" type="qcurve" name="sv02"/>
      <point x="568" y="143"/>
      <point x="645" y="150"/>
      <point x="726" y="167"/>
      <point x="803" y="196"/>
      <point x="863" y="240"/>
      <point x="900" y="300"/>
      <point x="900" y="340" type="qcurve" name="ah01"/>
      <point x="900" y="379"/>
      <point x="848" y="433"/>
      <point x="762" y="471" name="av01"/>
      <point x="655" y="498" name="ih03"/>
      <point x="543" y="522" name="iv02"/>
      <point x="439" y="547"/>
      <point x="400" y="566" type="qcurve" name="sv04"/>
      <point x="343" y="593"/>
      <point x="268" y="656"/>
      <point x="223" y="726"/>
      <point x="205" y="802"/>
      <point x="205" y="842" type="qcurve" name="sh01"/>
      <point x="205" y="913"/>
      <point x="286" y="1017"/>
      <point x="422" y="1084"/>
      <point x="598" y="1117" name="ih04"/>
      <point x="694" y="1117" type="qcurve" name="at01"/>
      <point x="746" y="1117"/>
      <point x="845" y="1105"/>
      <point x="932" y="1085"/>
      <point x="1000" y="1060"/>
      <point x="1020" y="1047" type="qcurve"/>
    </contour>
  </outline>
</glyph>
<glyph name="w" format="1">
  <advance width="1300"/>
  <unicode hex="0077"/>
  <outline>
    <contour>
      <point x="836" y="400" type="line" name="hr00"/>
      <point x="897" y="150" type="line" name="ah02"/>
      <point x="908" y="480" type="line"/>
      <point x="1038" y="1100" type="line" name="sh01"/>
      <point x="1200" y="1120" type="line" name="sh02"/>
      <point x="982" y="0" type="line" name="ih02"/>
      <point x="835" y="0" type="line" name="ih03"/>
      <point x="703" y="348" type="line"/>
      <point x="647" y="750" type="line" name="ih01"/>
      <point x="593" y="350" type="line"/>
      <point x="462" y="0" type="line" name="ih04"/>
      <point x="315" y="0" type="line" name="ih05"/>
      <point x="100" y="1100" type="line" name="sh04"/>
      <point x="262" y="1120" type="line" name="sh03"/>
      <point x="385" y="480" type="line"/>
      <point x="406" y="150" type="line" name="ah01"/>
      <point x="571" y="885" type="line" name="ih06"/>
      <point x="724" y="885" type="line" name="ih07"/>
    </contour>
  </outline>
</glyph>
<glyph name="braceleft" format="1">
  <advance width="1300"/>
  <unicode hex="007B"/>
  <outline>
    <contour>
      <point x="228" y="625" type="line" name="iv01"/>
      <point x="350" y="625" type="line"/>
      <point x="399" y="632"/>
      <point x="458" y="672"/>
      <point x="490" y="736"/>
      <point x="500" y="824"/>
      <point x="500" y="880" type="qcurve"/>
      <point x="500" y="1119" type="line"/>
      <point x="500" y="1204"/>
      <point x="531" y="1350"/>
      <point x="607" y="1456"/>
      <point x="734" y="1517"/>
      <point x="830" y="1517" type="qcurve" name="at01"/>
      <point x="876" y="1517"/>
      <point x="941" y="1511"/>
      <point x="992" y="1499"/>
      <point x="1033" y="1482"/>
      <point x="1054" y="1472" type="qcurve" name="ah03"/>
      <point x="991" y="1349" type="line" name="sh01"/>
      <point x="972" y="1360"/>
      <point x="907" y="1376"/>
      <point x="882" y="1376" type="qcurve"/>
      <point x="869" y="1376" type="line" name="ah06"/>
      <point x="815" y="1372"/>
      <point x="748" y="1335"/>
      <point x="712" y="1270"/>
      <point x="700" y="1177"/>
      <point x="700" y="1119" type="qcurve"/>
      <point x="700" y="880" type="line"/>
      <point x="700" y="776"/>
      <point x="652" y="604"/>
      <point x="593" y="550" type="qcurve" name="ah01"/>
      <point x="623" y="523"/>
      <point x="663" y="452"/>
      <point x="689" y="367"/>
      <point x="700" y="271"/>
      <point x="700" y="220" type="qcurve"/>
      <point x="700" y="-20" type="line"/>
      <point x="700" y="-79"/>
      <point x="712" y="-171"/>
      <point x="748" y="-236"/>
      <point x="815" y="-273"/>
      <point x="869" y="-277" type="qcurve" name="ah05"/>
      <point x="882" y="-277" type="line"/>
      <point x="907" y="-277"/>
      <point x="972" y="-261"/>
      <point x="991" y="-250" type="qcurve" name="sh02"/>
      <point x="1054" y="-373" type="line" name="ah04"/>
      <point x="1033" y="-383"/>
      <point x="992" y="-400"/>
      <point x="941" y="-413"/>
      <point x="876" y="-420"/>
      <point x="830" y="-420" type="qcurve" name="av01"/>
      <point x="734" y="-420"/>
      <point x="607" y="-359"/>
      <point x="531" y="-251"/>
      <point x="500" y="-105"/>
      <point x="500" y="-20" type="qcurve"/>
      <point x="500" y="220" type="line"/>
      <point x="500" y="275"/>
      <point x="490" y="364"/>
      <point x="458" y="428"/>
      <point x="399" y="468"/>
      <point x="350" y="475" type="qcurve"/>
      <point x="228" y="475" type="line" name="ah02"/>
    </contour>
  </outline>
</glyph>
<glyph name="bar" format="1">
  <advance width="1300"/>
  <unicode hex="007C"/>
  <outline>
    <contour>
      <point x="700" y="1520" type="line" name="at01"/>
      <point x="700" y="-400" type="line" name="dh02"/>
      <point x="500" y="-400" type="line" name="dh01"/>
      <point x="500" y="1500" type="line"/>
    </contour>
  </outline>
</glyph>
<glyph name="asciitilde" format="1">
  <advance width="1300"/>
  <unicode hex="007E"/>
  <outline>
    <contour>
      <point x="133" y="484" type="line" name="ah01"/>
      <point x="144" y="540"/>
      <point x="207" y="655"/>
      <point x="297" y="747" name="ih02"/>
      <point x="409" y="805"/>
      <point x="471" y="805" type="qcurve" name="sh01"/>
      <point x="516" y="805"/>
      <point x="588" y="778"/>
      <point x="647" y="739"/>
      <point x="699" y="692"/>
      <point x="753" y="653"/>
      <point x="811" y="626"/>
      <point x="847" y="626" type="qcurve" name="ih03"/>
      <point x="883" y="626"/>
      <point x="941" y="656"/>
      <point x="983" y="703"/>
      <point x="1012" y="762"/>
      <point x="1020" y="792" type="qcurve" name="sh02"/>
      <point x="1166" y="776" type="line" name="ah02"/>
      <point x="1156" y="714"/>
      <point x="1097" y="588"/>
      <point x="1007" y="486" name="ih04"/>
      <point x="889" y="422"/>
      <point x="822" y="422" type="qcurve" name="sh03"/>
      <point x="786" y="422"/>
      <point x="722" y="449"/>
      <point x="663" y="488"/>
      <point x="606" y="535"/>
      <point x="547" y="574"/>
      <point x="483" y="601"/>
      <point x="447" y="601" type="qcurve" name="ih01"/>
      <point x="416" y="601"/>
      <point x="363" y="579"/>
      <point x="321" y="542"/>
      <point x="291" y="494"/>
      <point x="282" y="468" type="qcurve" name="sh04"/>
    </contour>
  </outline>
</glyph>
<glyph name="exclamdown" format="1">
  <advance width="1300"/>
  <unicode hex="00A1"/>
  <outline>
    <contour>
      <point x="605" y="-400" type="line"/>
      <point x="605" y="650" type="line"/>
      <point x="395" y="671" type="line"/>
      <point x="395" y="-400" type="line"/>
    </contour>
    <contour>
      <point x="378" y="994" type="qcurve"/>
      <point x="378" y="969"/>
      <point x="397" y="925"/>
      <point x="430" y="892"/>
      <point x="474" y="873"/>
      <point x="499" y="873" type="qcurve"/>
      <point x="524" y="873"/>
      <point x="568" y="892"/>
      <point x="601" y="925"/>
      <point x="620" y="969"/>
      <point x="620" y="994" type="qcurve"/>
      <point x="620" y="1019"/>
      <point x="601" y="1064"/>
      <point x="569" y="1097"/>
      <point x="525" y="1117"/>
      <point x="500" y="1117" type="qcurve"/>
      <point x="474" y="1117"/>
      <point x="430" y="1097"/>
      <point x="397" y="1064"/>
      <point x="378" y="1019"/>
    </contour>
  </outline>
</glyph>
<glyph name="yen" format="1">
  <advance width="1300"/>
  <unicode hex="00A5"/>
  <outline>
    <contour>
      <point x="100" y="550" type="line" name="sv01"/>
      <point x="495" y="550" type="line"/>
      <point x="495" y="645" type="line" name="sh01"/>
      <point x="467" y="700" type="line"/>
      <point x="100" y="700" type="line" name="sv03"/>
      <point x="100" y="850" type="line" name="ah02"/>
      <point x="390" y="850" type="line"/>
      <point x="59" y="1500" type="line" name="sh02"/>
      <point x="263" y="1520" type="line"/>
      <point x="551" y="954" type="line"/>
      <point x="630" y="705" type="line"/>
      <point x="660" y="935" type="line"/>
      <point x="948" y="1500" type="line"/>
      <point x="1140" y="1500" type="line" name="sh03"/>
      <point x="809" y="850" type="line"/>
      <point x="1100" y="850" type="line" name="ah03"/>
      <point x="1100" y="700" type="line" name="sv02"/>
      <point x="732" y="700" type="line"/>
      <point x="705" y="646" type="line" name="sh05"/>
      <point x="705" y="550" type="line"/>
      <point x="1100" y="550" type="line" name="av01"/>
      <point x="1100" y="400" type="line" name="sv04"/>
      <point x="705" y="400" type="line"/>
      <point x="705" y="0" type="line" name="sh04"/>
      <point x="495" y="0" type="line" name="ah01"/>
      <point x="495" y="400" type="line"/>
      <point x="100" y="400" type="line" name="sv05"/>
    </contour>
  </outline>
</glyph>
<glyph name="dieresis" format="1">
  <advance width="1300"/>
  <unicode hex="00A8"/>
  <outline>
    <contour>
      <point x="300" y="1500" type="line"/>
      <point x="500" y="1500" type="line"/>
      <point x="500" y="1300" type="line"/>
      <point x="300" y="1300" type="line"/>
    </contour>
    <contour>
      <point x="700" y="1500" type="line"/>
      <point x="900" y="1500" type="line"/>
      <point x="900" y="1300" type="line"/>
      <point x="700" y="1300" type="line"/>
    </contour>
  </outline>
</glyph>
<glyph name="ordfeminine" format="1">
  <advance width="1300"/>
  <unicode hex="00AA"/>
  <outline>
    <contour>
      <point x="200" y="800" type="line" name="hr00"/>
      <point x="600" y="800" type="line"/>
      <point x="600" y="700" type="line"/>
      <point x="200" y="700" type="line"/>
    </contour>
    <contour>
      <point x="600" y="959" type="line"/>
      <point x="500" y="959" type="line"/>
      <point x="500" y="1040" type="line"/>
      <point x="453" y="984" type="line"/>
      <point x="444" y="977"/>
      <point x="418" y="965"/>
      <point x="388" y="956"/>
      <point x="357" y="950"/>
      <point x="343" y="950" type="qcurve"/>
      <point x="305" y="950"/>
      <point x="229" y="974"/>
      <point x="168" y="1019"/>
      <point x="130" y="1087"/>
      <point x="130" y="1131" type="qcurve"/>
      <point x="130" y="1177"/>
      <point x="169" y="1245"/>
      <point x="233" y="1289"/>
      <point x="315" y="1310"/>
      <point x="357" y="1310" type="qcurve"/>
      <point x="405" y="1310"/>
      <point x="475" y="1299"/>
      <point x="500" y="1290" type="qcurve"/>
      <point x="500" y="1311" type="line"/>
      <point x="500" y="1341"/>
      <point x="485" y="1388"/>
      <point x="454" y="1420"/>
      <point x="406" y="1437"/>
      <point x="372" y="1437" type="qcurve"/>
      <point x="341" y="1437"/>
      <point x="295" y="1430"/>
      <point x="276" y="1425" type="qcurve"/>
      <point x="264" y="1423"/>
      <point x="243" y="1417"/>
      <point x="233" y="1414" type="qcurve"/>
      <point x="197" y="1481" type="line"/>
      <point x="218" y="1490"/>
      <point x="247" y="1499" type="qcurve"/>
      <point x="271" y="1506"/>
      <point x="333" y="1517"/>
      <point x="377" y="1517" type="qcurve"/>
      <point x="435" y="1517"/>
      <point x="516" y="1486"/>
      <point x="567" y="1430"/>
      <point x="590" y="1352"/>
      <point x="590" y="1304" type="qcurve"/>
      <point x="590" y="1049" type="line"/>
    </contour>
    <contour>
      <point x="500" y="1221" type="line"/>
      <point x="470" y="1225" type="line"/>
      <point x="463" y="1226"/>
      <point x="440" y="1228"/>
      <point x="413" y="1229"/>
      <point x="387" y="1230"/>
      <point x="377" y="1230" type="qcurve"/>
      <point x="349" y="1230"/>
      <point x="295" y="1220"/>
      <point x="253" y="1197"/>
      <point x="226" y="1159"/>
      <point x="226" y="1131" type="qcurve"/>
      <point x="226" y="1109"/>
      <point x="246" y="1072"/>
      <point x="280" y="1045"/>
      <point x="323" y="1030"/>
      <point x="347" y="1030" type="qcurve"/>
      <point x="393" y="1030"/>
      <point x="467" y="1066"/>
      <point x="500" y="1096" type="qcurve"/>
    </contour>
  </outline>
</glyph>
<glyph name="logicalnot" format="1">
  <advance width="1300"/>
  <unicode hex="00AC"/>
  <outline>
    <contour>
      <point x="1217" y="800" type="line"/>
      <point x="1200" y="589" type="line"/>
      <point x="1200" y="280" type="line"/>
      <point x="1000" y="280" type="line"/>
      <point x="1000" y="449" type="line"/>
      <point x="1016" y="640" type="line"/>
      <point x="112" y="640" type="line"/>
      <point x="112" y="800" type="line"/>
    </contour>
  </outline>
</glyph>
<glyph name="registered" format="1">
  <advance width="1300"/>
  <unicode hex="00AE"/>
  <outline>
    <contour>
      <point x="650" y="1517" type="qcurve" name="hr00"/>
      <point x="747" y="1517"/>
      <point x="918" y="1443"/>
      <point x="1046" y="1315"/>
      <point x="1120" y="1144"/>
      <point x="1120" y="1047" type="qcurve"/>
      <point x="1120" y="949"/>
      <point x="1046" y="778"/>
      <point x="918" y="651"/>
      <point x="747" y="577"/>
      <point x="650" y="577" type="qcurve"/>
      <point x="553" y="577"/>
      <point x="382" y="651"/>
      <point x="254" y="778"/>
      <point x="180" y="949"/>
      <point x="180" y="1047" type="qcurve"/>
      <point x="180" y="1144"/>
      <point x="254" y="1315"/>
      <point x="382" y="1443"/>
      <point x="553" y="1517"/>
    </contour>
    <contour>
      <point x="650" y="663" type="qcurve"/>
      <point x="728" y="663"/>
      <point x="867" y="724"/>
      <point x="972" y="828"/>
      <point x="1034" y="968"/>
      <point x="1034" y="1047" type="qcurve"/>
      <point x="1034" y="1126"/>
      <point x="974" y="1266"/>
      <point x="869" y="1371"/>
      <point x="729" y="1431"/>
      <point x="650" y="1431" type="qcurve"/>
      <point x="570" y="1431"/>
      <point x="431" y="1371"/>
      <point x="326" y="1266"/>
      <point x="266" y="1126"/>
      <point x="266" y="1047" type="qcurve"/>
      <point x="266" y="969"/>
      <point x="327" y="830"/>
      <point x="431" y="725"/>
      <point x="571" y="663"/>
    </contour>
    <contour>
      <point x="574" y="1017" type="line"/>
      <point x="574" y="800" type="line"/>
      <point x="500" y="800" type="line"/>
      <point x="500" y="1222" type="line"/>
      <point x="488" y="1292" type="line"/>
      <point x="499" y="1294"/>
      <point x="532" y="1297"/>
      <point x="568" y="1299"/>
      <point x="604" y="1300"/>
      <point x="619" y="1300" type="qcurve"/>
      <point x="709" y="1300"/>
      <point x="800" y="1240"/>
      <point x="800" y="1168" type="qcurve"/>
      <point x="800" y="1131"/>
      <point x="783" y="1081"/>
      <point x="748" y="1049"/>
      <point x="696" y="1030"/>
      <point x="662" y="1024" type="qcurve"/>
      <point x="712" y="1009" type="line"/>
      <point x="869" y="800" type="line"/>
      <point x="790" y="800" type="line"/>
      <point x="633" y="1010" type="line"/>
      <point x="630" y="1015"/>
      <point x="620" y="1017"/>
      <point x="617" y="1017" type="qcurve"/>
    </contour>
    <contour>
      <point x="574" y="1171" type="line"/>
      <point x="574" y="1070" type="line"/>
      <point x="627" y="1070" type="line"/>
      <point x="690" y="1070"/>
      <point x="734" y="1117"/>
      <point x="734" y="1162" type="qcurve"/>
      <point x="734" y="1192"/>
      <point x="717" y="1228"/>
      <point x="688" y="1247"/>
      <point x="650" y="1252"/>
      <point x="628" y="1252" type="qcurve"/>
      <point x="613" y="1252"/>
      <point x="579" y="1250"/>
      <point x="567" y="1248" type="qcurve"/>
    </contour>
  </outline>
</glyph>
<glyph name="plusminus" format="1">
  <advance width="1300"/>
  <unicode hex="00B1"/>
  <outline>
    <contour>
      <point x="200" y="862" type="line"/>
      <point x="573" y="862" type="line"/>
      <point x="573" y="1199" type="line"/>
      <point x="728" y="1199" type="line"/>
      <point x="728" y="862" type="line"/>
      <point x="1100" y="862" type="line"/>
      <point x="1100" y="738" type="line"/>
      <point x="728" y="738" type="line"/>
      <point x="728" y="400" type="line"/>
      <point x="573" y="400" type="line"/>
      <point x="573" y="738" type="line"/>
      <point x="200" y="738" type="line"/>
    </contour>
    <contour>
      <point x="200" y="290" type="line" name="hr01"/>
      <point x="1100" y="290" type="line"/>
      <point x="1100" y="150" type="line"/>
      <point x="200" y="150" type="line"/>
    </contour>
  </outline>
</glyph>
<glyph name="twosuperior" format="1">
  <advance width="1300"/>
  <unicode hex="00B2"/>
  <outline>
    <contour>
      <point x="190" y="720" type="line" name="hr00"/>
      <point x="190" y="804" type="line"/>
      <point x="213" y="840"/>
      <point x="267" y="911"/>
      <point x="323" y="978"/>
      <point x="376" y="1038"/>
      <point x="398" y="1064" type="qcurve"/>
      <point x="424" y="1094"/>
      <point x="473" y="1144"/>
      <point x="510" y="1193"/>
      <point x="532" y="1246"/>
      <point x="532" y="1277" type="qcurve"/>
      <point x="532" y="1301"/>
      <point x="514" y="1344"/>
      <point x="481" y="1375"/>
      <point x="436" y="1394"/>
      <point x="409" y="1394" type="qcurve"/>
      <point x="379" y="1394"/>
      <point x="334" y="1377"/>
      <point x="301" y="1350"/>
      <point x="276" y="1317"/>
      <point x="266" y="1300" type="qcurve"/>
      <point x="195" y="1330" type="line"/>
      <point x="208" y="1362"/>
      <point x="249" y="1417"/>
      <point x="304" y="1456"/>
      <point x="374" y="1478"/>
      <point x="417" y="1478" type="qcurve"/>
      <point x="467" y="1478"/>
      <point x="546" y="1442"/>
      <point x="601" y="1384"/>
      <point x="629" y="1310"/>
      <point x="629" y="1272" type="qcurve"/>
      <point x="629" y="1233"/>
      <point x="601" y="1164"/>
      <point x="558" y="1101"/>
      <point x="509" y="1046"/>
      <point x="489" y="1022" type="qcurve"/>
      <point x="463" y="992"/>
      <point x="411" y="933"/>
      <point x="363" y="876"/>
      <point x="322" y="824"/>
      <point x="307" y="800" type="qcurve"/>
      <point x="657" y="800" type="line"/>
      <point x="657" y="720" type="line"/>
    </contour>
  </outline>
</glyph>
<glyph name="acute" format="1">
  <advance width="1300"/>
  <unicode hex="00B4"/>
  <outline>
    <contour>
      <point x="600" y="1500" type="line" name="ah01"/>
      <point x="830" y="1520" type="line" name="sh01"/>
      <point x="590" y="1200" type="line" name="av01"/>
      <point x="440" y="1200" type="line"/>
    </contour>
  </outline>
</glyph>
<glyph name="mu" format="1">
  <advance width="1300"/>
  <unicode hex="00B5"/>
  <outline>
    <contour>
      <point x="1242" y="36" type="line" name="ah02"/>
      <point x="1233" y="27"/>
      <point x="1195" y="9"/>
      <point x="1147" y="-7"/>
      <point x="1093" y="-17"/>
      <point x="1068" y="-17" type="qcurve" name="ab03"/>
      <point x="976" y="-17"/>
      <point x="848" y="69"/>
      <point x="825" y="155" type="qcurve" name="ih01"/>
      <point x="800" y="86" type="line"/>
      <point x="758" y="40"/>
      <point x="615" y="-17"/>
      <point x="518" y="-17" type="qcurve" name="ab01"/>
      <point x="499" y="-17"/>
      <point x="449" y="-14"/>
      <point x="397" y="-5"/>
      <point x="350" y="12"/>
      <point x="335" y="25" type="qcurve"/>
      <point x="380" y="-166" type="line"/>
      <point x="380" y="-500" type="line" name="ab02"/>
      <point x="200" y="-500" type="line"/>
      <point x="200" y="1100" type="line" name="sh01"/>
      <point x="380" y="1118" type="line" name="at01"/>
      <point x="380" y="348" type="line" name="sh03"/>
      <point x="380" y="307"/>
      <point x="402" y="230"/>
      <point x="449" y="170"/>
      <point x="520" y="133"/>
      <point x="569" y="133" type="qcurve" name="sv01"/>
      <point x="601" y="133"/>
      <point x="663" y="152"/>
      <point x="721" y="182"/>
      <point x="775" y="221"/>
      <point x="800" y="241" type="qcurve" name="sh04"/>
      <point x="800" y="1100" type="line" name="ah01"/>
      <point x="978" y="1118" type="line" name="sh02"/>
      <point x="978" y="352" type="line"/>
      <point x="978" y="292"/>
      <point x="993" y="208"/>
      <point x="1020" y="156"/>
      <point x="1060" y="133"/>
      <point x="1086" y="133" type="qcurve"/>
      <point x="1110" y="133"/>
      <point x="1156" y="142"/>
      <point x="1177" y="150" type="qcurve"/>
    </contour>
  </outline>
</glyph>
<glyph name="cedilla" format="1">
  <advance width="1300"/>
  <unicode hex="00B8"/>
  <outline>
    <contour>
      <point x="824" y="0" type="line" name="sh01"/>
      <point x="847" y="-27"/>
      <point x="865" y="-59" type="qcurve"/>
      <point x="881" y="-86"/>
      <point x="907" y="-158"/>
      <point x="907" y="-198" type="qcurve" name="sh02"/>
      <point x="907" y="-242"/>
      <point x="870" y="-318"/>
      <point x="808" y="-375"/>
      <point x="727" y="-407"/>
      <point x="683" y="-407" type="qcurve"/>
      <point x="633" y="-407"/>
      <point x="540" y="-380"/>
      <point x="503" y="-363" type="qcurve"/>
      <point x="460" y="-344"/>
      <point x="422" y="-318" type="qcurve" name="ah03"/>
      <point x="493" y="-218" type="line" name="av01"/>
      <point x="519" y="-236"/>
      <point x="547" y="-249" type="qcurve"/>
      <point x="571" y="-260"/>
      <point x="630" y="-279"/>
      <point x="659" y="-279" type="qcurve"/>
      <point x="696" y="-279" name="av02"/>
      <point x="754" y="-231"/>
      <point x="754" y="-189" type="qcurve" name="ah02"/>
      <point x="754" y="-156"/>
      <point x="721" y="-89"/>
      <point x="701" y="-62" type="qcurve"/>
      <point x="677" y="-30"/>
      <point x="648" y="0" type="qcurve" name="ah01"/>
    </contour>
  </outline>
</glyph>
<glyph name="onesuperior" format="1">
  <advance width="1300"/>
  <unicode hex="00B9"/>
  <outline>
    <contour>
      <point x="233" y="720" type="line" name="hr00"/>
      <point x="233" y="800" type="line"/>
      <point x="405" y="800" type="line"/>
      <point x="405" y="1283" type="line"/>
      <point x="434" y="1396" type="line"/>
      <point x="366" y="1303" type="line"/>
      <point x="260" y="1209" type="line"/>
      <point x="206" y="1270" type="line"/>
      <point x="435" y="1480" type="line"/>
      <point x="510" y="1470" type="line"/>
      <point x="510" y="800" type="line"/>
      <point x="683" y="800" type="line"/>
      <point x="683" y="720" type="line"/>
    </contour>
  </outline>
</glyph>
<glyph name="ordmasculine" format="1">
  <advance width="1300"/>
  <unicode hex="00BA"/>
  <outline>
    <contour>
      <point x="230" y="800" type="line" name="hr00"/>
      <point x="630" y="800" type="line"/>
      <point x="630" y="700" type="line"/>
      <point x="230" y="700" type="line"/>
    </contour>
    <contour>
      <point x="424" y="950" type="qcurve"/>
      <point x="369" y="950"/>
      <point x="276" y="994"/>
      <point x="209" y="1070"/>
      <point x="172" y="1174"/>
      <point x="172" y="1235" type="qcurve"/>
      <point x="172" y="1296"/>
      <point x="208" y="1399"/>
      <point x="274" y="1475"/>
      <point x="367" y="1517"/>
      <point x="424" y="1517" type="qcurve"/>
      <point x="480" y="1517"/>
      <point x="571" y="1475"/>
      <point x="636" y="1399"/>
      <point x="672" y="1296"/>
      <point x="672" y="1235" type="qcurve"/>
      <point x="672" y="1174"/>
      <point x="638" y="1070"/>
      <point x="573" y="994"/>
      <point x="481" y="950"/>
    </contour>
    <contour>
      <point x="577" y="1222" type="qcurve"/>
      <point x="577" y="1262"/>
      <point x="560" y="1340"/>
      <point x="523" y="1402"/>
      <point x="464" y="1440"/>
      <point x="422" y="1440" type="qcurve"/>
      <point x="382" y="1440"/>
      <point x="323" y="1407"/>
      <point x="285" y="1352"/>
      <point x="267" y="1282"/>
      <point x="267" y="1245" type="qcurve"/>
      <point x="267" y="1204"/>
      <point x="285" y="1126"/>
      <point x="324" y="1065"/>
      <point x="384" y="1028"/>
      <point x="426" y="1028" type="qcurve"/>
      <point x="466" y="1028"/>
      <point x="523" y="1061"/>
      <point x="560" y="1115"/>
      <point x="577" y="1185"/>
    </contour>
  </outline>
</glyph>
<glyph name="onehalf" format="1">
  <advance width="1300"/>
  <unicode hex="00BD"/>
  <outline>
    <contour>
      <point x="504" y="0" type="line"/>
      <point x="379" y="0" type="line"/>
      <point x="954" y="1500" type="line"/>
      <point x="1070" y="1500" type="line"/>
    </contour>
    <contour>
      <point x="131" y="720" type="line"/>
      <point x="131" y="800" type="line"/>
      <point x="303" y="800" type="line"/>
      <point x="303" y="1283" type="line"/>
      <point x="332" y="1396" type="line"/>
      <point x="264" y="1303" type="line"/>
      <point x="158" y="1209" type="line"/>
      <point x="104" y="1270" type="line"/>
      <point x="333" y="1480" type="line"/>
      <point x="408" y="1470" type="line"/>
      <point x="408" y="800" type="line"/>
      <point x="581" y="800" type="line"/>
      <point x="581" y="720" type="line"/>
    </contour>
    <contour>
      <point x="813" y="0" type="line" name="hr01"/>
      <point x="813" y="84" type="line"/>
      <point x="836" y="120"/>
      <point x="890" y="191"/>
      <point x="946" y="258"/>
      <point x="999" y="318"/>
      <point x="1021" y="344" type="qcurve"/>
      <point x="1047" y="374"/>
      <point x="1096" y="424"/>
      <point x="1133" y="473"/>
      <point x="1155" y="526"/>
      <point x="1155" y="557" type="qcurve"/>
      <point x="1155" y="581"/>
      <point x="1137" y="624"/>
      <point x="1104" y="655"/>
      <point x="1059" y="674"/>
      <point x="1032" y="674" type="qcurve"/>
      <point x="1002" y="674"/>
      <point x="957" y="657"/>
      <point x="924" y="630"/>
      <point x="899" y="597"/>
      <point x="889" y="580" type="qcurve"/>
      <point x="818" y="610" type="line"/>
      <point x="831" y="642"/>
      <point x="872" y="697"/>
      <point x="927" y="736"/>
      <point x="997" y="758"/>
      <point x="1040" y="758" type="qcurve"/>
      <point x="1090" y="758"/>
      <point x="1169" y="722"/>
      <point x="1224" y="664"/>
      <point x="1252" y="590"/>
      <point x="1252" y="552" type="qcurve"/>
      <point x="1252" y="513"/>
      <point x="1224" y="444"/>
      <point x="1181" y="381"/>
      <point x="1132" y="326"/>
      <point x="1112" y="302" type="qcurve"/>
      <point x="1086" y="272"/>
      <point x="1034" y="213"/>
      <point x="986" y="156"/>
      <point x="945" y="104"/>
      <point x="930" y="80" type="qcurve"/>
      <point x="1280" y="80" type="line"/>
      <point x="1280" y="0" type="line"/>
    </contour>
  </outline>
</glyph>
<glyph name="questiondown" format="1">
  <advance width="1300"/>
  <unicode hex="00BF"/>
  <outline>
    <contour>
      <point x="207" y="-44" type="qcurve"/>
      <point x="207" y="19"/>
      <point x="241" y="119"/>
      <point x="296" y="201"/>
      <point x="367" y="271"/>
      <point x="442" y="338"/>
      <point x="513" y="408"/>
      <point x="568" y="489"/>
      <point x="602" y="588"/>
      <point x="602" y="650" type="qcurve"/>
      <point x="812" y="671" type="line"/>
      <point x="812" y="582"/>
      <point x="778" y="446"/>
      <point x="723" y="341"/>
      <point x="652" y="260"/>
      <point x="577" y="193"/>
      <point x="506" y="133"/>
      <point x="451" y="69"/>
      <point x="417" y="-5"/>
      <point x="417" y="-52" type="qcurve"/>
      <point x="417" y="-104"/>
      <point x="457" y="-180"/>
      <point x="526" y="-228"/>
      <point x="619" y="-251"/>
      <point x="672" y="-251" type="qcurve"/>
      <point x="710" y="-251"/>
      <point x="791" y="-229"/>
      <point x="868" y="-187"/>
      <point x="939" y="-127"/>
      <point x="967" y="-90" type="qcurve"/>
      <point x="1100" y="-200" type="line"/>
      <point x="1051" y="-266"/>
      <point x="936" y="-351"/>
      <point x="817" y="-399"/>
      <point x="700" y="-417"/>
      <point x="647" y="-417" type="qcurve"/>
      <point x="562" y="-417"/>
      <point x="404" y="-372"/>
      <point x="281" y="-281"/>
      <point x="207" y="-140"/>
    </contour>
    <contour>
      <point x="829" y="994" type="qcurve"/>
      <point x="829" y="969"/>
      <point x="810" y="925"/>
      <point x="777" y="892"/>
      <point x="733" y="873"/>
      <point x="708" y="873" type="qcurve"/>
      <point x="683" y="873"/>
      <point x="639" y="892"/>
      <point x="606" y="925"/>
      <point x="587" y="969"/>
      <point x="587" y="994" type="qcurve"/>
      <point x="587" y="1019"/>
      <point x="606" y="1064"/>
      <point x="638" y="1097"/>
      <point x="682" y="1117"/>
      <point x="707" y="1117" type="qcurve"/>
      <point x="733" y="1117"/>
      <point x="777" y="1097"/>
      <point x="810" y="1064"/>
      <point x="829" y="1019"/>
    </contour>
  </outline>
</glyph>
<glyph name="Iacute" format="1">
  <advance width="1300"/>
  <unicode hex="00CD"/>
  <outline>
    <contour>
      <point x="206" y="1500" type="line" name="at01"/>
      <point x="1106" y="1500" type="line" name="ah01"/>
      <point x="1106" y="1340" type="line" name="sv01"/>
      <point x="748" y="1340" type="line" name="dh02"/>
      <point x="748" y="160" type="line" name="dh04"/>
      <point x="1126" y="160" type="line" name="sh02"/>
      <point x="1106" y="0" type="line" name="ab01"/>
      <point x="206" y="0" type="line" name="sh01"/>
      <point x="206" y="160" type="line" name="sv02"/>
      <point x="562" y="160" type="line" name="dh03"/>
      <point x="562" y="1340" type="line" name="dh01"/>
      <point x="186" y="1340" type="line" name="sh03"/>
    </contour>
    <contour>
      <point x="615" y="1900" type="line" name="ah02"/>
      <point x="845" y="1920" type="line" name="sh04"/>
      <point x="605" y="1600" type="line" name="av01"/>
      <point x="455" y="1600" type="line"/>
    </contour>
  </outline>
</glyph>
<glyph name="Eth" format="1">
  <advance width="1300"/>
  <unicode hex="00D0"/>
  <outline>
    <contour>
      <point x="0" y="855" type="line" name="hr00"/>
      <point x="200" y="855" type="line"/>
      <point x="200" y="1290" type="line"/>
      <point x="170" y="1500" type="line"/>
      <point x="253" y="1508"/>
      <point x="411" y="1511"/>
      <point x="500" y="1511" type="curve" smooth="yes"/>
      <point x="924" y="1511"/>
      <point x="1240" y="1310"/>
      <point x="1240" y="810" type="curve" smooth="yes"/>
      <point x="1240" y="227"/>
      <point x="890" y="0"/>
      <point x="491" y="0" type="curve" smooth="yes"/>
      <point x="200" y="0" type="line"/>
      <point x="200" y="700" type="line"/>
      <point x="0" y="700" type="line"/>
    </contour>
    <contour>
      <point x="410" y="1150" type="line"/>
      <point x="410" y="855" type="line"/>
      <point x="600" y="855" type="line"/>
      <point x="600" y="700" type="line"/>
      <point x="410" y="700" type="line"/>
      <point x="410" y="160" type="line"/>
      <point x="430" y="160" type="line" smooth="yes"/>
      <point x="1010" y="160"/>
      <point x="1030" y="550"/>
      <point x="1030" y="780" type="curve" smooth="yes"/>
      <point x="1030" y="1120"/>
      <point x="935" y="1358"/>
      <point x="491" y="1358" type="curve" smooth="yes"/>
      <point x="470" y="1358"/>
      <point x="444" y="1357"/>
      <point x="423" y="1354" type="curve" smooth="yes"/>
      <point x="385" y="1350" type="line"/>
    </contour>
  </outline>
</glyph>
<glyph name="Ocircumflex" format="1">
  <advance width="1300"/>
  <unicode hex="00D4"/>
  <outline>
    <contour>
      <point x="623" y="-17" type="qcurve" name="ab01"/>
      <point x="533" y="-17"/>
      <point x="382" y="38"/>
      <point x="259" y="139"/>
      <point x="167" y="279"/>
      <point x="104" y="450"/>
      <point x="73" y="645"/>
      <point x="73" y="750" type="qcurve" name="sh01"/>
      <point x="73" y="855"/>
      <point x="103" y="1050"/>
      <point x="164" y="1221"/>
      <point x="255" y="1361"/>
      <point x="377" y="1462"/>
      <point x="531" y="1517"/>
      <point x="623" y="1517" type="qcurve" name="at01"/>
      <point x="713" y="1517"/>
      <point x="864" y="1462"/>
      <point x="987" y="1361"/>
      <point x="1079" y="1221"/>
      <point x="1142" y="1050"/>
      <point x="1173" y="855"/>
      <point x="1173" y="750" type="qcurve" name="sh02"/>
      <point x="1173" y="645"/>
      <point x="1143" y="450"/>
      <point x="1082" y="279"/>
      <point x="991" y="139"/>
      <point x="869" y="38"/>
      <point x="715" y="-17"/>
    </contour>
    <contour>
      <point x="965" y="719" type="qcurve" name="ah01"/>
      <point x="965" y="789"/>
      <point x="956" y="935"/>
      <point x="929" y="1074"/>
      <point x="881" y="1197"/>
      <point x="804" y="1288"/>
      <point x="693" y="1342"/>
      <point x="617" y="1342" type="qcurve" name="sv01"/>
      <point x="545" y="1342"/>
      <point x="439" y="1294"/>
      <point x="365" y="1211"/>
      <point x="317" y="1100"/>
      <point x="291" y="976"/>
      <point x="281" y="846"/>
      <point x="281" y="785" type="qcurve" name="sh03"/>
      <point x="281" y="714"/>
      <point x="290" y="566"/>
      <point x="317" y="427"/>
      <point x="365" y="304"/>
      <point x="443" y="212"/>
      <point x="553" y="158"/>
      <point x="629" y="158" type="qcurve" name="sv02"/>
      <point x="700" y="158"/>
      <point x="805" y="207"/>
      <point x="880" y="292"/>
      <point x="928" y="403"/>
      <point x="955" y="528"/>
      <point x="965" y="658"/>
    </contour>
    <contour>
      <point x="880" y="1620" type="line" name="av01"/>
      <point x="730" y="1620" type="line"/>
      <point x="630" y="1772" type="line"/>
      <point x="600" y="1860" type="line" name="iv01"/>
      <point x="570" y="1773" type="line"/>
      <point x="469" y="1620" type="line" name="av02"/>
      <point x="319" y="1620" type="line"/>
      <point x="495" y="1900" type="line"/>
      <point x="695" y="1920" type="line" name="at02"/>
    </contour>
  </outline>
</glyph>
<glyph name="Ugrave" format="1">
  <advance width="1300"/>
  <unicode hex="00D9"/>
  <outline>
    <contour>
      <point x="1115" y="1500" type="line" name="at02"/>
      <point x="1115" y="523" type="line" name="sh01"/>
      <point x="1115" y="387"/>
      <point x="1050" y="184"/>
      <point x="927" y="50"/>
      <point x="749" y="-17"/>
      <point x="635" y="-17" type="qcurve" name="ih01"/>
      <point x="513" y="-17"/>
      <point x="342" y="68"/>
      <point x="234" y="223"/>
      <point x="185" y="441"/>
      <point x="185" y="573" type="qcurve" name="sh02"/>
      <point x="185" y="1290" type="line"/>
      <point x="155" y="1500" type="line"/>
      <point x="375" y="1520" type="line" name="at01"/>
      <point x="375" y="554" type="line" name="sh03"/>
      <point x="375" y="459"/>
      <point x="412" y="310"/>
      <point x="482" y="207"/>
      <point x="582" y="153"/>
      <point x="645" y="153" type="qcurve" name="ih02"/>
      <point x="792" y="153"/>
      <point x="925" y="328"/>
      <point x="925" y="504" type="qcurve" name="ah01"/>
      <point x="925" y="1500" type="line"/>
    </contour>
    <contour>
      <point x="760" y="1600" type="line" name="av01"/>
      <point x="610" y="1600" type="line"/>
      <point x="385" y="1900" type="line" name="iv01"/>
      <point x="589" y="1920" type="line" name="at03"/>
    </contour>
  </outline>
</glyph>
<glyph name="Yacute" format="1">
  <advance width="1300"/>
  <unicode hex="00DD"/>
  <outline>
    <contour>
      <point x="660" y="935" type="line" name="fh01"/>
      <point x="948" y="1500" type="line" name="sh01"/>
      <point x="1140" y="1500" type="line" name="at01"/>
      <point x="705" y="646" type="line"/>
      <point x="705" y="0" type="line" name="dh02"/>
      <point x="495" y="0" type="line" name="dh01"/>
      <point x="495" y="645" type="line"/>
      <point x="59" y="1500" type="line" name="fh02"/>
      <point x="263" y="1520" type="line" name="sh02"/>
      <point x="551" y="954" type="line" name="fh03"/>
      <point x="630" y="705" type="line" name="ah01"/>
    </contour>
    <contour>
      <point x="600" y="1900" type="line" name="ah02"/>
      <point x="830" y="1920" type="line" name="sh03"/>
      <point x="590" y="1600" type="line" name="av01"/>
      <point x="440" y="1600" type="line"/>
    </contour>
  </outline>
</glyph>
<glyph name="Thorn" format="1">
  <advance width="1300"/>
  <unicode hex="00DE"/>
  <outline>
    <contour>
      <point x="180" y="1500" type="line" name="ah02"/>
      <point x="400" y="1500" type="line" name="sh01"/>
      <point x="400" y="1301" type="line" name="av02"/>
      <point x="600" y="1301" type="line"/>
      <point x="646" y="1301"/>
      <point x="748" y="1283"/>
      <point x="848" y="1244"/>
      <point x="939" y="1181"/>
      <point x="1009" y="1089"/>
      <point x="1050" y="967"/>
      <point x="1050" y="889" type="qcurve" name="sh02"/>
      <point x="1050" y="831"/>
      <point x="1035" y="707"/>
      <point x="988" y="592"/>
      <point x="902" y="492"/>
      <point x="830" y="457" type="qcurve"/>
      <point x="780" y="433"/>
      <point x="653" y="401"/>
      <point x="560" y="401" type="qcurve"/>
      <point x="400" y="401" type="line" name="av01"/>
      <point x="400" y="0" type="line" name="sh04"/>
      <point x="200" y="0" type="line" name="sh05"/>
      <point x="200" y="1299" type="line"/>
    </contour>
    <contour>
      <point x="400" y="1151" type="line" name="sv01"/>
      <point x="400" y="557" type="line" name="sh03"/>
      <point x="589" y="557" type="line"/>
      <point x="662" y="557"/>
      <point x="768" y="608"/>
      <point x="837" y="697"/>
      <point x="870" y="818"/>
      <point x="870" y="889" type="qcurve" name="ah01"/>
      <point x="870" y="951"/>
      <point x="828" y="1049"/>
      <point x="749" y="1116"/>
      <point x="638" y="1151"/>
      <point x="569" y="1151" type="qcurve"/>
    </contour>
  </outline>
</glyph>
<glyph name="germandbls" format="1">
  <advance width="1300"/>
  <unicode hex="00DF"/>
  <outline>
    <contour>
      <point x="790" y="1148" type="qcurve" name="ah03"/>
      <point x="790" y="1194"/>
      <point x="763" y="1274"/>
      <point x="713" y="1334"/>
      <point x="643" y="1369"/>
      <point x="600" y="1369" type="qcurve" name="sv01"/>
      <point x="568" y="1369"/>
      <point x="523" y="1361"/>
      <point x="487" y="1344"/>
      <point x="456" y="1320"/>
      <point x="440" y="1304" type="qcurve"/>
      <point x="413" y="1277"/>
      <point x="400" y="1205"/>
      <point x="400" y="1160" type="qcurve" name="sh01"/>
      <point x="400" y="-17" type="line" name="ah01"/>
      <point x="192" y="0" type="line" name="sh02"/>
      <point x="192" y="1111" type="line"/>
      <point x="192" y="1305"/>
      <point x="308" y="1412" type="qcurve"/>
      <point x="336" y="1438"/>
      <point x="396" y="1478"/>
      <point x="467" y="1504"/>
      <point x="550" y="1517"/>
      <point x="603" y="1517" type="qcurve" name="at01"/>
      <point x="654" y="1517"/>
      <point x="733" y="1503"/>
      <point x="799" y="1475"/>
      <point x="854" y="1433"/>
      <point x="881" y="1405" type="qcurve"/>
      <point x="903" y="1382"/>
      <point x="940" y="1333"/>
      <point x="966" y="1277"/>
      <point x="981" y="1211"/>
      <point x="981" y="1169" type="qcurve" name="sh03"/>
      <point x="981" y="1060"/>
      <point x="877" y="902"/>
      <point x="790" y="860" type="qcurve"/>
      <point x="636" y="816" type="line" name="iv01"/>
      <point x="783" y="802" type="line"/>
      <point x="844" y="784"/>
      <point x="953" y="727"/>
      <point x="1035" y="645"/>
      <point x="1082" y="533"/>
      <point x="1082" y="460" type="qcurve" name="sh04"/>
      <point x="1082" y="332"/>
      <point x="992" y="157"/>
      <point x="847" y="48"/>
      <point x="664" y="0"/>
      <point x="570" y="0" type="qcurve" name="ab01"/>
      <point x="510" y="160" type="line" name="sv02"/>
      <point x="609" y="160"/>
      <point x="750" y="189"/>
      <point x="840" y="256"/>
      <point x="882" y="367"/>
      <point x="882" y="450" type="qcurve" name="ah02"/>
      <point x="882" y="600"/>
      <point x="713" y="730"/>
      <point x="550" y="730" type="qcurve" name="dv01"/>
      <point x="480" y="885" type="line" name="dv02"/>
      <point x="544" y="885"/>
      <point x="657" y="914"/>
      <point x="741" y="977"/>
      <point x="790" y="1077"/>
    </contour>
  </outline>
</glyph>
<glyph name="atilde" format="1">
  <advance width="1300"/>
  <unicode hex="00E3"/>
  <outline>
    <contour>
      <point x="1110" y="0" type="line" name="ab02"/>
      <point x="910" y="0" type="line"/>
      <point x="910" y="162" type="line" name="ah01"/>
      <point x="816" y="50" type="line" name="ah02"/>
      <point x="799" y="37"/>
      <point x="746" y="13"/>
      <point x="686" y="-6"/>
      <point x="624" y="-17"/>
      <point x="596" y="-17" type="qcurve" name="ab01"/>
      <point x="521" y="-17"/>
      <point x="369" y="30"/>
      <point x="247" y="121"/>
      <point x="170" y="256"/>
      <point x="170" y="344" type="qcurve" name="sh01"/>
      <point x="170" y="437"/>
      <point x="249" y="572"/>
      <point x="377" y="660"/>
      <point x="541" y="702"/>
      <point x="625" y="702" type="qcurve" name="dv02"/>
      <point x="720" y="702"/>
      <point x="860" y="681"/>
      <point x="910" y="662" type="qcurve" name="sh02"/>
      <point x="910" y="705" type="line"/>
      <point x="910" y="764"/>
      <point x="881" y="858"/>
      <point x="819" y="923"/>
      <point x="722" y="957"/>
      <point x="655" y="957" type="qcurve" name="sv01"/>
      <point x="592" y="957"/>
      <point x="501" y="942"/>
      <point x="462" y="933" type="qcurve"/>
      <point x="439" y="928"/>
      <point x="397" y="916"/>
      <point x="377" y="910" type="qcurve" name="ih01"/>
      <point x="305" y="1044" type="line"/>
      <point x="347" y="1063"/>
      <point x="405" y="1080" type="qcurve" name="sh04"/>
      <point x="453" y="1094"/>
      <point x="576" y="1117"/>
      <point x="665" y="1117" type="qcurve" name="at01"/>
      <point x="780" y="1117"/>
      <point x="942" y="1055"/>
      <point x="1044" y="943"/>
      <point x="1090" y="786"/>
      <point x="1090" y="690" type="qcurve"/>
      <point x="1090" y="180" type="line" name="sh05"/>
    </contour>
    <contour>
      <point x="910" y="525" type="line" name="sh06"/>
      <point x="850" y="533" type="line"/>
      <point x="836" y="534"/>
      <point x="790" y="538"/>
      <point x="737" y="540"/>
      <point x="684" y="542"/>
      <point x="665" y="542" type="qcurve" name="dv01"/>
      <point x="609" y="542"/>
      <point x="501" y="522"/>
      <point x="416" y="476"/>
      <point x="363" y="401"/>
      <point x="363" y="345" type="qcurve" name="sh03"/>
      <point x="363" y="300"/>
      <point x="403" y="226"/>
      <point x="470" y="172"/>
      <point x="557" y="143"/>
      <point x="604" y="143" type="qcurve" name="sv02"/>
      <point x="697" y="143"/>
      <point x="845" y="214"/>
      <point x="910" y="274" type="qcurve"/>
    </contour>
    <contour>
      <point x="387" y="1275" type="line"/>
      <point x="391" y="1315"/>
      <point x="422" y="1391"/>
      <point x="471" y="1449"/>
      <point x="533" y="1484"/>
      <point x="569" y="1484" type="qcurve"/>
      <point x="608" y="1484"/>
      <point x="676" y="1456"/>
      <point x="738" y="1422"/>
      <point x="798" y="1394"/>
      <point x="829" y="1394" type="qcurve"/>
      <point x="850" y="1394"/>
      <point x="882" y="1415"/>
      <point x="904" y="1446"/>
      <point x="918" y="1484"/>
      <point x="921" y="1502" type="qcurve"/>
      <point x="1017" y="1498" type="line"/>
      <point x="1014" y="1454"/>
      <point x="981" y="1372"/>
      <point x="930" y="1309"/>
      <point x="861" y="1271"/>
      <point x="822" y="1271" type="qcurve"/>
      <point x="790" y="1271"/>
      <point x="728" y="1299"/>
      <point x="664" y="1332"/>
      <point x="598" y="1360"/>
      <point x="563" y="1360" type="qcurve"/>
      <point x="545" y="1360"/>
      <point x="516" y="1344"/>
      <point x="493" y="1318"/>
      <point x="477" y="1287"/>
      <point x="473" y="1272" type="qcurve"/>
    </contour>
  </outline>
</glyph>
<glyph name="ae" format="1">
  <advance width="1300"/>
  <unicode hex="00E6"/>
  <outline>
    <contour>
      <point x="1245" y="650" type="qcurve"/>
      <point x="1245" y="631"/>
      <point x="1242" y="588"/>
      <point x="1236" y="546"/>
      <point x="1229" y="510"/>
      <point x="1225" y="500" type="qcurve"/>
      <point x="745" y="500" type="line"/>
      <point x="745" y="425"/>
      <point x="767" y="295"/>
      <point x="812" y="198"/>
      <point x="880" y="143"/>
      <point x="925" y="143" type="qcurve"/>
      <point x="963" y="143"/>
      <point x="1025" y="162"/>
      <point x="1071" y="188"/>
      <point x="1101" y="216"/>
      <point x="1107" y="225" type="qcurve"/>
      <point x="1236" y="129" type="line"/>
      <point x="1211" y="99"/>
      <point x="1158" y="46"/>
      <point x="1086" y="6"/>
      <point x="990" y="-17"/>
      <point x="923" y="-17" type="qcurve"/>
      <point x="870" y="-17"/>
      <point x="780" y="16"/>
      <point x="709" y="72"/>
      <point x="660" y="147"/>
      <point x="647" y="189" type="qcurve"/>
      <point x="631" y="147"/>
      <point x="588" y="72"/>
      <point x="526" y="16"/>
      <point x="440" y="-17"/>
      <point x="381" y="-17" type="qcurve"/>
      <point x="306" y="-17"/>
      <point x="185" y="30"/>
      <point x="100" y="121"/>
      <point x="55" y="256"/>
      <point x="55" y="344" type="qcurve"/>
      <point x="55" y="437"/>
      <point x="99" y="574"/>
      <point x="178" y="665"/>
      <point x="291" y="710"/>
      <point x="360" y="710" type="qcurve"/>
      <point x="417" y="710"/>
      <point x="479" y="698"/>
      <point x="494" y="690" type="qcurve"/>
      <point x="512" y="681"/>
      <point x="515" y="670" type="qcurve"/>
      <point x="515" y="705" type="line"/>
      <point x="515" y="764"/>
      <point x="511" y="858"/>
      <point x="488" y="923"/>
      <point x="437" y="957"/>
      <point x="390" y="957" type="qcurve"/>
      <point x="357" y="957"/>
      <point x="294" y="942"/>
      <point x="268" y="933" type="qcurve"/>
      <point x="238" y="922"/>
      <point x="212" y="910" type="qcurve"/>
      <point x="140" y="1044" type="line"/>
      <point x="182" y="1064"/>
      <point x="231" y="1080" type="qcurve"/>
      <point x="273" y="1094"/>
      <point x="385" y="1117"/>
      <point x="450" y="1117" type="qcurve"/>
      <point x="492" y="1117"/>
      <point x="558" y="1092"/>
      <point x="606" y="1049"/>
      <point x="639" y="993"/>
      <point x="648" y="962" type="qcurve"/>
      <point x="657" y="993"/>
      <point x="699" y="1049"/>
      <point x="763" y="1092"/>
      <point x="851" y="1117"/>
      <point x="905" y="1117" type="qcurve"/>
      <point x="1013" y="1117"/>
      <point x="1146" y="1057"/>
      <point x="1220" y="939"/>
      <point x="1245" y="764"/>
    </contour>
    <contour>
      <point x="515" y="533" type="line"/>
      <point x="506" y="537"/>
      <point x="494" y="541" type="qcurve"/>
      <point x="483" y="544"/>
      <point x="449" y="550"/>
      <point x="426" y="550" type="qcurve"/>
      <point x="333" y="550"/>
      <point x="235" y="457"/>
      <point x="235" y="345" type="qcurve"/>
      <point x="235" y="300"/>
      <point x="252" y="226"/>
      <point x="289" y="172"/>
      <point x="348" y="143"/>
      <point x="389" y="143" type="qcurve"/>
      <point x="427" y="143"/>
      <point x="477" y="183"/>
      <point x="491" y="208" type="qcurve"/>
      <point x="508" y="237"/>
      <point x="515" y="274" type="qcurve"/>
    </contour>
    <contour>
      <point x="1067" y="730" type="line"/>
      <point x="1067" y="776"/>
      <point x="1052" y="859"/>
      <point x="1016" y="921"/>
      <point x="956" y="957"/>
      <point x="911" y="957" type="qcurve"/>
      <point x="862" y="957"/>
      <point x="798" y="918"/>
      <point x="760" y="855"/>
      <point x="744" y="774"/>
      <point x="744" y="732" type="qcurve"/>
      <point x="675" y="623" type="line"/>
      <point x="797" y="650" type="line"/>
      <point x="1067" y="650" type="line"/>
    </contour>
  </outline>
</glyph>
<glyph name="ccedilla" format="1">
  <advance width="1300"/>
  <unicode hex="00E7"/>
  <outline>
    <contour>
      <point x="1006" y="878" type="line" name="hr00"/>
      <point x="967" y="913"/>
      <point x="829" y="957"/>
      <point x="723" y="957" type="qcurve" name="sv01"/>
      <point x="639" y="957"/>
      <point x="506" y="894"/>
      <point x="413" y="786"/>
      <point x="364" y="643"/>
      <point x="364" y="564" type="qcurve" name="sh02"/>
      <point x="364" y="482"/>
      <point x="411" y="333"/>
      <point x="504" y="219"/>
      <point x="642" y="152"/>
      <point x="734" y="152" type="qcurve" name="sv02"/>
      <point x="786" y="152"/>
      <point x="882" y="176" name="mv01"/>
      <point x="960" y="209"/>
      <point x="1015" y="242" name="mh01"/>
      <point x="1027" y="252" type="qcurve" name="mv02"/>
      <point x="1099" y="111" type="line"/>
      <point x="1084" y="98"/>
      <point x="1024" y="55"/>
      <point x="931" y="13"/>
      <point x="804" y="-17"/>
      <point x="720" y="-17" type="qcurve" name="ab01"/>
      <point x="595" y="-17"/>
      <point x="392" y="82"/>
      <point x="248" y="247"/>
      <point x="169" y="461"/>
      <point x="169" y="577" type="qcurve" name="sh01"/>
      <point x="169" y="681"/>
      <point x="246" y="876"/>
      <point x="390" y="1026"/>
      <point x="596" y="1117"/>
      <point x="725" y="1117" type="qcurve" name="at01"/>
      <point x="847" y="1117"/>
      <point x="1042" y="1060"/>
      <point x="1105" y="991" type="qcurve"/>
    </contour>
    <contour>
      <point x="810" y="0" type="line" name="sh03"/>
      <point x="833" y="-27"/>
      <point x="851" y="-59" type="qcurve"/>
      <point x="867" y="-86"/>
      <point x="893" y="-158"/>
      <point x="893" y="-198" type="qcurve" name="sh04"/>
      <point x="893" y="-242"/>
      <point x="856" y="-318"/>
      <point x="794" y="-375"/>
      <point x="713" y="-407"/>
      <point x="669" y="-407" type="qcurve"/>
      <point x="619" y="-407"/>
      <point x="526" y="-380"/>
      <point x="489" y="-363" type="qcurve"/>
      <point x="446" y="-344"/>
      <point x="408" y="-318" type="qcurve" name="ah03"/>
      <point x="479" y="-218" type="line" name="av01"/>
      <point x="505" y="-236"/>
      <point x="533" y="-249" type="qcurve"/>
      <point x="557" y="-260"/>
      <point x="616" y="-279"/>
      <point x="645" y="-279" type="qcurve"/>
      <point x="682" y="-279" name="av02"/>
      <point x="740" y="-231"/>
      <point x="740" y="-189" type="qcurve" name="ah02"/>
      <point x="740" y="-156"/>
      <point x="707" y="-89"/>
      <point x="687" y="-62" type="qcurve"/>
      <point x="663" y="-30"/>
      <point x="634" y="0" type="qcurve" name="ah01"/>
    </contour>
  </outline>
</glyph>
<glyph name="igrave" format="1">
  <advance width="1300"/>
  <unicode hex="00EC"/>
  <outline>
    <contour>
      <point x="711" y="393" type="line"/>
      <point x="711" y="254"/>
      <point x="742" y="153"/>
      <point x="841" y="153" type="curve" smooth="yes"/>
      <point x="973" y="153"/>
      <point x="1097" y="205"/>
      <point x="1112" y="210" type="curve"/>
      <point x="1151" y="56" type="line"/>
      <point x="1136" y="48"/>
      <point x="1007" y="-17"/>
      <point x="831" y="-17" type="curve" smooth="yes"/>
      <point x="570" y="-17"/>
      <point x="521" y="165"/>
      <point x="521" y="403" type="curve" smooth="yes"/>
      <point x="521" y="970" type="line"/>
      <point x="421" y="940" type="line"/>
      <point x="220" y="940" type="line"/>
      <point x="200" y="1100" type="line" name="hr01"/>
      <point x="711" y="1100" type="line"/>
      <point x="711" y="501" type="line"/>
    </contour>
    <contour>
      <point x="660" y="1200" type="line" name="hr02"/>
      <point x="510" y="1200" type="line"/>
      <point x="285" y="1500" type="line"/>
      <point x="489" y="1520" type="line"/>
    </contour>
  </outline>
</glyph>
<glyph name="iacute" format="1">
  <advance width="1300"/>
  <unicode hex="00ED"/>
  <outline>
    <contour>
      <point x="711" y="393" type="line"/>
      <point x="711" y="254"/>
      <point x="742" y="153"/>
      <point x="841" y="153" type="curve" smooth="yes"/>
      <point x="973" y="153"/>
      <point x="1097" y="205"/>
      <point x="1112" y="210" type="curve"/>
      <point x="1151" y="56" type="line"/>
      <point x="1136" y="48"/>
      <point x="1007" y="-17"/>
      <point x="831" y="-17" type="curve" smooth="yes"/>
      <point x="570" y="-17"/>
      <point x="521" y="165"/>
      <point x="521" y="403" type="curve" smooth="yes"/>
      <point x="521" y="970" type="line"/>
      <point x="421" y="940" type="line"/>
      <point x="220" y="940" type="line"/>
      <point x="200" y="1100" type="line"/>
      <point x="711" y="1100" type="line"/>
      <point x="711" y="501" type="line"/>
    </contour>
    <contour>
      <point x="720" y="1500" type="line" name="hr01"/>
      <point x="950" y="1520" type="line"/>
      <point x="710" y="1200" type="line"/>
      <point x="560" y="1200" type="line"/>
    </contour>
  </outline>
</glyph>
<glyph name="icircumflex" format="1">
  <advance width="1300"/>
  <unicode hex="00EE"/>
  <outline>
    <contour>
      <point x="711" y="393" type="line"/>
      <point x="711" y="254"/>
      <point x="742" y="153"/>
      <point x="841" y="153" type="curve" smooth="yes"/>
      <point x="973" y="153"/>
      <point x="1097" y="205"/>
      <point x="1112" y="210" type="curve"/>
      <point x="1151" y="56" type="line"/>
      <point x="1136" y="48"/>
      <point x="1007" y="-17"/>
      <point x="831" y="-17" type="curve" smooth="yes"/>
      <point x="570" y="-17"/>
      <point x="521" y="165"/>
      <point x="521" y="403" type="curve" smooth="yes"/>
      <point x="521" y="970" type="line"/>
      <point x="421" y="940" type="line"/>
      <point x="220" y="940" type="line"/>
      <point x="200" y="1100" type="line"/>
      <point x="711" y="1100" type="line"/>
      <point x="711" y="501" type="line"/>
    </contour>
    <contour>
      <point x="881" y="1220" type="line" name="hr01"/>
      <point x="731" y="1220" type="line"/>
      <point x="631" y="1372" type="line"/>
      <point x="601" y="1460" type="line"/>
      <point x="571" y="1373" type="line"/>
      <point x="470" y="1220" type="line"/>
      <point x="320" y="1220" type="line"/>
      <point x="496" y="1500" type="line"/>
      <point x="696" y="1520" type="line"/>
    </contour>
  </outline>
</glyph>
<glyph name="divide" format="1">
  <advance width="1300"/>
  <unicode hex="00F7"/>
  <outline>
    <contour>
      <point x="541" y="307" type="qcurve"/>
      <point x="541" y="329"/>
      <point x="558" y="368"/>
      <point x="588" y="398"/>
      <point x="627" y="415"/>
      <point x="649" y="415" type="qcurve"/>
      <point x="671" y="415"/>
      <point x="710" y="398"/>
      <point x="740" y="368"/>
      <point x="757" y="329"/>
      <point x="757" y="307" type="qcurve"/>
      <point x="757" y="285"/>
      <point x="740" y="245"/>
      <point x="711" y="215"/>
      <point x="672" y="197"/>
      <point x="650" y="197" type="qcurve"/>
      <point x="627" y="197"/>
      <point x="588" y="215"/>
      <point x="558" y="245"/>
      <point x="541" y="285"/>
    </contour>
    <contour>
      <point x="541" y="920" type="qcurve"/>
      <point x="541" y="942"/>
      <point x="558" y="981"/>
      <point x="588" y="1011"/>
      <point x="627" y="1028"/>
      <point x="649" y="1028" type="qcurve"/>
      <point x="671" y="1028"/>
      <point x="710" y="1011"/>
      <point x="740" y="981"/>
      <point x="757" y="942"/>
      <point x="757" y="920" type="qcurve"/>
      <point x="757" y="898"/>
      <point x="740" y="858"/>
      <point x="711" y="828"/>
      <point x="672" y="810"/>
      <point x="650" y="810" type="qcurve"/>
      <point x="627" y="810"/>
      <point x="588" y="828"/>
      <point x="558" y="858"/>
      <point x="541" y="898"/>
    </contour>
    <contour>
      <point x="200" y="700" type="line"/>
      <point x="1100" y="700" type="line"/>
      <point x="1100" y="545" type="line"/>
      <point x="200" y="545" type="line"/>
    </contour>
  </outline>
</glyph>
<glyph name="udieresis" format="1">
  <advance width="1300"/>
  <unicode hex="00FC"/>
  <outline>
    <contour>
      <point x="930" y="1100" type="line" name="ah01"/>
      <point x="1110" y="1120" type="line" name="sh01"/>
      <point x="1110" y="0" type="line" name="ab01"/>
      <point x="930" y="0" type="line" name="sh02"/>
      <point x="930" y="180" type="line" name="ih01"/>
      <point x="869" y="73" type="line"/>
      <point x="860" y="62"/>
      <point x="820" y="32"/>
      <point x="760" y="3"/>
      <point x="682" y="-17"/>
      <point x="634" y="-17" type="qcurve" name="ab02"/>
      <point x="513" y="-17"/>
      <point x="350" y="58"/>
      <point x="252" y="182"/>
      <point x="210" y="344"/>
      <point x="210" y="430" type="qcurve" name="sh03"/>
      <point x="210" y="1100" type="line"/>
      <point x="390" y="1120" type="line" name="av01"/>
      <point x="390" y="430" type="line" name="sh04"/>
      <point x="390" y="365"/>
      <point x="416" y="261"/>
      <point x="479" y="187"/>
      <point x="584" y="148"/>
      <point x="662" y="148" type="qcurve" name="sv01"/>
      <point x="720" y="148"/>
      <point x="810" y="181"/>
      <point x="877" y="228"/>
      <point x="920" y="280"/>
      <point x="930" y="300" type="qcurve"/>
    </contour>
    <contour>
      <point x="350" y="1500" type="line"/>
      <point x="550" y="1500" type="line"/>
      <point x="550" y="1300" type="line"/>
      <point x="350" y="1300" type="line"/>
    </contour>
    <contour>
      <point x="750" y="1500" type="line"/>
      <point x="950" y="1500" type="line"/>
      <point x="950" y="1300" type="line"/>
      <point x="750" y="1300" type="line"/>
    </contour>
  </outline>
</glyph>
<glyph name="yacute" format="1">
  <advance width="1300"/>
  <unicode hex="00FD"/>
  <outline>
    <contour>
      <point x="721" y="364" type="line" name="dh02"/>
      <point x="990" y="1100" type="line" name="sh01"/>
      <point x="1170" y="1120" type="line" name="sh02"/>
      <point x="766" y="-17" type="line" name="ih01"/>
      <point x="736" y="-101"/>
      <point x="667" y="-267"/>
      <point x="580" y="-399"/>
      <point x="471" y="-480"/>
      <point x="401" y="-480" type="qcurve" name="av02"/>
      <point x="345" y="-480"/>
      <point x="251" y="-436"/>
      <point x="209" y="-400" type="qcurve" name="ah01"/>
      <point x="282" y="-283" type="line" name="sh03"/>
      <point x="288" y="-289"/>
      <point x="307" y="-305"/>
      <point x="330" y="-320"/>
      <point x="357" y="-330"/>
      <point x="371" y="-330" type="qcurve" name="av01"/>
      <point x="407" y="-330"/>
      <point x="466" y="-279"/>
      <point x="517" y="-197"/>
      <point x="560" y="-97"/>
      <point x="580" y="-47" type="qcurve" name="ab01"/>
      <point x="173" y="1100" type="line" name="sh05"/>
      <point x="363" y="1120" type="line" name="sh04"/>
      <point x="627" y="364" type="line" name="dh01"/>
      <point x="679" y="132" type="line" name="ah02"/>
    </contour>
    <contour>
      <point x="715" y="1500" type="line" name="ah03"/>
      <point x="945" y="1520" type="line" name="sh06"/>
      <point x="705" y="1200" type="line" name="av03"/>
      <point x="555" y="1200" type="line"/>
    </contour>
  </outline>
</glyph>
<glyph name="OE" format="1">
  <advance width="1300"/>
  <unicode hex="0152"/>
  <outline>
    <contour>
      <point x="555" y="-17" type="line" name="hr00"/>
      <point x="441" y="-17"/>
      <point x="248" y="68"/>
      <point x="108" y="252"/>
      <point x="29" y="544"/>
      <point x="29" y="750" type="qcurve"/>
      <point x="29" y="956"/>
      <point x="108" y="1247"/>
      <point x="248" y="1432"/>
      <point x="441" y="1517"/>
      <point x="555" y="1517" type="qcurve"/>
      <point x="685" y="1430" type="line"/>
      <point x="675" y="1500" type="line"/>
      <point x="1300" y="1500" type="line"/>
      <point x="1300" y="1340" type="line"/>
      <point x="885" y="1340" type="line"/>
      <point x="905" y="1150" type="line"/>
      <point x="905" y="885" type="line"/>
      <point x="1230" y="885" type="line"/>
      <point x="1230" y="740" type="line"/>
      <point x="905" y="740" type="line"/>
      <point x="905" y="340" type="line"/>
      <point x="895" y="160" type="line"/>
      <point x="1335" y="160" type="line"/>
      <point x="1315" y="0" type="line"/>
      <point x="675" y="0" type="line"/>
      <point x="685" y="70" type="line"/>
    </contour>
    <contour>
      <point x="695" y="1305" type="line"/>
      <point x="668" y="1325"/>
      <point x="591" y="1347"/>
      <point x="549" y="1347" type="qcurve"/>
      <point x="399" y="1347"/>
      <point x="237" y="1060"/>
      <point x="237" y="785" type="qcurve"/>
      <point x="237" y="622"/>
      <point x="279" y="384"/>
      <point x="361" y="228"/>
      <point x="482" y="153"/>
      <point x="561" y="153" type="qcurve"/>
      <point x="602" y="153"/>
      <point x="661" y="167"/>
      <point x="695" y="190" type="qcurve"/>
    </contour>
  </outline>
</glyph>
<glyph name="oe" format="1">
  <advance width="1300"/>
  <unicode hex="0153"/>
  <outline>
    <contour>
      <point x="378" y="1117" type="qcurve"/>
      <point x="429" y="1117"/>
      <point x="510" y="1077"/>
      <point x="572" y="1015"/>
      <point x="616" y="937"/>
      <point x="631" y="900" type="qcurve"/>
      <point x="641" y="937"/>
      <point x="694" y="1015"/>
      <point x="770" y="1077"/>
      <point x="867" y="1117"/>
      <point x="921" y="1117" type="qcurve"/>
      <point x="1029" y="1117"/>
      <point x="1162" y="1057"/>
      <point x="1236" y="939"/>
      <point x="1261" y="764"/>
      <point x="1261" y="650" type="qcurve"/>
      <point x="1261" y="631"/>
      <point x="1258" y="588"/>
      <point x="1252" y="546"/>
      <point x="1245" y="510"/>
      <point x="1241" y="500" type="qcurve"/>
      <point x="761" y="500" type="line"/>
      <point x="761" y="425"/>
      <point x="783" y="295"/>
      <point x="828" y="198"/>
      <point x="896" y="143"/>
      <point x="941" y="143" type="qcurve"/>
      <point x="979" y="143"/>
      <point x="1041" y="162"/>
      <point x="1087" y="188"/>
      <point x="1117" y="216"/>
      <point x="1123" y="225" type="qcurve"/>
      <point x="1252" y="129" type="line"/>
      <point x="1227" y="99"/>
      <point x="1174" y="46"/>
      <point x="1102" y="6"/>
      <point x="1006" y="-17"/>
      <point x="939" y="-17" type="qcurve"/>
      <point x="892" y="-17"/>
      <point x="802" y="11"/>
      <point x="726" y="65"/>
      <point x="667" y="141"/>
      <point x="650" y="189" type="qcurve"/>
      <point x="632" y="143"/>
      <point x="584" y="68"/>
      <point x="520" y="14"/>
      <point x="439" y="-16"/>
      <point x="387" y="-17" type="qcurve"/>
      <point x="313" y="-14"/>
      <point x="203" y="36"/>
      <point x="124" y="118"/>
      <point x="72" y="228"/>
      <point x="42" y="352"/>
      <point x="30" y="487"/>
      <point x="30" y="553" type="qcurve"/>
      <point x="30" y="609"/>
      <point x="40" y="736"/>
      <point x="68" y="861"/>
      <point x="118" y="977"/>
      <point x="195" y="1065"/>
      <point x="304" y="1117"/>
    </contour>
    <contour>
      <point x="379" y="178" type="qcurve"/>
      <point x="432" y="178"/>
      <point x="497" y="240"/>
      <point x="533" y="340"/>
      <point x="545" y="465"/>
      <point x="545" y="528" type="qcurve"/>
      <point x="545" y="566"/>
      <point x="542" y="655"/>
      <point x="530" y="742"/>
      <point x="508" y="823"/>
      <point x="470" y="885"/>
      <point x="412" y="922"/>
      <point x="372" y="922" type="qcurve"/>
      <point x="319" y="922"/>
      <point x="253" y="853"/>
      <point x="214" y="748"/>
      <point x="200" y="625"/>
      <point x="200" y="570" type="qcurve"/>
      <point x="200" y="495"/>
      <point x="216" y="354"/>
      <point x="257" y="244"/>
      <point x="326" y="178"/>
    </contour>
    <contour>
      <point x="813" y="650" type="line"/>
      <point x="1083" y="650" type="line"/>
      <point x="1083" y="730" type="line"/>
      <point x="1083" y="776"/>
      <point x="1068" y="859"/>
      <point x="1032" y="921"/>
      <point x="972" y="957"/>
      <point x="927" y="957" type="qcurve"/>
      <point x="886" y="957"/>
      <point x="823" y="918"/>
      <point x="781" y="855"/>
      <point x="760" y="774"/>
      <point x="760" y="732" type="qcurve"/>
      <point x="691" y="623" type="line"/>
    </contour>
  </outline>
</glyph>
<glyph name="scaron" format="1">
  <advance width="1300"/>
  <unicode hex="0161"/>
  <outline>
    <contour>
      <point x="1020" y="899" type="line" name="ah02"/>
      <point x="1001" y="908"/>
      <point x="948" y="931"/>
      <point x="882" y="950"/>
      <point x="803" y="963"/>
      <point x="758" y="963" type="qcurve" name="sv01"/>
      <point x="697" y="963"/>
      <point x="581" y="951"/>
      <point x="491" y="919"/>
      <point x="436" y="865"/>
      <point x="436" y="822" type="qcurve" name="sh02"/>
      <point x="436" y="786"/>
      <point x="490" y="735"/>
      <point x="577" y="698" name="av02"/>
      <point x="687" y="671" name="ih01"/>
      <point x="799" y="647" name="iv01"/>
      <point x="903" y="624"/>
      <point x="941" y="610" type="qcurve" name="sv03"/>
      <point x="985" y="593"/>
      <point x="1062" y="541"/>
      <point x="1120" y="472"/>
      <point x="1153" y="389"/>
      <point x="1153" y="341" type="qcurve" name="sh03"/>
      <point x="1153" y="276"/>
      <point x="1103" y="173"/>
      <point x="1018" y="94"/>
      <point x="906" y="37"/>
      <point x="781" y="0"/>
      <point x="652" y="-17" name="ih02"/>
      <point x="593" y="-17" type="qcurve" name="ab01"/>
      <point x="559" y="-17"/>
      <point x="458" y="-4"/>
      <point x="353" y="19"/>
      <point x="259" y="51"/>
      <point x="233" y="69" type="qcurve"/>
      <point x="299" y="211" type="line" name="sh04"/>
      <point x="323" y="199"/>
      <point x="401" y="175"/>
      <point x="487" y="155"/>
      <point x="568" y="143"/>
      <point x="595" y="143" type="qcurve" name="sv02"/>
      <point x="626" y="143"/>
      <point x="703" y="150"/>
      <point x="784" y="167"/>
      <point x="861" y="196"/>
      <point x="921" y="240"/>
      <point x="958" y="300"/>
      <point x="958" y="340" type="qcurve" name="ah01"/>
      <point x="958" y="379"/>
      <point x="906" y="433"/>
      <point x="820" y="471" name="av01"/>
      <point x="713" y="498" name="ih03"/>
      <point x="601" y="522" name="iv02"/>
      <point x="497" y="547"/>
      <point x="458" y="566" type="qcurve" name="sv04"/>
      <point x="401" y="593"/>
      <point x="326" y="656"/>
      <point x="281" y="726"/>
      <point x="263" y="802"/>
      <point x="263" y="842" type="qcurve" name="sh01"/>
      <point x="263" y="913"/>
      <point x="344" y="1017"/>
      <point x="480" y="1084"/>
      <point x="656" y="1117" name="ih04"/>
      <point x="752" y="1117" type="qcurve" name="at01"/>
      <point x="804" y="1117"/>
      <point x="903" y="1105"/>
      <point x="990" y="1085"/>
      <point x="1058" y="1060"/>
      <point x="1078" y="1047" type="qcurve"/>
    </contour>
    <contour>
      <point x="796" y="1220" type="line"/>
      <point x="596" y="1240" type="line"/>
      <point x="420" y="1520" type="line" name="at02"/>
      <point x="570" y="1520" type="line"/>
      <point x="681" y="1387" type="line"/>
      <point x="701" y="1310" type="line"/>
      <point x="721" y="1388" type="line"/>
      <point x="831" y="1520" type="line" name="at03"/>
      <point x="981" y="1520" type="line"/>
    </contour>
  </outline>
</glyph>
<glyph name="circumflex" format="1">
  <advance width="1300"/>
  <unicode hex="02C6"/>
  <outline>
    <contour>
      <point x="880" y="1220" type="line" name="av01"/>
      <point x="730" y="1220" type="line"/>
      <point x="630" y="1372" type="line"/>
      <point x="600" y="1460" type="line" name="iv01"/>
      <point x="570" y="1373" type="line"/>
      <point x="469" y="1220" type="line" name="av02"/>
      <point x="319" y="1220" type="line"/>
      <point x="495" y="1500" type="line"/>
      <point x="695" y="1520" type="line" name="at01"/>
    </contour>
  </outline>
</glyph>
<glyph name="breve" format="1">
  <advance width="1300"/>
  <unicode hex="02D8"/>
  <outline>
    <contour>
      <point x="426" y="1520" type="line" name="dh01"/>
      <point x="430" y="1482"/>
      <point x="449" y="1452" type="qcurve"/>
      <point x="466" y="1426"/>
      <point x="534" y="1384"/>
      <point x="597" y="1384" type="qcurve"/>
      <point x="661" y="1384"/>
      <point x="733" y="1426"/>
      <point x="750" y="1452" type="qcurve"/>
      <point x="770" y="1482"/>
      <point x="774" y="1520" type="qcurve" name="dh02"/>
      <point x="880" y="1520" type="line"/>
      <point x="880" y="1507" type="line"/>
      <point x="880" y="1493"/>
      <point x="875" y="1446"/>
      <point x="856" y="1389"/>
      <point x="820" y="1331"/>
      <point x="757" y="1284"/>
      <point x="663" y="1254"/>
      <point x="597" y="1254" type="qcurve"/>
      <point x="531" y="1254"/>
      <point x="439" y="1284"/>
      <point x="377" y="1331"/>
      <point x="342" y="1388"/>
      <point x="324" y="1444"/>
      <point x="319" y="1492"/>
      <point x="319" y="1506" type="qcurve"/>
      <point x="319" y="1520" type="line"/>
    </contour>
  </outline>
</glyph>
<glyph name="tilde" format="1">
  <advance width="1300"/>
  <unicode hex="02DC"/>
  <outline>
    <contour>
      <point x="387" y="1335" type="line"/>
      <point x="391" y="1375"/>
      <point x="422" y="1451"/>
      <point x="471" y="1509"/>
      <point x="533" y="1544"/>
      <point x="569" y="1544" type="qcurve"/>
      <point x="608" y="1544"/>
      <point x="676" y="1516"/>
      <point x="738" y="1482"/>
      <point x="798" y="1454"/>
      <point x="829" y="1454" type="qcurve"/>
      <point x="850" y="1454"/>
      <point x="882" y="1475"/>
      <point x="904" y="1506"/>
      <point x="918" y="1544"/>
      <point x="921" y="1562" type="qcurve"/>
      <point x="1017" y="1558" type="line"/>
      <point x="1014" y="1514"/>
      <point x="981" y="1432"/>
      <point x="930" y="1369"/>
      <point x="861" y="1331"/>
      <point x="822" y="1331" type="qcurve"/>
      <point x="790" y="1331"/>
      <point x="728" y="1359"/>
      <point x="664" y="1392"/>
      <point x="598" y="1420"/>
      <point x="563" y="1420" type="qcurve"/>
      <point x="545" y="1420"/>
      <point x="516" y="1404"/>
      <point x="493" y="1378"/>
      <point x="477" y="1347"/>
      <point x="473" y="1332" type="qcurve"/>
    </contour>
  </outline>
</glyph>
<glyph name="Gamma" format="1">
  <advance width="1300"/>
  <unicode hex="0393"/>
  <outline>
    <contour>
      <point x="400" y="1150" type="line" name="hr00"/>
      <point x="400" y="0" type="line" name="dh02"/>
      <point x="200" y="0" type="line" name="dh01"/>
      <point x="200" y="1300" type="line"/>
      <point x="183" y="1500" type="line" name="at01"/>
      <point x="1020" y="1500" type="line"/>
      <point x="1020" y="1350" type="line" name="sv01"/>
      <point x="385" y="1350" type="line"/>
    </contour>
  </outline>
</glyph>
<glyph name="Deltagreek" format="1">
  <advance width="1300"/>
  <unicode hex="0394"/>
  <outline>
    <contour>
      <point x="49" y="0" type="line" name="hr00"/>
      <point x="1221" y="0" type="line"/>
      <point x="738" y="1520" type="line"/>
      <point x="521" y="1500" type="line"/>
    </contour>
    <contour>
      <point x="336" y="160" type="line"/>
      <point x="213" y="108" type="line"/>
      <point x="295" y="200" type="line"/>
      <point x="606" y="1258" type="line"/>
      <point x="636" y="1425" type="line"/>
      <point x="666" y="1258" type="line"/>
      <point x="977" y="200" type="line"/>
      <point x="1062" y="108" type="line"/>
      <point x="936" y="160" type="line"/>
    </contour>
  </outline>
</glyph>
<glyph name="Zeta" format="1">
  <advance width="1300"/>
  <unicode hex="0396"/>
  <outline>
    <contour>
      <point x="1061" y="160" type="line" name="sv01"/>
      <point x="1081" y="0" type="line" name="ab01"/>
      <point x="141" y="0" type="line"/>
      <point x="121" y="50" type="line"/>
      <point x="686" y="1200" type="line"/>
      <point x="870" y="1380" type="line" name="iv01"/>
      <point x="605" y="1340" type="line" name="sv02"/>
      <point x="210" y="1340" type="line" name="iv02"/>
      <point x="190" y="1500" type="line" name="at01"/>
      <point x="1016" y="1500" type="line"/>
      <point x="1031" y="1478" type="line"/>
      <point x="460" y="300" type="line"/>
      <point x="282" y="120" type="line" name="iv03"/>
      <point x="547" y="160" type="line"/>
    </contour>
  </outline>
</glyph>
<glyph name="Eta" format="1">
  <advance width="1300"/>
  <unicode hex="0397"/>
  <outline>
    <contour>
      <point x="875" y="0" type="line" name="ah01"/>
      <point x="875" y="725" type="line" name="dv01"/>
      <point x="307" y="725" type="line"/>
      <point x="307" y="0" type="line" name="sh02"/>
      <point x="117" y="0" type="line" name="sh01"/>
      <point x="117" y="1290" type="line"/>
      <point x="88" y="1500" type="line"/>
      <point x="307" y="1520" type="line" name="sh03"/>
      <point x="307" y="885" type="line"/>
      <point x="875" y="885" type="line" name="sh04"/>
      <point x="875" y="1500" type="line"/>
      <point x="1065" y="1520" type="line" name="at01"/>
      <point x="1065" y="0" type="line" name="sh05"/>
    </contour>
  </outline>
</glyph>
<glyph name="Theta" format="1">
  <advance width="1200"/>
  <unicode hex="0398"/>
  <outline>
    <contour>
      <point x="360" y="835" type="line"/>
      <point x="900" y="835" type="line"/>
      <point x="880" y="665" type="line"/>
      <point x="340" y="665" type="line"/>
    </contour>
    <contour>
      <point x="624" y="-17" type="qcurve" name="hr01"/>
      <point x="534" y="-17"/>
      <point x="383" y="38"/>
      <point x="260" y="139"/>
      <point x="168" y="279"/>
      <point x="105" y="450"/>
      <point x="74" y="645"/>
      <point x="74" y="750" type="qcurve"/>
      <point x="74" y="855"/>
      <point x="104" y="1050"/>
      <point x="165" y="1221"/>
      <point x="256" y="1361"/>
      <point x="378" y="1462"/>
      <point x="532" y="1517"/>
      <point x="624" y="1517" type="qcurve"/>
      <point x="714" y="1517"/>
      <point x="865" y="1462"/>
      <point x="988" y="1361"/>
      <point x="1080" y="1221"/>
      <point x="1143" y="1050"/>
      <point x="1174" y="855"/>
      <point x="1174" y="750" type="qcurve"/>
      <point x="1174" y="645"/>
      <point x="1144" y="450"/>
      <point x="1083" y="279"/>
      <point x="992" y="139"/>
      <point x="870" y="38"/>
      <point x="716" y="-17"/>
    </contour>
    <contour>
      <point x="966" y="719" type="qcurve"/>
      <point x="966" y="789"/>
      <point x="957" y="935"/>
      <point x="930" y="1074"/>
      <point x="882" y="1197"/>
      <point x="805" y="1288"/>
      <point x="694" y="1342"/>
      <point x="618" y="1342" type="qcurve"/>
      <point x="546" y="1342"/>
      <point x="440" y="1294"/>
      <point x="366" y="1211"/>
      <point x="318" y="1100"/>
      <point x="292" y="976"/>
      <point x="282" y="846"/>
      <point x="282" y="785" type="qcurve"/>
      <point x="282" y="714"/>
      <point x="291" y="566"/>
      <point x="318" y="427"/>
      <point x="366" y="304"/>
      <point x="444" y="212"/>
      <point x="554" y="158"/>
      <point x="630" y="158" type="qcurve"/>
      <point x="701" y="158"/>
      <point x="806" y="207"/>
      <point x="881" y="292"/>
      <point x="929" y="403"/>
      <point x="956" y="528"/>
      <point x="966" y="658"/>
    </contour>
  </outline>
</glyph>
<glyph name="Lambda" format="1">
  <advance width="1300"/>
  <unicode hex="039B"/>
  <outline>
    <contour>
      <point x="675" y="1100" type="line" name="hr00"/>
      <point x="639" y="1360" type="line"/>
      <point x="603" y="1100" type="line"/>
      <point x="246" y="0" type="line"/>
      <point x="62" y="0" type="line"/>
      <point x="485" y="1300" type="line"/>
      <point x="520" y="1500" type="line"/>
      <point x="737" y="1520" type="line"/>
      <point x="1235" y="0" type="line"/>
      <point x="1035" y="0" type="line"/>
    </contour>
  </outline>
</glyph>
<glyph name="Nu" format="1">
  <advance width="1300"/>
  <unicode hex="039D"/>
  <outline>
    <contour>
      <point x="945" y="0" type="line" name="ah01"/>
      <point x="450" y="948" type="line" name="ih03"/>
      <point x="291" y="1361" type="line" name="ih01"/>
      <point x="285" y="1360" type="line" name="fv01"/>
      <point x="350" y="920" type="line" name="fv02"/>
      <point x="350" y="0" type="line" name="sh02"/>
      <point x="170" y="0" type="line" name="sh01"/>
      <point x="170" y="1290" type="line"/>
      <point x="140" y="1500" type="line" name="ih02"/>
      <point x="341" y="1520" type="line" name="at01"/>
      <point x="837" y="557" type="line" name="ih05"/>
      <point x="1003" y="140" type="line" name="ih04"/>
      <point x="1009" y="141" type="line"/>
      <point x="930" y="580" type="line" name="sh04"/>
      <point x="930" y="1500" type="line"/>
      <point x="1110" y="1520" type="line" name="at02"/>
      <point x="1110" y="0" type="line" name="sh03"/>
    </contour>
  </outline>
</glyph>
<glyph name="Xi" format="1">
  <advance width="1300"/>
  <unicode hex="039E"/>
  <outline>
    <contour>
      <point x="200" y="885" type="line"/>
      <point x="1000" y="885" type="line"/>
      <point x="1000" y="711" type="line"/>
      <point x="200" y="711" type="line"/>
    </contour>
    <contour>
      <point x="100" y="174" type="line"/>
      <point x="1100" y="174" type="line"/>
      <point x="1100" y="0" type="line"/>
      <point x="100" y="0" type="line"/>
    </contour>
    <contour>
      <point x="100" y="1500" type="line"/>
      <point x="1100" y="1500" type="line"/>
      <point x="1100" y="1326" type="line"/>
      <point x="100" y="1326" type="line"/>
    </contour>
  </outline>
</glyph>
<glyph name="Rho" format="1">
  <advance width="1300"/>
  <unicode hex="03A1"/>
  <outline>
    <contour>
      <point x="443" y="0" type="line" name="sh02"/>
      <point x="253" y="0" type="line" name="sh01"/>
      <point x="253" y="1290" type="line"/>
      <point x="218" y="1490" type="line"/>
      <point x="248" y="1495"/>
      <point x="329" y="1503"/>
      <point x="419" y="1509"/>
      <point x="511" y="1512"/>
      <point x="550" y="1512" type="qcurve" name="at01"/>
      <point x="720" y="1512"/>
      <point x="967" y="1451"/>
      <point x="1127" y="1342"/>
      <point x="1204" y="1190"/>
      <point x="1204" y="1099" type="qcurve" name="sh03"/>
      <point x="1204" y="964"/>
      <point x="1108" y="782"/>
      <point x="918" y="671"/>
      <point x="632" y="624"/>
      <point x="443" y="624" type="qcurve" name="dv02"/>
    </contour>
    <contour>
      <point x="443" y="1147" type="line" name="sh04"/>
      <point x="443" y="765" type="line" name="dv01"/>
      <point x="595" y="765"/>
      <point x="811" y="799"/>
      <point x="949" y="876"/>
      <point x="1013" y="1002"/>
      <point x="1013" y="1095" type="qcurve" name="ah01"/>
      <point x="1013" y="1162"/>
      <point x="936" y="1265"/>
      <point x="814" y="1334"/>
      <point x="666" y="1370"/>
      <point x="595" y="1370" type="qcurve" name="sv01"/>
      <point x="578" y="1370"/>
      <point x="531" y="1369"/>
      <point x="483" y="1366"/>
      <point x="438" y="1362"/>
      <point x="423" y="1359" type="qcurve"/>
    </contour>
  </outline>
</glyph>
<glyph name="Chi" format="1">
  <advance width="1300"/>
  <unicode hex="03A7"/>
  <outline>
    <contour>
      <point x="978" y="0" type="line" name="sh01"/>
      <point x="701" y="519" type="line" name="fh01"/>
      <point x="624" y="700" type="line" name="ah02"/>
      <point x="576" y="540" type="line" name="fh02"/>
      <point x="268" y="0" type="line" name="sh02"/>
      <point x="70" y="0" type="line" name="fh03"/>
      <point x="533" y="799" type="line" name="fh04"/>
      <point x="127" y="1500" type="line" name="sh04"/>
      <point x="339" y="1520" type="line" name="sh03"/>
      <point x="600" y="1056" type="line" name="fh05"/>
      <point x="680" y="860" type="line" name="ah01"/>
      <point x="715" y="1020" type="line" name="fh06"/>
      <point x="967" y="1500" type="line" name="sh05"/>
      <point x="1167" y="1500" type="line" name="fh07"/>
      <point x="768" y="776" type="line" name="fh08"/>
      <point x="1198" y="0" type="line" name="sh06"/>
    </contour>
  </outline>
</glyph>
<glyph name="Omegagreek" format="1">
  <advance width="1300"/>
  <unicode hex="03A9"/>
  <outline>
    <contour>
      <point x="100" y="160" type="line" name="hr00"/>
      <point x="248" y="160" type="line"/>
      <point x="399" y="100" type="line"/>
      <point x="255" y="239" type="line"/>
      <point x="175" y="316"/>
      <point x="122" y="531"/>
      <point x="122" y="775" type="curve" smooth="yes"/>
      <point x="122" y="1215"/>
      <point x="218" y="1517"/>
      <point x="648" y="1517" type="curve" smooth="yes"/>
      <point x="1068" y="1517"/>
      <point x="1174" y="1215"/>
      <point x="1174" y="775" type="curve" smooth="yes"/>
      <point x="1174" y="532"/>
      <point x="1118" y="317"/>
      <point x="1047" y="242" type="curve"/>
      <point x="897" y="100" type="line"/>
      <point x="1047" y="160" type="line"/>
      <point x="1195" y="160" type="line"/>
      <point x="1195" y="0" type="line"/>
      <point x="747" y="0" type="line"/>
      <point x="747" y="200" type="line"/>
      <point x="935" y="332"/>
      <point x="966" y="485"/>
      <point x="966" y="744" type="curve" smooth="yes"/>
      <point x="966" y="1063"/>
      <point x="906" y="1347"/>
      <point x="642" y="1347" type="curve" smooth="yes"/>
      <point x="394" y="1347"/>
      <point x="330" y="1095"/>
      <point x="330" y="810" type="curve" smooth="yes"/>
      <point x="330" y="512"/>
      <point x="357" y="341"/>
      <point x="548" y="200" type="curve"/>
      <point x="548" y="0" type="line"/>
      <point x="100" y="0" type="line"/>
    </contour>
  </outline>
</glyph>
<glyph name="alpha" format="1">
  <advance width="1300"/>
  <unicode hex="03B1"/>
  <outline>
    <contour>
      <point x="1027" y="996" type="line"/>
      <point x="976" y="958"/>
      <point x="948" y="910"/>
      <point x="945" y="851" type="curve" smooth="yes"/>
      <point x="942" y="792"/>
      <point x="940" y="693"/>
      <point x="940" y="552" type="curve" smooth="yes"/>
      <point x="940" y="409"/>
      <point x="942" y="315"/>
      <point x="945" y="269" type="curve" smooth="yes"/>
      <point x="952" y="177"/>
      <point x="1002" y="121"/>
      <point x="1050" y="121" type="curve" smooth="yes"/>
      <point x="1079" y="121"/>
      <point x="1090" y="123"/>
      <point x="1106" y="126" type="curve"/>
      <point x="1159" y="10" type="line"/>
      <point x="1122" y="-8"/>
      <point x="1082" y="-17"/>
      <point x="1040" y="-17" type="curve" smooth="yes"/>
      <point x="951" y="-17"/>
      <point x="884" y="6"/>
      <point x="839" y="52" type="curve"/>
      <point x="790" y="196" type="line"/>
      <point x="740" y="84" type="line"/>
      <point x="667" y="1"/>
      <point x="605" y="-17"/>
      <point x="519" y="-17" type="curve" smooth="yes"/>
      <point x="224" y="-17"/>
      <point x="100" y="229"/>
      <point x="100" y="553" type="curve" smooth="yes"/>
      <point x="100" y="877"/>
      <point x="214" y="1117"/>
      <point x="519" y="1117" type="curve" smooth="yes"/>
      <point x="604" y="1117"/>
      <point x="671" y="1094"/>
      <point x="743" y="1011" type="curve"/>
      <point x="790" y="900" type="line"/>
      <point x="839" y="1038" type="line"/>
      <point x="864" y="1061"/>
      <point x="898" y="1081"/>
      <point x="940" y="1100" type="curve"/>
    </contour>
    <contour>
      <point x="750" y="526" type="curve" smooth="yes"/>
      <point x="750" y="741"/>
      <point x="740" y="962"/>
      <point x="515" y="962" type="curve" smooth="yes"/>
      <point x="301" y="962"/>
      <point x="290" y="769"/>
      <point x="290" y="572" type="curve" smooth="yes"/>
      <point x="290" y="356"/>
      <point x="299" y="138"/>
      <point x="523" y="138" type="curve" smooth="yes"/>
      <point x="735" y="138"/>
      <point x="750" y="330"/>
    </contour>
  </outline>
</glyph>
<glyph name="delta" format="1">
  <advance width="1300"/>
  <unicode hex="03B4"/>
  <outline>
    <contour>
      <point x="600" y="127" type="curve" smooth="yes"/>
      <point x="769" y="127"/>
      <point x="886" y="300"/>
      <point x="886" y="526" type="curve" smooth="yes"/>
      <point x="886" y="698"/>
      <point x="797" y="921"/>
      <point x="603" y="921" type="curve" smooth="yes"/>
      <point x="411" y="921"/>
      <point x="312" y="780"/>
      <point x="312" y="526" type="curve" smooth="yes"/>
      <point x="312" y="300"/>
      <point x="423" y="127"/>
    </contour>
    <contour>
      <point x="960" y="1500" type="line"/>
      <point x="917" y="1342" type="line"/>
      <point x="565" y="1342" type="line" smooth="yes"/>
      <point x="473" y="1342"/>
      <point x="406" y="1332"/>
      <point x="406" y="1284" type="curve" smooth="yes"/>
      <point x="406" y="1216"/>
      <point x="643" y="1134"/>
      <point x="723" y="1091" type="curve" smooth="yes"/>
      <point x="977" y="955"/>
      <point x="1100" y="808"/>
      <point x="1100" y="526" type="curve" smooth="yes"/>
      <point x="1100" y="239"/>
      <point x="877" y="-17"/>
      <point x="604" y="-17" type="curve" smooth="yes"/>
      <point x="309" y="-17"/>
      <point x="109" y="266"/>
      <point x="109" y="539" type="curve" smooth="yes"/>
      <point x="109" y="720"/>
      <point x="180" y="927"/>
      <point x="397" y="1015" type="curve"/>
      <point x="600" y="1015" type="line"/>
      <point x="499" y="1059" type="line"/>
      <point x="326" y="1116"/>
      <point x="227" y="1172"/>
      <point x="227" y="1289" type="curve" smooth="yes"/>
      <point x="227" y="1490"/>
      <point x="436" y="1500"/>
      <point x="583" y="1500" type="curve" smooth="yes"/>
    </contour>
  </outline>
</glyph>
<glyph name="epsilon" format="1">
  <advance width="1300"/>
  <unicode hex="03B5"/>
  <outline>
    <contour>
      <point x="920" y="633" type="line"/>
      <point x="900" y="500" type="line"/>
      <point x="646" y="500" type="line" smooth="yes"/>
      <point x="549" y="500"/>
      <point x="460" y="417"/>
      <point x="460" y="312" type="curve" smooth="yes"/>
      <point x="460" y="208"/>
      <point x="567" y="137"/>
      <point x="715" y="137" type="curve" smooth="yes"/>
      <point x="872" y="137"/>
      <point x="955" y="200"/>
      <point x="955" y="200" type="curve"/>
      <point x="1045" y="99" type="line"/>
      <point x="1045" y="99"/>
      <point x="956" y="-17"/>
      <point x="675" y="-17" type="curve" smooth="yes"/>
      <point x="491" y="-17"/>
      <point x="270" y="90"/>
      <point x="270" y="313" type="curve" smooth="yes"/>
      <point x="270" y="427"/>
      <point x="321" y="511"/>
      <point x="399" y="564" type="curve"/>
      <point x="321" y="615"/>
      <point x="270" y="696"/>
      <point x="270" y="810" type="curve" smooth="yes"/>
      <point x="270" y="1033"/>
      <point x="491" y="1117"/>
      <point x="675" y="1117" type="curve" smooth="yes"/>
      <point x="825" y="1117"/>
      <point x="954" y="1064"/>
      <point x="954" y="1064" type="curve"/>
      <point x="898" y="944" type="line"/>
      <point x="898" y="944"/>
      <point x="815" y="963"/>
      <point x="715" y="963" type="curve" smooth="yes"/>
      <point x="567" y="963"/>
      <point x="460" y="885"/>
      <point x="460" y="791" type="curve" smooth="yes"/>
      <point x="460" y="705"/>
      <point x="547" y="633"/>
      <point x="646" y="633" type="curve" smooth="yes"/>
    </contour>
  </outline>
</glyph>
<glyph name="zeta" format="1">
  <advance width="1300"/>
  <unicode hex="03B6"/>
  <outline>
    <contour>
      <point x="1020" y="1500" type="line"/>
      <point x="1000" y="1342" type="line"/>
      <point x="760" y="1142"/>
      <point x="412" y="817"/>
      <point x="412" y="517" type="curve" smooth="yes"/>
      <point x="412" y="379"/>
      <point x="443" y="275"/>
      <point x="617" y="164" type="curve" smooth="yes"/>
      <point x="802" y="46"/>
      <point x="996" y="4"/>
      <point x="996" y="-203" type="curve" smooth="yes"/>
      <point x="996" y="-336"/>
      <point x="880" y="-451"/>
      <point x="734" y="-517" type="curve"/>
      <point x="644" y="-386" type="line"/>
      <point x="729" y="-342"/>
      <point x="800" y="-286"/>
      <point x="800" y="-222" type="curve" smooth="yes"/>
      <point x="800" y="-102"/>
      <point x="649" y="-56"/>
      <point x="500" y="30" type="curve" smooth="yes"/>
      <point x="313" y="138"/>
      <point x="215" y="279"/>
      <point x="215" y="492" type="curve" smooth="yes"/>
      <point x="215" y="795"/>
      <point x="410" y="1083"/>
      <point x="545" y="1224" type="curve"/>
      <point x="808" y="1369" type="line"/>
      <point x="640" y="1342" type="line"/>
      <point x="280" y="1342" type="line"/>
      <point x="300" y="1500" type="line"/>
    </contour>
  </outline>
</glyph>
<glyph name="eta" format="1">
  <advance width="1300"/>
  <unicode hex="03B7"/>
  <outline>
    <contour>
      <point x="390" y="0" type="line" name="hr00"/>
      <point x="200" y="0" type="line"/>
      <point x="200" y="1100" type="line"/>
      <point x="390" y="1120" type="line"/>
      <point x="390" y="937" type="line"/>
      <point x="451" y="1044" type="line"/>
      <point x="499" y="1076"/>
      <point x="605" y="1117"/>
      <point x="715" y="1117" type="curve" smooth="yes"/>
      <point x="927" y="1117"/>
      <point x="1000" y="975"/>
      <point x="1000" y="750" type="curve" smooth="yes"/>
      <point x="1000" y="-500" type="line"/>
      <point x="810" y="-500" type="line"/>
      <point x="810" y="750" type="line" smooth="yes"/>
      <point x="810" y="894"/>
      <point x="774" y="957"/>
      <point x="650" y="957" type="curve" smooth="yes"/>
      <point x="560" y="957"/>
      <point x="460" y="895"/>
      <point x="390" y="844" type="curve"/>
    </contour>
  </outline>
</glyph>
<glyph name="lambda" format="1">
  <advance width="1300"/>
  <unicode hex="03BB"/>
  <outline>
    <contour>
      <point x="650" y="968" type="line" name="hr00"/>
      <point x="598" y="736" type="line"/>
      <point x="330" y="0" type="line"/>
      <point x="134" y="0" type="line"/>
      <point x="551" y="1147" type="line"/>
      <point x="498" y="1279"/>
      <point x="418" y="1428"/>
      <point x="330" y="1428" type="curve" smooth="yes"/>
      <point x="298" y="1428"/>
      <point x="268" y="1412"/>
      <point x="245" y="1396" type="curve"/>
      <point x="172" y="1503" type="line"/>
      <point x="227" y="1551"/>
      <point x="294" y="1580"/>
      <point x="362" y="1580" type="curve" smooth="yes"/>
      <point x="544" y="1580"/>
      <point x="661" y="1342"/>
      <point x="742" y="1117" type="curve" smooth="yes"/>
      <point x="1145" y="0" type="line"/>
      <point x="971" y="0" type="line"/>
      <point x="702" y="736" type="line"/>
    </contour>
  </outline>
</glyph>
<glyph name="nu" format="1">
  <advance width="1300"/>
  <unicode hex="03BD"/>
  <outline>
    <contour>
      <point x="774" y="0" type="line"/>
      <point x="1156" y="1100" type="line"/>
      <point x="965" y="1100" type="line"/>
      <point x="688" y="295" type="line"/>
      <point x="640" y="75" type="line"/>
      <point x="594" y="295" type="line"/>
      <point x="317" y="1100" type="line"/>
      <point x="124" y="1100" type="line"/>
      <point x="507" y="0" type="line"/>
    </contour>
  </outline>
</glyph>
<glyph name="omicron" format="1">
  <advance width="1300"/>
  <unicode hex="03BF"/>
  <outline>
    <contour>
      <point x="649" y="-17" type="qcurve" name="ab01"/>
      <point x="538" y="-17"/>
      <point x="353" y="70"/>
      <point x="219" y="223"/>
      <point x="144" y="431"/>
      <point x="144" y="553" type="qcurve" name="sh01"/>
      <point x="144" y="674"/>
      <point x="216" y="881"/>
      <point x="348" y="1032"/>
      <point x="535" y="1117"/>
      <point x="649" y="1117" type="qcurve" name="av01"/>
      <point x="760" y="1117"/>
      <point x="942" y="1032"/>
      <point x="1073" y="881"/>
      <point x="1145" y="674"/>
      <point x="1145" y="553" type="qcurve" name="sh02"/>
      <point x="1145" y="431"/>
      <point x="1076" y="223"/>
      <point x="947" y="70"/>
      <point x="763" y="-17"/>
    </contour>
    <contour>
      <point x="955" y="526" type="qcurve" name="ah01"/>
      <point x="955" y="607"/>
      <point x="921" y="763"/>
      <point x="847" y="886"/>
      <point x="729" y="962"/>
      <point x="645" y="962" type="qcurve" name="sv01"/>
      <point x="565" y="962"/>
      <point x="447" y="896"/>
      <point x="371" y="786"/>
      <point x="334" y="646"/>
      <point x="334" y="572" type="qcurve" name="sh03"/>
      <point x="334" y="491"/>
      <point x="371" y="335"/>
      <point x="448" y="213"/>
      <point x="569" y="138"/>
      <point x="653" y="138" type="qcurve" name="sv02"/>
      <point x="732" y="138"/>
      <point x="847" y="204"/>
      <point x="920" y="313"/>
      <point x="955" y="452"/>
    </contour>
  </outline>
</glyph>
<glyph name="tau" format="1">
  <advance width="1300"/>
  <unicode hex="03C4"/>
  <outline>
    <contour>
      <point x="1080" y="942" type="line"/>
      <point x="1100" y="1100" type="line"/>
      <point x="220" y="1100" type="line"/>
      <point x="200" y="942" type="line"/>
      <point x="567" y="942" type="line"/>
      <point x="567" y="303" type="line" smooth="yes"/>
      <point x="567" y="150"/>
      <point x="582" y="47"/>
      <point x="647" y="0" type="curve"/>
      <point x="858" y="0" type="line"/>
      <point x="779" y="108"/>
      <point x="759" y="164"/>
      <point x="759" y="265" type="curve" smooth="yes"/>
      <point x="759" y="942" type="line"/>
    </contour>
  </outline>
</glyph>
<glyph name="upsilon" format="1">
  <advance width="1300"/>
  <unicode hex="03C5"/>
  <outline>
    <contour>
      <point x="599" y="497" type="line"/>
      <point x="599" y="257"/>
      <point x="611" y="129"/>
      <point x="789" y="129" type="curve" smooth="yes"/>
      <point x="963" y="129"/>
      <point x="979" y="250"/>
      <point x="979" y="400" type="curve" smooth="yes"/>
      <point x="979" y="732" type="line" smooth="yes"/>
      <point x="979" y="946"/>
      <point x="841" y="1007"/>
      <point x="779" y="1007" type="curve"/>
      <point x="779" y="1117" type="line"/>
      <point x="1000" y="1117"/>
      <point x="1169" y="983"/>
      <point x="1169" y="759" type="curve" smooth="yes"/>
      <point x="1169" y="460"/>
      <point x="1167" y="428"/>
      <point x="1167" y="391" type="curve" smooth="yes"/>
      <point x="1167" y="218"/>
      <point x="1139" y="-17"/>
      <point x="789" y="-17" type="curve" smooth="yes"/>
      <point x="435" y="-17"/>
      <point x="411" y="238"/>
      <point x="411" y="416" type="curve" smooth="yes"/>
      <point x="411" y="845" type="line" smooth="yes"/>
      <point x="411" y="925"/>
      <point x="385" y="974"/>
      <point x="323" y="974" type="curve" smooth="yes"/>
      <point x="258" y="974"/>
      <point x="214" y="925"/>
      <point x="214" y="845" type="curve"/>
      <point x="100" y="845" type="line"/>
      <point x="100" y="980"/>
      <point x="182" y="1117"/>
      <point x="331" y="1117" type="curve" smooth="yes"/>
      <point x="490" y="1117"/>
      <point x="599" y="1007"/>
      <point x="599" y="845" type="curve" smooth="yes"/>
    </contour>
  </outline>
</glyph>
<glyph name="psi" format="1">
  <advance width="1300"/>
  <unicode hex="03C8"/>
  <outline>
    <contour>
      <point x="100" y="495" type="line"/>
      <point x="100" y="337"/>
      <point x="111" y="-17"/>
      <point x="500" y="-17" type="curve" smooth="yes"/>
      <point x="548" y="-17" type="line"/>
      <point x="548" y="-500" type="line"/>
      <point x="740" y="-500" type="line"/>
      <point x="740" y="-17" type="line"/>
      <point x="800" y="-17" type="line" smooth="yes"/>
      <point x="1189" y="-17"/>
      <point x="1200" y="337"/>
      <point x="1200" y="495" type="curve" smooth="yes"/>
      <point x="1200" y="699" type="line" smooth="yes"/>
      <point x="1200" y="923"/>
      <point x="1114" y="1117"/>
      <point x="893" y="1117" type="curve"/>
      <point x="893" y="1007" type="line"/>
      <point x="998" y="1007"/>
      <point x="1010" y="886"/>
      <point x="1010" y="672" type="curve" smooth="yes"/>
      <point x="1010" y="497" type="line" smooth="yes"/>
      <point x="1010" y="306"/>
      <point x="981" y="128"/>
      <point x="800" y="128" type="curve"/>
      <point x="740" y="128" type="line"/>
      <point x="740" y="1120" type="line"/>
      <point x="548" y="1100" type="line"/>
      <point x="548" y="128" type="line"/>
      <point x="509" y="128"/>
      <point x="500" y="129"/>
      <point x="500" y="129" type="curve"/>
      <point x="319" y="129"/>
      <point x="290" y="306"/>
      <point x="290" y="497" type="curve" smooth="yes"/>
      <point x="290" y="820" type="line"/>
      <point x="100" y="800" type="line"/>
    </contour>
  </outline>
</glyph>
<glyph name="omega" format="1">
  <advance width="1300"/>
  <unicode hex="03C9"/>
  <outline>
    <contour>
      <point x="607" y="745" type="line"/>
      <point x="607" y="482" type="line" smooth="yes"/>
      <point x="607" y="292"/>
      <point x="602" y="129"/>
      <point x="461" y="129" type="curve" smooth="yes"/>
      <point x="302" y="129"/>
      <point x="301" y="296"/>
      <point x="301" y="530" type="curve"/>
      <point x="301" y="900"/>
      <point x="448" y="1007"/>
      <point x="510" y="1007" type="curve"/>
      <point x="510" y="1117" type="line"/>
      <point x="289" y="1117"/>
      <point x="111" y="860"/>
      <point x="111" y="560" type="curve" smooth="yes"/>
      <point x="111" y="457" type="line"/>
      <point x="111" y="239"/>
      <point x="134" y="-17"/>
      <point x="461" y="-17" type="curve" smooth="yes"/>
      <point x="595" y="-17"/>
      <point x="661" y="40"/>
      <point x="700" y="120" type="curve"/>
      <point x="739" y="40"/>
      <point x="805" y="-17"/>
      <point x="940" y="-17" type="curve" smooth="yes"/>
      <point x="1267" y="-17"/>
      <point x="1290" y="238"/>
      <point x="1290" y="457" type="curve" smooth="yes"/>
      <point x="1290" y="560" type="line"/>
      <point x="1290" y="860"/>
      <point x="1102" y="1117"/>
      <point x="881" y="1117" type="curve"/>
      <point x="881" y="1007" type="line"/>
      <point x="943" y="1007"/>
      <point x="1100" y="900"/>
      <point x="1100" y="530" type="curve"/>
      <point x="1100" y="296"/>
      <point x="1099" y="129"/>
      <point x="940" y="129" type="curve" smooth="yes"/>
      <point x="799" y="129"/>
      <point x="794" y="292"/>
      <point x="794" y="482" type="curve" smooth="yes"/>
      <point x="794" y="725" type="line"/>
    </contour>
  </outline>
</glyph>
<glyph name="theta1" format="1">
  <advance width="1300"/>
  <unicode hex="03D1"/>
  <outline>
    <contour>
      <point x="309" y="484" type="line"/>
      <point x="349" y="304"/>
      <point x="388" y="146"/>
      <point x="550" y="146" type="curve" smooth="yes"/>
      <point x="742" y="146"/>
      <point x="805" y="371"/>
      <point x="824" y="650" type="curve"/>
      <point x="450" y="650" type="line" smooth="yes"/>
      <point x="241" y="650"/>
      <point x="100" y="700"/>
      <point x="100" y="980" type="curve" smooth="yes"/>
      <point x="100" y="1230"/>
      <point x="250" y="1517"/>
      <point x="550" y="1517" type="curve" smooth="yes"/>
      <point x="902" y="1517"/>
      <point x="987" y="1139"/>
      <point x="999" y="800" type="curve"/>
      <point x="1222" y="800" type="line"/>
      <point x="1202" y="650" type="line"/>
      <point x="996" y="650" type="line"/>
      <point x="973" y="324"/>
      <point x="885" y="-17"/>
      <point x="550" y="-17" type="curve" smooth="yes"/>
      <point x="302" y="-17"/>
      <point x="214" y="170"/>
      <point x="147" y="397" type="curve"/>
    </contour>
    <contour>
      <point x="550" y="1354" type="curve" smooth="yes"/>
      <point x="350" y="1354"/>
      <point x="271" y="1161"/>
      <point x="271" y="972" type="curve" smooth="yes"/>
      <point x="271" y="800"/>
      <point x="350" y="800"/>
      <point x="550" y="800" type="curve" smooth="yes"/>
      <point x="825" y="800" type="line"/>
      <point x="812" y="1092"/>
      <point x="759" y="1354"/>
    </contour>
  </outline>
</glyph>
<glyph name="omega1" format="1">
  <advance width="1300"/>
  <unicode hex="03D6"/>
  <outline>
    <contour>
      <point x="1297" y="1100" type="line"/>
      <point x="137" y="1100" type="line"/>
      <point x="117" y="942" type="line"/>
      <point x="285" y="942" type="line"/>
      <point x="197" y="885" type="line"/>
      <point x="155" y="810"/>
      <point x="111" y="723"/>
      <point x="111" y="495" type="curve" smooth="yes"/>
      <point x="111" y="444" type="line"/>
      <point x="111" y="271"/>
      <point x="128" y="-17"/>
      <point x="461" y="-17" type="curve" smooth="yes"/>
      <point x="605" y="-17"/>
      <point x="661" y="40"/>
      <point x="700" y="120" type="curve"/>
      <point x="739" y="40"/>
      <point x="795" y="-17"/>
      <point x="940" y="-17" type="curve" smooth="yes"/>
      <point x="1273" y="-17"/>
      <point x="1290" y="271"/>
      <point x="1290" y="444" type="curve" smooth="yes"/>
      <point x="1290" y="495" type="line"/>
      <point x="1290" y="723"/>
      <point x="1246" y="810"/>
      <point x="1204" y="885" type="curve"/>
      <point x="1116" y="942" type="line"/>
      <point x="1277" y="942" type="line"/>
    </contour>
    <contour>
      <point x="607" y="745" type="line"/>
      <point x="607" y="464" type="line"/>
      <point x="607" y="282"/>
      <point x="607" y="129"/>
      <point x="461" y="129" type="curve" smooth="yes"/>
      <point x="320" y="129"/>
      <point x="301" y="306"/>
      <point x="301" y="497" type="curve" smooth="yes"/>
      <point x="301" y="785"/>
      <point x="355" y="889"/>
      <point x="411" y="942" type="curve"/>
      <point x="989" y="942" type="line"/>
      <point x="1045" y="889"/>
      <point x="1100" y="785"/>
      <point x="1100" y="497" type="curve" smooth="yes"/>
      <point x="1100" y="306"/>
      <point x="1081" y="129"/>
      <point x="940" y="129" type="curve" smooth="yes"/>
      <point x="794" y="129"/>
      <point x="794" y="282"/>
      <point x="794" y="464" type="curve"/>
      <point x="794" y="725" type="line"/>
    </contour>
  </outline>
</glyph>
<glyph name="hyphentwo" format="1">
  <advance width="1300"/>
  <unicode hex="2010"/>
  <outline>
    <contour>
      <point x="400" y="600" type="line"/>
      <point x="900" y="600" type="line"/>
      <point x="900" y="445" type="line"/>
      <point x="400" y="445" type="line"/>
    </contour>
  </outline>
</glyph>
<glyph name="doubleverticalline" format="1">
  <advance width="1300"/>
  <unicode hex="2016"/>
  <outline>
    <contour>
      <point x="555" y="1500" type="line" name="sh02"/>
      <point x="555" y="0" type="line" name="sh01"/>
      <point x="400" y="0" type="line" name="ah01"/>
      <point x="400" y="1500" type="line"/>
    </contour>
    <contour>
      <point x="855" y="1500" type="line" name="sh04"/>
      <point x="855" y="0" type="line" name="sh03"/>
      <point x="700" y="0" type="line" name="ah02"/>
      <point x="700" y="1500" type="line"/>
    </contour>
  </outline>
</glyph>
<glyph name="quoteright" format="1">
  <advance width="1300"/>
  <unicode hex="2019"/>
  <outline>
    <contour>
      <point x="700" y="1520" type="line"/>
      <point x="950" y="1500" type="line" name="ah02"/>
      <point x="600" y="1200" type="line" name="sh01"/>
      <point x="400" y="1200" type="line" name="ah01"/>
    </contour>
  </outline>
</glyph>
<glyph name="bullet" format="1">
  <advance width="1300"/>
  <unicode hex="2022"/>
  <outline>
    <contour>
      <point x="398" y="807" type="qcurve"/>
      <point x="398" y="867"/>
      <point x="445" y="974"/>
      <point x="525" y="1053"/>
      <point x="632" y="1100"/>
      <point x="692" y="1100" type="qcurve"/>
      <point x="752" y="1100"/>
      <point x="859" y="1053"/>
      <point x="939" y="974"/>
      <point x="986" y="867"/>
      <point x="986" y="807" type="qcurve"/>
      <point x="986" y="747"/>
      <point x="940" y="638"/>
      <point x="861" y="556"/>
      <point x="755" y="508"/>
      <point x="695" y="508" type="qcurve"/>
      <point x="635" y="508"/>
      <point x="527" y="556"/>
      <point x="446" y="638"/>
      <point x="398" y="747"/>
    </contour>
  </outline>
</glyph>
<glyph name="perthousand" format="1">
  <advance width="2600"/>
  <unicode hex="2030"/>
  <outline>
    <contour>
      <point x="1542" y="-17" type="qcurve"/>
      <point x="1472" y="-17"/>
      <point x="1373" y="38"/>
      <point x="1311" y="135"/>
      <point x="1283" y="268"/>
      <point x="1283" y="345" type="qcurve"/>
      <point x="1283" y="421"/>
      <point x="1309" y="552"/>
      <point x="1370" y="646"/>
      <point x="1469" y="700"/>
      <point x="1542" y="700" type="qcurve"/>
      <point x="1612" y="700"/>
      <point x="1710" y="646"/>
      <point x="1772" y="552"/>
      <point x="1800" y="421"/>
      <point x="1800" y="345" type="qcurve"/>
      <point x="1800" y="268"/>
      <point x="1773" y="135"/>
      <point x="1713" y="38"/>
      <point x="1614" y="-17"/>
    </contour>
    <contour>
      <point x="1651" y="393" type="line"/>
      <point x="1651" y="428"/>
      <point x="1645" y="492"/>
      <point x="1623" y="540"/>
      <point x="1579" y="569"/>
      <point x="1541" y="569" type="qcurve"/>
      <point x="1504" y="569"/>
      <point x="1462" y="543"/>
      <point x="1441" y="499"/>
      <point x="1435" y="440"/>
      <point x="1435" y="407" type="qcurve"/>
      <point x="1435" y="306" type="line"/>
      <point x="1435" y="270"/>
      <point x="1441" y="205"/>
      <point x="1463" y="156"/>
      <point x="1508" y="127"/>
      <point x="1546" y="127" type="qcurve"/>
      <point x="1582" y="127"/>
      <point x="1624" y="153"/>
      <point x="1645" y="197"/>
      <point x="1651" y="256"/>
      <point x="1651" y="288" type="qcurve"/>
    </contour>
    <contour>
      <point x="395" y="0" type="line"/>
      <point x="229" y="0" type="line"/>
      <point x="905" y="1500" type="line"/>
      <point x="1071" y="1500" type="line"/>
    </contour>
    <contour>
      <point x="359" y="800" type="qcurve"/>
      <point x="289" y="800"/>
      <point x="190" y="855"/>
      <point x="128" y="952"/>
      <point x="100" y="1085"/>
      <point x="100" y="1162" type="qcurve"/>
      <point x="100" y="1238"/>
      <point x="126" y="1369"/>
      <point x="187" y="1463"/>
      <point x="286" y="1517"/>
      <point x="359" y="1517" type="qcurve"/>
      <point x="429" y="1517"/>
      <point x="527" y="1463"/>
      <point x="589" y="1369"/>
      <point x="617" y="1238"/>
      <point x="617" y="1162" type="qcurve"/>
      <point x="617" y="1085"/>
      <point x="590" y="952"/>
      <point x="530" y="855"/>
      <point x="431" y="800"/>
    </contour>
    <contour>
      <point x="468" y="1210" type="line"/>
      <point x="468" y="1245"/>
      <point x="462" y="1309"/>
      <point x="440" y="1357"/>
      <point x="396" y="1386"/>
      <point x="358" y="1386" type="qcurve"/>
      <point x="321" y="1386"/>
      <point x="279" y="1360"/>
      <point x="258" y="1316"/>
      <point x="252" y="1257"/>
      <point x="252" y="1224" type="qcurve"/>
      <point x="252" y="1123" type="line"/>
      <point x="252" y="1087"/>
      <point x="258" y="1022"/>
      <point x="280" y="973"/>
      <point x="325" y="944"/>
      <point x="363" y="944" type="qcurve"/>
      <point x="399" y="944"/>
      <point x="441" y="970"/>
      <point x="462" y="1014"/>
      <point x="468" y="1073"/>
      <point x="468" y="1105" type="qcurve"/>
    </contour>
    <contour>
      <point x="942" y="-17" type="qcurve"/>
      <point x="872" y="-17"/>
      <point x="773" y="38"/>
      <point x="711" y="135"/>
      <point x="683" y="268"/>
      <point x="683" y="345" type="qcurve"/>
      <point x="683" y="421"/>
      <point x="709" y="552"/>
      <point x="770" y="646"/>
      <point x="869" y="700"/>
      <point x="942" y="700" type="qcurve"/>
      <point x="1012" y="700"/>
      <point x="1110" y="646"/>
      <point x="1172" y="552"/>
      <point x="1200" y="421"/>
      <point x="1200" y="345" type="qcurve"/>
      <point x="1200" y="268"/>
      <point x="1173" y="135"/>
      <point x="1113" y="38"/>
      <point x="1014" y="-17"/>
    </contour>
    <contour>
      <point x="1051" y="393" type="line"/>
      <point x="1051" y="428"/>
      <point x="1045" y="492"/>
      <point x="1023" y="540"/>
      <point x="979" y="569"/>
      <point x="941" y="569" type="qcurve"/>
      <point x="904" y="569"/>
      <point x="862" y="543"/>
      <point x="841" y="499"/>
      <point x="835" y="440"/>
      <point x="835" y="407" type="qcurve"/>
      <point x="835" y="306" type="line"/>
      <point x="835" y="270"/>
      <point x="841" y="205"/>
      <point x="863" y="156"/>
      <point x="908" y="127"/>
      <point x="946" y="127" type="qcurve"/>
      <point x="982" y="127"/>
      <point x="1024" y="153"/>
      <point x="1045" y="197"/>
      <point x="1051" y="256"/>
      <point x="1051" y="288" type="qcurve"/>
    </contour>
  </outline>
</glyph>
<glyph name="prime" format="1">
  <advance width="1300"/>
  <unicode hex="2032"/>
  <outline>
    <contour>
      <point x="448" y="1245" type="line"/>
      <point x="284" y="885" type="line"/>
      <point x="199" y="885" type="line"/>
      <point x="269" y="1245" type="line"/>
      <point x="269" y="1520" type="line"/>
      <point x="448" y="1500" type="line"/>
    </contour>
  </outline>
</glyph>
<glyph name="doubleprime" format="1">
  <advance width="1300"/>
  <unicode hex="2033"/>
  <outline>
    <contour>
      <point x="448" y="1245" type="line"/>
      <point x="284" y="885" type="line"/>
      <point x="199" y="885" type="line"/>
      <point x="269" y="1245" type="line"/>
      <point x="269" y="1520" type="line"/>
      <point x="448" y="1500" type="line"/>
    </contour>
    <contour>
      <point x="748" y="1245" type="line"/>
      <point x="584" y="885" type="line"/>
      <point x="499" y="885" type="line"/>
      <point x="569" y="1245" type="line"/>
      <point x="569" y="1520" type="line"/>
      <point x="748" y="1500" type="line"/>
    </contour>
  </outline>
</glyph>
<glyph name="reversedprime" format="1">
  <advance width="1300"/>
  <unicode hex="2035"/>
  <outline>
    <contour>
      <point x="252" y="1245" type="line"/>
      <point x="416" y="885" type="line"/>
      <point x="501" y="885" type="line"/>
      <point x="431" y="1245" type="line"/>
      <point x="431" y="1520" type="line"/>
      <point x="252" y="1500" type="line"/>
    </contour>
  </outline>
</glyph>
<glyph name="guilsinglleft" format="1">
  <advance width="1300"/>
  <unicode hex="2039"/>
  <outline>
    <contour>
      <point x="870" y="1026" type="line" name="av01"/>
      <point x="920" y="901" type="line" name="sv01"/>
      <point x="595" y="610" type="line"/>
      <point x="457" y="550" type="line" name="iv01"/>
      <point x="594" y="490" type="line"/>
      <point x="922" y="201" type="line" name="sv02"/>
      <point x="868" y="66" type="line" name="av02"/>
      <point x="400" y="478" type="line" name="dv02"/>
      <point x="400" y="617" type="line" name="dv01"/>
    </contour>
  </outline>
</glyph>
<glyph name="asterism" format="1">
  <advance width="1300"/>
  <unicode hex="2042"/>
  <outline>
    <contour>
      <point x="684" y="1118" type="line"/>
      <point x="723" y="1120" type="line"/>
      <point x="844" y="1159" type="line"/>
      <point x="817" y="1220" type="line"/>
      <point x="705" y="1184" type="line"/>
      <point x="672" y="1159" type="line"/>
      <point x="685" y="1199" type="line"/>
      <point x="685" y="1325" type="line"/>
      <point x="618" y="1318" type="line"/>
      <point x="618" y="1201" type="line"/>
      <point x="629" y="1160" type="line"/>
      <point x="596" y="1186" type="line"/>
      <point x="477" y="1224" type="line"/>
      <point x="464" y="1159" type="line"/>
      <point x="575" y="1122" type="line"/>
      <point x="616" y="1120" type="line"/>
      <point x="583" y="1098" type="line"/>
      <point x="509" y="996" type="line"/>
      <point x="567" y="963" type="line"/>
      <point x="637" y="1059" type="line"/>
      <point x="649" y="1095" type="line"/>
      <point x="661" y="1059" type="line"/>
      <point x="736" y="956" type="line"/>
      <point x="785" y="1001" type="line"/>
      <point x="715" y="1097" type="line"/>
    </contour>
    <contour>
      <point x="984" y="518" type="line"/>
      <point x="1023" y="520" type="line"/>
      <point x="1144" y="559" type="line"/>
      <point x="1117" y="620" type="line"/>
      <point x="1005" y="584" type="line"/>
      <point x="972" y="559" type="line"/>
      <point x="985" y="599" type="line"/>
      <point x="985" y="725" type="line"/>
      <point x="918" y="718" type="line"/>
      <point x="918" y="601" type="line"/>
      <point x="929" y="560" type="line"/>
      <point x="896" y="586" type="line"/>
      <point x="777" y="624" type="line"/>
      <point x="764" y="559" type="line"/>
      <point x="875" y="522" type="line"/>
      <point x="916" y="520" type="line"/>
      <point x="883" y="498" type="line"/>
      <point x="809" y="396" type="line"/>
      <point x="867" y="363" type="line"/>
      <point x="937" y="459" type="line"/>
      <point x="949" y="495" type="line"/>
      <point x="961" y="459" type="line"/>
      <point x="1036" y="356" type="line"/>
      <point x="1085" y="401" type="line"/>
      <point x="1015" y="497" type="line"/>
    </contour>
    <contour>
      <point x="384" y="518" type="line"/>
      <point x="423" y="520" type="line"/>
      <point x="544" y="559" type="line"/>
      <point x="517" y="620" type="line"/>
      <point x="405" y="584" type="line"/>
      <point x="372" y="559" type="line"/>
      <point x="385" y="599" type="line"/>
      <point x="385" y="725" type="line"/>
      <point x="318" y="718" type="line"/>
      <point x="318" y="601" type="line"/>
      <point x="329" y="560" type="line"/>
      <point x="296" y="586" type="line"/>
      <point x="177" y="624" type="line"/>
      <point x="164" y="559" type="line"/>
      <point x="275" y="522" type="line"/>
      <point x="316" y="520" type="line"/>
      <point x="283" y="498" type="line"/>
      <point x="209" y="396" type="line"/>
      <point x="267" y="363" type="line"/>
      <point x="337" y="459" type="line"/>
      <point x="349" y="495" type="line"/>
      <point x="361" y="459" type="line"/>
      <point x="436" y="356" type="line"/>
      <point x="485" y="401" type="line"/>
      <point x="415" y="497" type="line"/>
    </contour>
  </outline>
</glyph>
<glyph name="twoasterisksvertical" format="1">
  <advance width="1300"/>
  <unicode hex="2051"/>
  <outline>
    <contour>
      <point x="684" y="1118" type="line"/>
      <point x="723" y="1120" type="line"/>
      <point x="844" y="1159" type="line"/>
      <point x="817" y="1220" type="line"/>
      <point x="705" y="1184" type="line"/>
      <point x="672" y="1159" type="line"/>
      <point x="685" y="1199" type="line"/>
      <point x="685" y="1325" type="line"/>
      <point x="618" y="1318" type="line"/>
      <point x="618" y="1201" type="line"/>
      <point x="629" y="1160" type="line"/>
      <point x="596" y="1186" type="line"/>
      <point x="477" y="1224" type="line"/>
      <point x="464" y="1159" type="line"/>
      <point x="575" y="1122" type="line"/>
      <point x="616" y="1120" type="line"/>
      <point x="583" y="1098" type="line"/>
      <point x="509" y="996" type="line"/>
      <point x="567" y="963" type="line"/>
      <point x="637" y="1059" type="line"/>
      <point x="649" y="1095" type="line"/>
      <point x="661" y="1059" type="line"/>
      <point x="736" y="956" type="line"/>
      <point x="785" y="1001" type="line"/>
      <point x="715" y="1097" type="line"/>
    </contour>
    <contour>
      <point x="684" y="518" type="line"/>
      <point x="723" y="520" type="line"/>
      <point x="844" y="559" type="line"/>
      <point x="817" y="620" type="line"/>
      <point x="705" y="584" type="line"/>
      <point x="672" y="559" type="line"/>
      <point x="685" y="599" type="line"/>
      <point x="685" y="725" type="line"/>
      <point x="618" y="718" type="line"/>
      <point x="618" y="601" type="line"/>
      <point x="629" y="560" type="line"/>
      <point x="596" y="586" type="line"/>
      <point x="477" y="624" type="line"/>
      <point x="464" y="559" type="line"/>
      <point x="575" y="522" type="line"/>
      <point x="616" y="520" type="line"/>
      <point x="583" y="498" type="line"/>
      <point x="509" y="396" type="line"/>
      <point x="567" y="363" type="line"/>
      <point x="637" y="459" type="line"/>
      <point x="649" y="495" type="line"/>
      <point x="661" y="459" type="line"/>
      <point x="736" y="356" type="line"/>
      <point x="785" y="401" type="line"/>
      <point x="715" y="497" type="line"/>
    </contour>
  </outline>
</glyph>
<glyph name="zerosuperior" format="1">
  <advance width="1300"/>
  <unicode hex="2070"/>
  <outline>
    <contour>
      <point x="615" y="711" type="qcurve" name="hr00"/>
      <point x="573" y="711"/>
      <point x="502" y="744"/>
      <point x="445" y="800"/>
      <point x="403" y="875"/>
      <point x="374" y="960"/>
      <point x="360" y="1051"/>
      <point x="360" y="1095" type="qcurve"/>
      <point x="360" y="1140"/>
      <point x="372" y="1232"/>
      <point x="398" y="1317"/>
      <point x="439" y="1391"/>
      <point x="495" y="1446"/>
      <point x="569" y="1478"/>
      <point x="615" y="1478" type="qcurve"/>
      <point x="658" y="1478"/>
      <point x="729" y="1446"/>
      <point x="785" y="1390"/>
      <point x="828" y="1315"/>
      <point x="856" y="1229"/>
      <point x="870" y="1138"/>
      <point x="870" y="1095" type="qcurve"/>
      <point x="870" y="1050"/>
      <point x="858" y="958"/>
      <point x="832" y="873"/>
      <point x="792" y="798"/>
      <point x="735" y="743"/>
      <point x="661" y="711"/>
    </contour>
    <contour>
      <point x="464" y="1116" type="qcurve"/>
      <point x="464" y="1087"/>
      <point x="468" y="1018"/>
      <point x="480" y="947"/>
      <point x="501" y="881"/>
      <point x="536" y="830"/>
      <point x="585" y="799"/>
      <point x="619" y="799" type="qcurve"/>
      <point x="650" y="799"/>
      <point x="695" y="822"/>
      <point x="728" y="863"/>
      <point x="749" y="916"/>
      <point x="762" y="977"/>
      <point x="767" y="1042"/>
      <point x="767" y="1073" type="qcurve"/>
      <point x="767" y="1102"/>
      <point x="763" y="1172"/>
      <point x="751" y="1242"/>
      <point x="729" y="1308"/>
      <point x="695" y="1359"/>
      <point x="645" y="1390"/>
      <point x="611" y="1390" type="qcurve"/>
      <point x="581" y="1390"/>
      <point x="535" y="1367"/>
      <point x="502" y="1327"/>
      <point x="481" y="1273"/>
      <point x="469" y="1212"/>
      <point x="464" y="1147"/>
    </contour>
  </outline>
</glyph>
<glyph name="superscriptsmalli" format="1">
  <advance width="1300"/>
  <unicode hex="2071"/>
  <outline>
    <contour>
      <point x="356" y="1470" type="line" name="hr00"/>
      <point x="457" y="1470" type="line"/>
      <point x="457" y="1370" type="line"/>
      <point x="356" y="1370" type="line"/>
    </contour>
    <contour>
      <point x="454" y="916" type="line"/>
      <point x="454" y="890"/>
      <point x="461" y="846"/>
      <point x="476" y="814"/>
      <point x="501" y="796"/>
      <point x="519" y="796" type="qcurve"/>
      <point x="544" y="796"/>
      <point x="590" y="804"/>
      <point x="627" y="815"/>
      <point x="652" y="824"/>
      <point x="655" y="825" type="qcurve"/>
      <point x="674" y="748" type="line"/>
      <point x="671" y="746"/>
      <point x="645" y="734"/>
      <point x="603" y="722"/>
      <point x="547" y="711"/>
      <point x="514" y="711" type="qcurve"/>
      <point x="465" y="711"/>
      <point x="405" y="743"/>
      <point x="371" y="800"/>
      <point x="359" y="877"/>
      <point x="359" y="921" type="qcurve"/>
      <point x="359" y="1180" type="line"/>
      <point x="379" y="1210" type="line"/>
      <point x="309" y="1190" type="line"/>
      <point x="209" y="1190" type="line"/>
      <point x="199" y="1270" type="line"/>
      <point x="454" y="1270" type="line"/>
      <point x="454" y="970" type="line"/>
    </contour>
  </outline>
</glyph>
<glyph name="superscriptfour" format="1">
  <advance width="1300"/>
  <unicode hex="2074"/>
  <outline>
    <contour>
      <point x="667" y="870" type="line" name="hr00"/>
      <point x="577" y="870" type="line"/>
      <point x="577" y="720" type="line"/>
      <point x="472" y="720" type="line"/>
      <point x="472" y="870" type="line"/>
      <point x="174" y="870" type="line"/>
      <point x="174" y="955" type="line"/>
      <point x="416" y="1480" type="line"/>
      <point x="511" y="1470" type="line"/>
      <point x="303" y="1020" type="line"/>
      <point x="257" y="950" type="line"/>
      <point x="472" y="950" type="line"/>
      <point x="472" y="1153" type="line"/>
      <point x="577" y="1145" type="line"/>
      <point x="577" y="950" type="line"/>
      <point x="674" y="950" type="line"/>
    </contour>
  </outline>
</glyph>
<glyph name="superscriptfive" format="1">
  <advance width="1300"/>
  <unicode hex="2075"/>
  <outline>
    <contour>
      <point x="310" y="1211" type="line" name="hr00"/>
      <point x="313" y="1213"/>
      <point x="331" y="1222"/>
      <point x="357" y="1231"/>
      <point x="390" y="1237"/>
      <point x="411" y="1237" type="qcurve"/>
      <point x="463" y="1237"/>
      <point x="544" y="1205"/>
      <point x="601" y="1148"/>
      <point x="630" y="1072"/>
      <point x="630" y="1029" type="qcurve"/>
      <point x="630" y="979"/>
      <point x="594" y="893"/>
      <point x="532" y="825"/>
      <point x="448" y="773"/>
      <point x="354" y="737"/>
      <point x="254" y="720"/>
      <point x="206" y="720" type="qcurve"/>
      <point x="206" y="800" type="line"/>
      <point x="243" y="801"/>
      <point x="320" y="817"/>
      <point x="392" y="845"/>
      <point x="454" y="884"/>
      <point x="501" y="932"/>
      <point x="528" y="988"/>
      <point x="528" y="1019" type="qcurve"/>
      <point x="528" y="1044"/>
      <point x="511" y="1092"/>
      <point x="479" y="1130"/>
      <point x="430" y="1153"/>
      <point x="397" y="1153" type="qcurve"/>
      <point x="372" y="1153"/>
      <point x="331" y="1146"/>
      <point x="299" y="1136"/>
      <point x="275" y="1125"/>
      <point x="268" y="1120" type="qcurve"/>
      <point x="206" y="1120" type="line"/>
      <point x="206" y="1470" type="line"/>
      <point x="582" y="1470" type="line"/>
      <point x="582" y="1390" type="line"/>
      <point x="310" y="1390" type="line"/>
    </contour>
  </outline>
</glyph>
<glyph name="superscriptsix" format="1">
  <advance width="1300"/>
  <unicode hex="2076"/>
  <outline>
    <contour>
      <point x="579" y="1392" type="line" name="hr00"/>
      <point x="576" y="1393"/>
      <point x="562" y="1393"/>
      <point x="557" y="1393" type="qcurve"/>
      <point x="521" y="1393"/>
      <point x="453" y="1371"/>
      <point x="393" y="1330"/>
      <point x="342" y="1273"/>
      <point x="304" y="1204"/>
      <point x="279" y="1126"/>
      <point x="275" y="1085" type="qcurve"/>
      <point x="316" y="1143" type="line"/>
      <point x="329" y="1151"/>
      <point x="362" y="1166"/>
      <point x="399" y="1177"/>
      <point x="437" y="1183"/>
      <point x="454" y="1183" type="qcurve"/>
      <point x="498" y="1183"/>
      <point x="578" y="1159"/>
      <point x="641" y="1109"/>
      <point x="678" y="1031"/>
      <point x="678" y="976" type="qcurve"/>
      <point x="678" y="922"/>
      <point x="642" y="826"/>
      <point x="576" y="753"/>
      <point x="484" y="711"/>
      <point x="428" y="711" type="qcurve"/>
      <point x="379" y="711"/>
      <point x="303" y="743"/>
      <point x="247" y="795"/>
      <point x="210" y="862"/>
      <point x="186" y="932"/>
      <point x="176" y="1001"/>
      <point x="176" y="1030" type="qcurve"/>
      <point x="176" y="1089"/>
      <point x="201" y="1202"/>
      <point x="247" y="1302"/>
      <point x="314" y="1385"/>
      <point x="400" y="1445"/>
      <point x="502" y="1478"/>
      <point x="561" y="1478" type="qcurve"/>
      <point x="569" y="1478"/>
      <point x="587" y="1478"/>
      <point x="592" y="1477" type="qcurve"/>
    </contour>
    <contour>
      <point x="279" y="1018" type="qcurve"/>
      <point x="279" y="1004"/>
      <point x="280" y="981"/>
      <point x="282" y="959"/>
      <point x="286" y="937"/>
      <point x="289" y="923" type="qcurve"/>
      <point x="296" y="895"/>
      <point x="321" y="848"/>
      <point x="355" y="815"/>
      <point x="401" y="796"/>
      <point x="429" y="796" type="qcurve"/>
      <point x="469" y="796"/>
      <point x="524" y="826"/>
      <point x="559" y="876"/>
      <point x="576" y="939"/>
      <point x="576" y="971" type="qcurve"/>
      <point x="576" y="1003"/>
      <point x="557" y="1051"/>
      <point x="523" y="1082"/>
      <point x="476" y="1098"/>
      <point x="447" y="1098" type="qcurve"/>
      <point x="420" y="1098"/>
      <point x="369" y="1085"/>
      <point x="324" y="1063"/>
      <point x="290" y="1034"/>
    </contour>
  </outline>
</glyph>
<glyph name="superscriptplussign" format="1">
  <advance width="1300"/>
  <unicode hex="207A"/>
  <outline>
    <contour>
      <point x="200" y="1070" type="line" name="hr00"/>
      <point x="386" y="1070" type="line"/>
      <point x="386" y="1280" type="line"/>
      <point x="464" y="1280" type="line"/>
      <point x="464" y="1070" type="line"/>
      <point x="650" y="1070" type="line"/>
      <point x="650" y="992" type="line"/>
      <point x="464" y="992" type="line"/>
      <point x="464" y="781" type="line"/>
      <point x="386" y="781" type="line"/>
      <point x="386" y="992" type="line"/>
      <point x="200" y="992" type="line"/>
    </contour>
  </outline>
</glyph>
<glyph name="superscriptminus" format="1">
  <advance width="1300"/>
  <unicode hex="207B"/>
  <outline>
    <contour>
      <point x="200" y="1070" type="line" name="hr00"/>
      <point x="650" y="1070" type="line"/>
      <point x="650" y="992" type="line"/>
      <point x="200" y="992" type="line"/>
    </contour>
  </outline>
</glyph>
<glyph name="superscriptequalssign" format="1">
  <advance width="1300"/>
  <unicode hex="207C"/>
  <outline>
    <contour>
      <point x="200" y="1070" type="line" name="hr00"/>
      <point x="600" y="1070" type="line"/>
      <point x="600" y="1000" type="line"/>
      <point x="200" y="1000" type="line"/>
    </contour>
    <contour>
      <point x="200" y="920" type="line"/>
      <point x="600" y="920" type="line"/>
      <point x="600" y="850" type="line"/>
      <point x="200" y="850" type="line"/>
    </contour>
  </outline>
</glyph>
<glyph name="superscriptleftparenthesis" format="1">
  <advance width="1300"/>
  <unicode hex="207D"/>
  <outline>
    <contour>
      <point x="250" y="1307" type="line" name="hr00"/>
      <point x="250" y="1351"/>
      <point x="259" y="1428"/>
      <point x="289" y="1485"/>
      <point x="349" y="1517"/>
      <point x="400" y="1517" type="qcurve"/>
      <point x="409" y="1517"/>
      <point x="430" y="1515"/>
      <point x="449" y="1512"/>
      <point x="465" y="1507"/>
      <point x="469" y="1504" type="qcurve"/>
      <point x="435" y="1441" type="line"/>
      <point x="428" y="1442" type="line"/>
      <point x="424" y="1443"/>
      <point x="415" y="1444"/>
      <point x="410" y="1444" type="qcurve"/>
      <point x="388" y="1444"/>
      <point x="363" y="1423"/>
      <point x="352" y="1387"/>
      <point x="350" y="1340"/>
      <point x="350" y="1314" type="qcurve"/>
      <point x="350" y="710" type="line"/>
      <point x="350" y="684"/>
      <point x="352" y="637"/>
      <point x="363" y="601"/>
      <point x="388" y="580"/>
      <point x="410" y="580" type="qcurve"/>
      <point x="415" y="580"/>
      <point x="424" y="580"/>
      <point x="428" y="581" type="qcurve"/>
      <point x="435" y="582" type="line"/>
      <point x="469" y="519" type="line"/>
      <point x="465" y="516"/>
      <point x="449" y="512"/>
      <point x="430" y="508"/>
      <point x="409" y="507"/>
      <point x="400" y="507" type="qcurve"/>
      <point x="349" y="507"/>
      <point x="289" y="539"/>
      <point x="259" y="595"/>
      <point x="250" y="672"/>
      <point x="250" y="717" type="qcurve"/>
    </contour>
  </outline>
</glyph>
<glyph name="subscriptzero" format="1">
  <advance width="1300"/>
  <unicode hex="2080"/>
  <outline>
    <contour>
      <point x="415" y="-509" type="qcurve" name="hr00"/>
      <point x="373" y="-509"/>
      <point x="302" y="-476"/>
      <point x="245" y="-420"/>
      <point x="203" y="-345"/>
      <point x="174" y="-260"/>
      <point x="160" y="-169"/>
      <point x="160" y="-125" type="qcurve"/>
      <point x="160" y="-80"/>
      <point x="172" y="12"/>
      <point x="198" y="97"/>
      <point x="239" y="171"/>
      <point x="295" y="226"/>
      <point x="369" y="258"/>
      <point x="415" y="258" type="qcurve"/>
      <point x="458" y="258"/>
      <point x="529" y="226"/>
      <point x="585" y="170"/>
      <point x="628" y="95"/>
      <point x="656" y="9"/>
      <point x="670" y="-82"/>
      <point x="670" y="-125" type="qcurve"/>
      <point x="670" y="-170"/>
      <point x="658" y="-262"/>
      <point x="632" y="-347"/>
      <point x="592" y="-422"/>
      <point x="535" y="-477"/>
      <point x="461" y="-509"/>
    </contour>
    <contour>
      <point x="264" y="-104" type="qcurve"/>
      <point x="264" y="-133"/>
      <point x="268" y="-202"/>
      <point x="280" y="-273"/>
      <point x="301" y="-339"/>
      <point x="336" y="-390"/>
      <point x="385" y="-421"/>
      <point x="419" y="-421" type="qcurve"/>
      <point x="450" y="-421"/>
      <point x="495" y="-398"/>
      <point x="528" y="-357"/>
      <point x="549" y="-304"/>
      <point x="562" y="-243"/>
      <point x="567" y="-178"/>
      <point x="567" y="-147" type="qcurve"/>
      <point x="567" y="-118"/>
      <point x="563" y="-48"/>
      <point x="551" y="22"/>
      <point x="529" y="88"/>
      <point x="495" y="139"/>
      <point x="445" y="170"/>
      <point x="411" y="170" type="qcurve"/>
      <point x="381" y="170"/>
      <point x="335" y="147"/>
      <point x="302" y="107"/>
      <point x="281" y="53"/>
      <point x="269" y="-8"/>
      <point x="264" y="-73"/>
    </contour>
  </outline>
</glyph>
<glyph name="subscriptone" format="1">
  <advance width="1300"/>
  <unicode hex="2081"/>
  <outline>
    <contour>
      <point x="231" y="-500" type="line" name="hr00"/>
      <point x="231" y="-420" type="line"/>
      <point x="403" y="-420" type="line"/>
      <point x="403" y="63" type="line"/>
      <point x="432" y="176" type="line"/>
      <point x="364" y="83" type="line"/>
      <point x="258" y="-11" type="line"/>
      <point x="204" y="50" type="line"/>
      <point x="433" y="260" type="line"/>
      <point x="508" y="250" type="line"/>
      <point x="508" y="-420" type="line"/>
      <point x="681" y="-420" type="line"/>
      <point x="681" y="-500" type="line"/>
    </contour>
  </outline>
</glyph>
<glyph name="subscriptthree" format="1">
  <advance width="1300"/>
  <unicode hex="2083"/>
  <outline>
    <contour>
      <point x="212" y="170" type="line" name="hr00"/>
      <point x="220" y="250" type="line"/>
      <point x="610" y="250" type="line"/>
      <point x="610" y="180" type="line"/>
      <point x="604" y="160"/>
      <point x="575" y="116"/>
      <point x="537" y="72"/>
      <point x="491" y="29"/>
      <point x="468" y="9" type="qcurve"/>
      <point x="402" y="-28" type="line"/>
      <point x="407" y="-27"/>
      <point x="423" y="-26"/>
      <point x="430" y="-26" type="qcurve"/>
      <point x="478" y="-26"/>
      <point x="562" y="-50"/>
      <point x="623" y="-99"/>
      <point x="659" y="-173"/>
      <point x="659" y="-224" type="qcurve"/>
      <point x="659" y="-272"/>
      <point x="623" y="-351"/>
      <point x="560" y="-413"/>
      <point x="476" y="-457"/>
      <point x="381" y="-486"/>
      <point x="279" y="-500"/>
      <point x="230" y="-500" type="qcurve"/>
      <point x="230" y="-420" type="line"/>
      <point x="271" y="-419"/>
      <point x="351" y="-407"/>
      <point x="423" y="-385"/>
      <point x="484" y="-354"/>
      <point x="529" y="-313"/>
      <point x="554" y="-260"/>
      <point x="554" y="-229" type="qcurve"/>
      <point x="554" y="-193"/>
      <point x="523" y="-145"/>
      <point x="470" y="-117"/>
      <point x="399" y="-105"/>
      <point x="358" y="-105" type="qcurve"/>
      <point x="342" y="-105"/>
      <point x="304" y="-107"/>
      <point x="289" y="-108" type="qcurve"/>
      <point x="289" y="-30" type="line"/>
      <point x="310" y="-15"/>
      <point x="358" y="23"/>
      <point x="407" y="64"/>
      <point x="453" y="107"/>
      <point x="491" y="145"/>
      <point x="517" y="179"/>
      <point x="521" y="190" type="qcurve"/>
      <point x="445" y="170" type="line"/>
    </contour>
  </outline>
</glyph>
<glyph name="subscriptfive" format="1">
  <advance width="1300"/>
  <unicode hex="2085"/>
  <outline>
    <contour>
      <point x="310" y="-9" type="line" name="hr00"/>
      <point x="313" y="-7"/>
      <point x="331" y="2"/>
      <point x="357" y="11"/>
      <point x="390" y="17"/>
      <point x="411" y="17" type="qcurve"/>
      <point x="463" y="17"/>
      <point x="544" y="-15"/>
      <point x="601" y="-72"/>
      <point x="630" y="-148"/>
      <point x="630" y="-191" type="qcurve"/>
      <point x="630" y="-241"/>
      <point x="594" y="-327"/>
      <point x="532" y="-395"/>
      <point x="448" y="-447"/>
      <point x="354" y="-483"/>
      <point x="254" y="-500"/>
      <point x="206" y="-500" type="qcurve"/>
      <point x="206" y="-420" type="line"/>
      <point x="243" y="-419"/>
      <point x="320" y="-403"/>
      <point x="392" y="-375"/>
      <point x="454" y="-336"/>
      <point x="501" y="-288"/>
      <point x="528" y="-232"/>
      <point x="528" y="-201" type="qcurve"/>
      <point x="528" y="-176"/>
      <point x="511" y="-128"/>
      <point x="479" y="-90"/>
      <point x="430" y="-67"/>
      <point x="397" y="-67" type="qcurve"/>
      <point x="372" y="-67"/>
      <point x="331" y="-74"/>
      <point x="299" y="-84"/>
      <point x="275" y="-95"/>
      <point x="268" y="-100" type="qcurve"/>
      <point x="206" y="-100" type="line"/>
      <point x="206" y="250" type="line"/>
      <point x="582" y="250" type="line"/>
      <point x="582" y="170" type="line"/>
      <point x="310" y="170" type="line"/>
    </contour>
  </outline>
</glyph>
<glyph name="subscriptsix" format="1">
  <advance width="1300"/>
  <unicode hex="2086"/>
  <outline>
    <contour>
      <point x="579" y="172" type="line" name="hr00"/>
      <point x="576" y="173"/>
      <point x="562" y="173"/>
      <point x="557" y="173" type="qcurve"/>
      <point x="521" y="173"/>
      <point x="453" y="151"/>
      <point x="393" y="110"/>
      <point x="342" y="53"/>
      <point x="304" y="-16"/>
      <point x="279" y="-94"/>
      <point x="275" y="-135" type="qcurve"/>
      <point x="316" y="-77" type="line"/>
      <point x="329" y="-69"/>
      <point x="362" y="-54"/>
      <point x="399" y="-43"/>
      <point x="437" y="-37"/>
      <point x="454" y="-37" type="qcurve"/>
      <point x="498" y="-37"/>
      <point x="578" y="-61"/>
      <point x="641" y="-111"/>
      <point x="678" y="-189"/>
      <point x="678" y="-244" type="qcurve"/>
      <point x="678" y="-298"/>
      <point x="642" y="-394"/>
      <point x="576" y="-467"/>
      <point x="484" y="-509"/>
      <point x="428" y="-509" type="qcurve"/>
      <point x="379" y="-509"/>
      <point x="303" y="-477"/>
      <point x="247" y="-425"/>
      <point x="210" y="-358"/>
      <point x="186" y="-288"/>
      <point x="176" y="-219"/>
      <point x="176" y="-190" type="qcurve"/>
      <point x="176" y="-131"/>
      <point x="201" y="-18"/>
      <point x="247" y="82"/>
      <point x="314" y="165"/>
      <point x="400" y="225"/>
      <point x="502" y="258"/>
      <point x="561" y="258" type="qcurve"/>
      <point x="569" y="258"/>
      <point x="587" y="258"/>
      <point x="592" y="257" type="qcurve"/>
    </contour>
    <contour>
      <point x="279" y="-202" type="qcurve"/>
      <point x="279" y="-216"/>
      <point x="280" y="-239"/>
      <point x="282" y="-261"/>
      <point x="286" y="-283"/>
      <point x="289" y="-297" type="qcurve"/>
      <point x="296" y="-325"/>
      <point x="321" y="-372"/>
      <point x="355" y="-405"/>
      <point x="401" y="-424"/>
      <point x="429" y="-424" type="qcurve"/>
      <point x="469" y="-424"/>
      <point x="524" y="-394"/>
      <point x="559" y="-344"/>
      <point x="576" y="-281"/>
      <point x="576" y="-249" type="qcurve"/>
      <point x="576" y="-217"/>
      <point x="557" y="-169"/>
      <point x="523" y="-138"/>
      <point x="476" y="-122"/>
      <point x="447" y="-122" type="qcurve"/>
      <point x="420" y="-122"/>
      <point x="369" y="-135"/>
      <point x="324" y="-157"/>
      <point x="290" y="-186"/>
    </contour>
  </outline>
</glyph>
<glyph name="subscriptseven" format="1">
  <advance width="1300"/>
  <unicode hex="2087"/>
  <outline>
    <contour>
      <point x="188" y="250" type="line" name="hr00"/>
      <point x="660" y="250" type="line"/>
      <point x="660" y="185" type="line"/>
      <point x="660" y="163"/>
      <point x="627" y="96"/>
      <point x="577" y="12"/>
      <point x="518" y="-85"/>
      <point x="464" y="-186"/>
      <point x="424" y="-288"/>
      <point x="419" y="-336" type="qcurve"/>
      <point x="416" y="-356"/>
      <point x="414" y="-400"/>
      <point x="412" y="-443"/>
      <point x="412" y="-483"/>
      <point x="412" y="-500" type="qcurve"/>
      <point x="310" y="-500" type="line"/>
      <point x="310" y="-485"/>
      <point x="310" y="-435"/>
      <point x="312" y="-379"/>
      <point x="317" y="-324"/>
      <point x="321" y="-304" type="qcurve"/>
      <point x="333" y="-251"/>
      <point x="375" y="-147"/>
      <point x="426" y="-52"/>
      <point x="479" y="33"/>
      <point x="522" y="103"/>
      <point x="549" y="155"/>
      <point x="549" y="170" type="qcurve"/>
      <point x="188" y="170" type="line"/>
    </contour>
  </outline>
</glyph>
<glyph name="subscriptnine" format="1">
  <advance width="1300"/>
  <unicode hex="2089"/>
  <outline>
    <contour>
      <point x="533" y="-169" type="line" name="hr00"/>
      <point x="504" y="-192"/>
      <point x="444" y="-214"/>
      <point x="407" y="-214" type="qcurve"/>
      <point x="358" y="-214"/>
      <point x="273" y="-181"/>
      <point x="210" y="-121"/>
      <point x="174" y="-37"/>
      <point x="174" y="15" type="qcurve"/>
      <point x="174" y="69"/>
      <point x="208" y="158"/>
      <point x="272" y="223"/>
      <point x="362" y="258"/>
      <point x="418" y="258" type="qcurve"/>
      <point x="468" y="258"/>
      <point x="545" y="227"/>
      <point x="601" y="176"/>
      <point x="638" y="110"/>
      <point x="661" y="39"/>
      <point x="670" y="-31"/>
      <point x="670" y="-60" type="qcurve"/>
      <point x="670" y="-118"/>
      <point x="647" y="-229"/>
      <point x="601" y="-327"/>
      <point x="535" y="-409"/>
      <point x="451" y="-470"/>
      <point x="349" y="-506"/>
      <point x="290" y="-509" type="qcurve"/>
      <point x="274" y="-425" type="line"/>
      <point x="334" y="-422"/>
      <point x="440" y="-371"/>
      <point x="520" y="-287"/>
      <point x="570" y="-174"/>
      <point x="573" y="-110" type="qcurve"/>
    </contour>
    <contour>
      <point x="567" y="-24" type="qcurve"/>
      <point x="566" y="14"/>
      <point x="547" y="84"/>
      <point x="511" y="140"/>
      <point x="458" y="173"/>
      <point x="422" y="173" type="qcurve"/>
      <point x="388" y="173"/>
      <point x="334" y="151"/>
      <point x="296" y="112"/>
      <point x="276" y="57"/>
      <point x="276" y="24" type="qcurve"/>
      <point x="276" y="-8"/>
      <point x="292" y="-64"/>
      <point x="326" y="-105"/>
      <point x="377" y="-129"/>
      <point x="412" y="-129" type="qcurve"/>
      <point x="438" y="-129"/>
      <point x="487" y="-112"/>
      <point x="527" y="-83"/>
      <point x="558" y="-45"/>
    </contour>
  </outline>
</glyph>
<glyph name="subscriptplussign" format="1">
  <advance width="1300"/>
  <unicode hex="208A"/>
  <outline>
    <contour>
      <point x="200" y="-150" type="line" name="hr00"/>
      <point x="386" y="-150" type="line"/>
      <point x="386" y="60" type="line"/>
      <point x="464" y="60" type="line"/>
      <point x="464" y="-150" type="line"/>
      <point x="650" y="-150" type="line"/>
      <point x="650" y="-228" type="line"/>
      <point x="464" y="-228" type="line"/>
      <point x="464" y="-439" type="line"/>
      <point x="386" y="-439" type="line"/>
      <point x="386" y="-228" type="line"/>
      <point x="200" y="-228" type="line"/>
    </contour>
  </outline>
</glyph>
<glyph name="subscriptequals" format="1">
  <advance width="1300"/>
  <unicode hex="208C"/>
  <outline>
    <contour>
      <point x="200" y="-150" type="line" name="hr00"/>
      <point x="600" y="-150" type="line"/>
      <point x="600" y="-220" type="line"/>
      <point x="200" y="-220" type="line"/>
    </contour>
    <contour>
      <point x="200" y="-300" type="line"/>
      <point x="600" y="-300" type="line"/>
      <point x="600" y="-370" type="line"/>
      <point x="200" y="-370" type="line"/>
    </contour>
  </outline>
</glyph>
<glyph name="subscriptleftparenthesis" format="1">
  <advance width="1300"/>
  <unicode hex="208D"/>
  <outline>
    <contour>
      <point x="250" y="90" type="line" name="hr00"/>
      <point x="250" y="134"/>
      <point x="259" y="211"/>
      <point x="289" y="268"/>
      <point x="349" y="300"/>
      <point x="400" y="300" type="qcurve"/>
      <point x="409" y="300"/>
      <point x="430" y="298"/>
      <point x="449" y="295"/>
      <point x="465" y="290"/>
      <point x="469" y="287" type="qcurve"/>
      <point x="435" y="224" type="line"/>
      <point x="428" y="225" type="line"/>
      <point x="424" y="226"/>
      <point x="415" y="227"/>
      <point x="410" y="227" type="qcurve"/>
      <point x="388" y="227"/>
      <point x="363" y="206"/>
      <point x="352" y="170"/>
      <point x="350" y="123"/>
      <point x="350" y="97" type="qcurve"/>
      <point x="350" y="-507" type="line"/>
      <point x="350" y="-533"/>
      <point x="352" y="-580"/>
      <point x="363" y="-616"/>
      <point x="388" y="-637"/>
      <point x="410" y="-637" type="qcurve"/>
      <point x="415" y="-637"/>
      <point x="424" y="-637"/>
      <point x="428" y="-636" type="qcurve"/>
      <point x="435" y="-635" type="line"/>
      <point x="469" y="-698" type="line"/>
      <point x="465" y="-701"/>
      <point x="449" y="-705"/>
      <point x="430" y="-709"/>
      <point x="409" y="-710"/>
      <point x="400" y="-710" type="qcurve"/>
      <point x="349" y="-710"/>
      <point x="289" y="-678"/>
      <point x="259" y="-622"/>
      <point x="250" y="-545"/>
      <point x="250" y="-500" type="qcurve"/>
    </contour>
  </outline>
</glyph>
